# MagicaVoxel @ Ephtracy

# group
g TV2

# material
mtllib TV2.mtl
usemtl palette

# normals
vn -1 0 0
vn 1 0 0
vn 0 0 1
vn 0 0 -1
vn 0 -1 0
vn 0 1 0

# texcoords
vt 0.912109 0.5
vt 0.958984 0.5
vt 0.966797 0.5

# verts
v -0.5 3 -8
v -0.5 3 -9
v -0.5 3 -10
v -0.5 4 -5
v -0.5 4 -8
v -0.5 5 2
v -0.5 5 1
v -0.5 5 -3
v -0.5 5 -5
v -0.5 6 -1
v -0.5 6 -3
v -0.5 7 1
v -0.5 7 -1
v -0.5 8 -5
v -0.5 8 -6
v -0.5 9 -4
v -0.5 9 -5
v -0.5 9 -6
v -0.5 10 -4
v -0.5 10 -5
v -0.5 11 2
v -0.5 11 -9
v -0.5 12 2
v -0.5 12 -10
v 0.5 3 -8
v 0.5 3 -9
v 0.5 3 -10
v 0.5 4 -5
v 0.5 4 -8
v 0.5 5 2
v 0.5 5 1
v 0.5 5 -3
v 0.5 5 -5
v 0.5 6 -1
v 0.5 6 -3
v 0.5 7 1
v 0.5 7 -1
v 0.5 8 -5
v 0.5 8 -6
v 0.5 9 -4
v 0.5 9 -5
v 0.5 9 -6
v 0.5 10 -4
v 0.5 10 -5
v 0.5 11 2
v 0.5 11 -9
v 0.5 12 2
v 0.5 12 -10
v -0.5 5 2
v -0.5 11 2
v -0.5 12 2
v 0.5 5 2
v 0.5 11 2
v 0.5 12 2
v -0.5 6 -1
v -0.5 7 -1
v 0.5 6 -1
v 0.5 7 -1
v -0.5 5 -3
v -0.5 6 -3
v 0.5 5 -3
v 0.5 6 -3
v -0.5 4 -5
v -0.5 5 -5
v 0.5 4 -5
v 0.5 5 -5
v -0.5 3 -8
v -0.5 4 -8
v 0.5 3 -8
v 0.5 4 -8
v -0.5 5 1
v -0.5 7 1
v 0.5 5 1
v 0.5 7 1
v -0.5 3 -10
v -0.5 12 -10
v 0.5 3 -10
v 0.5 12 -10
v -0.5 3 -8
v 0.5 3 -8
v -0.5 3 -9
v 0.5 3 -9
v -0.5 3 -10
v 0.5 3 -10
v -0.5 4 -5
v 0.5 4 -5
v -0.5 4 -8
v 0.5 4 -8
v -0.5 5 2
v 0.5 5 2
v -0.5 5 1
v 0.5 5 1
v -0.5 5 -3
v 0.5 5 -3
v -0.5 5 -5
v 0.5 5 -5
v -0.5 6 -1
v 0.5 6 -1
v -0.5 6 -3
v 0.5 6 -3
v -0.5 7 1
v 0.5 7 1
v -0.5 7 -1
v 0.5 7 -1
v -0.5 12 2
v 0.5 12 2
v -0.5 12 -10
v 0.5 12 -10

# faces
f 5/2/1 2/2/1 1/2/1
f 9/2/1 5/2/1 4/2/1
f 11/2/1 9/2/1 8/2/1
f 12/2/1 7/2/1 6/2/1
f 13/2/1 11/2/1 10/2/1
f 14/2/1 5/2/1 9/2/1
f 14/2/1 13/2/1 12/2/1
f 14/2/1 11/2/1 13/2/1
f 14/2/1 9/2/1 11/2/1
f 15/2/1 5/2/1 14/2/1
f 16/2/1 14/2/1 12/2/1
f 17/1/1 15/1/1 14/1/1
f 17/2/1 14/2/1 16/2/1
f 18/2/1 5/2/1 15/2/1
f 18/1/1 15/1/1 17/1/1
f 19/1/1 17/1/1 16/1/1
f 19/2/1 16/2/1 12/2/1
f 20/2/1 18/2/1 17/2/1
f 20/1/1 17/1/1 19/1/1
f 21/2/1 12/2/1 6/2/1
f 21/2/1 19/2/1 12/2/1
f 21/2/1 20/2/1 19/2/1
f 22/3/1 3/3/1 2/3/1
f 22/2/1 20/2/1 21/2/1
f 22/2/1 2/2/1 5/2/1
f 22/2/1 5/2/1 18/2/1
f 22/2/1 18/2/1 20/2/1
f 23/3/1 22/3/1 21/3/1
f 24/3/1 3/3/1 22/3/1
f 24/3/1 22/3/1 23/3/1
f 25/2/2 26/2/2 29/2/2
f 28/2/2 29/2/2 33/2/2
f 32/2/2 33/2/2 35/2/2
f 30/2/2 31/2/2 36/2/2
f 34/2/2 35/2/2 37/2/2
f 33/2/2 29/2/2 38/2/2
f 36/2/2 37/2/2 38/2/2
f 37/2/2 35/2/2 38/2/2
f 35/2/2 33/2/2 38/2/2
f 38/2/2 29/2/2 39/2/2
f 36/2/2 38/2/2 40/2/2
f 38/1/2 39/1/2 41/1/2
f 40/2/2 38/2/2 41/2/2
f 39/2/2 29/2/2 42/2/2
f 41/1/2 39/1/2 42/1/2
f 40/1/2 41/1/2 43/1/2
f 36/2/2 40/2/2 43/2/2
f 41/2/2 42/2/2 44/2/2
f 43/1/2 41/1/2 44/1/2
f 30/2/2 36/2/2 45/2/2
f 36/2/2 43/2/2 45/2/2
f 43/2/2 44/2/2 45/2/2
f 26/3/2 27/3/2 46/3/2
f 45/2/2 44/2/2 46/2/2
f 29/2/2 26/2/2 46/2/2
f 42/2/2 29/2/2 46/2/2
f 44/2/2 42/2/2 46/2/2
f 45/3/2 46/3/2 47/3/2
f 46/3/2 27/3/2 48/3/2
f 47/3/2 46/3/2 48/3/2
f 52/2/3 50/2/3 49/2/3
f 53/3/3 51/3/3 50/3/3
f 53/2/3 50/2/3 52/2/3
f 54/3/3 51/3/3 53/3/3
f 57/2/3 56/2/3 55/2/3
f 58/2/3 56/2/3 57/2/3
f 61/2/3 60/2/3 59/2/3
f 62/2/3 60/2/3 61/2/3
f 65/2/3 64/2/3 63/2/3
f 66/2/3 64/2/3 65/2/3
f 69/2/3 68/2/3 67/2/3
f 70/2/3 68/2/3 69/2/3
f 71/2/4 72/2/4 73/2/4
f 73/2/4 72/2/4 74/2/4
f 75/3/4 76/3/4 77/3/4
f 77/3/4 76/3/4 78/3/4
f 81/2/5 80/2/5 79/2/5
f 82/2/5 80/2/5 81/2/5
f 83/3/5 82/3/5 81/3/5
f 84/3/5 82/3/5 83/3/5
f 87/2/5 86/2/5 85/2/5
f 88/2/5 86/2/5 87/2/5
f 91/2/5 90/2/5 89/2/5
f 92/2/5 90/2/5 91/2/5
f 95/2/5 94/2/5 93/2/5
f 96/2/5 94/2/5 95/2/5
f 99/2/5 98/2/5 97/2/5
f 100/2/5 98/2/5 99/2/5
f 103/2/5 102/2/5 101/2/5
f 104/2/5 102/2/5 103/2/5
f 105/3/6 106/3/6 107/3/6
f 107/3/6 106/3/6 108/3/6
