# MagicaVoxel @ Ephtracy

# group
g TV3

# material
mtllib TV3.mtl
usemtl palette

# normals
vn -1 0 0
vn 1 0 0
vn 0 0 1
vn 0 0 -1
vn 0 -1 0
vn 0 1 0

# texcoords
vt 0.912109 0.5
vt 0.958984 0.5
vt 0.966797 0.5

# verts
v -0.5 5 3
v -0.5 5 2
v -0.5 6 5
v -0.5 6 4
v -0.5 6 3
v -0.5 6 2
v -0.5 7 6
v -0.5 7 5
v -0.5 7 4
v -0.5 7 3
v -0.5 8 8
v -0.5 8 6
v -0.5 8 5
v -0.5 8 4
v -0.5 9 10
v -0.5 9 9
v -0.5 9 8
v -0.5 9 6
v -0.5 9 5
v -0.5 11 9
v -0.5 11 2
v -0.5 12 10
v -0.5 12 2
v 0.5 5 3
v 0.5 5 2
v 0.5 6 5
v 0.5 6 4
v 0.5 6 3
v 0.5 6 2
v 0.5 7 6
v 0.5 7 5
v 0.5 7 4
v 0.5 7 3
v 0.5 8 8
v 0.5 8 6
v 0.5 8 5
v 0.5 8 4
v 0.5 9 10
v 0.5 9 9
v 0.5 9 8
v 0.5 9 6
v 0.5 9 5
v 0.5 11 9
v 0.5 11 2
v 0.5 12 10
v 0.5 12 2
v -0.5 9 10
v -0.5 12 10
v 0.5 9 10
v 0.5 12 10
v -0.5 8 8
v -0.5 9 8
v 0.5 8 8
v 0.5 9 8
v -0.5 7 6
v -0.5 8 6
v 0.5 7 6
v 0.5 8 6
v -0.5 6 5
v -0.5 7 5
v 0.5 6 5
v 0.5 7 5
v -0.5 5 3
v -0.5 6 3
v 0.5 5 3
v 0.5 6 3
v -0.5 5 2
v -0.5 6 2
v -0.5 11 2
v -0.5 12 2
v 0.5 5 2
v 0.5 6 2
v 0.5 11 2
v 0.5 12 2
v -0.5 5 3
v 0.5 5 3
v -0.5 5 2
v 0.5 5 2
v -0.5 6 5
v 0.5 6 5
v -0.5 6 4
v 0.5 6 4
v -0.5 6 3
v 0.5 6 3
v -0.5 7 6
v 0.5 7 6
v -0.5 7 5
v 0.5 7 5
v -0.5 8 8
v 0.5 8 8
v -0.5 8 6
v 0.5 8 6
v -0.5 9 10
v 0.5 9 10
v -0.5 9 9
v 0.5 9 9
v -0.5 9 8
v 0.5 9 8
v -0.5 12 10
v 0.5 12 10
v -0.5 12 2
v 0.5 12 2

# faces
f 5/1/1 2/1/1 1/1/1
f 6/1/1 2/1/1 5/1/1
f 8/2/1 4/2/1 3/2/1
f 9/1/1 5/1/1 4/1/1
f 9/2/1 4/2/1 8/2/1
f 10/2/1 6/2/1 5/2/1
f 10/1/1 5/1/1 9/1/1
f 12/2/1 8/2/1 7/2/1
f 13/1/1 9/1/1 8/1/1
f 13/2/1 8/2/1 12/2/1
f 14/2/1 10/2/1 9/2/1
f 14/1/1 9/1/1 13/1/1
f 17/2/1 12/2/1 11/2/1
f 18/1/1 13/1/1 12/1/1
f 18/2/1 12/2/1 17/2/1
f 19/2/1 14/2/1 13/2/1
f 19/1/1 13/1/1 18/1/1
f 20/3/1 16/3/1 15/3/1
f 20/2/1 17/2/1 16/2/1
f 20/2/1 19/2/1 18/2/1
f 20/2/1 18/2/1 17/2/1
f 21/2/1 6/2/1 10/2/1
f 21/2/1 19/2/1 20/2/1
f 21/2/1 14/2/1 19/2/1
f 21/2/1 10/2/1 14/2/1
f 22/3/1 20/3/1 15/3/1
f 22/3/1 21/3/1 20/3/1
f 23/3/1 21/3/1 22/3/1
f 24/1/2 25/1/2 28/1/2
f 28/1/2 25/1/2 29/1/2
f 26/2/2 27/2/2 31/2/2
f 27/1/2 28/1/2 32/1/2
f 31/2/2 27/2/2 32/2/2
f 28/2/2 29/2/2 33/2/2
f 32/1/2 28/1/2 33/1/2
f 30/2/2 31/2/2 35/2/2
f 31/1/2 32/1/2 36/1/2
f 35/2/2 31/2/2 36/2/2
f 32/2/2 33/2/2 37/2/2
f 36/1/2 32/1/2 37/1/2
f 34/2/2 35/2/2 40/2/2
f 35/1/2 36/1/2 41/1/2
f 40/2/2 35/2/2 41/2/2
f 36/2/2 37/2/2 42/2/2
f 41/1/2 36/1/2 42/1/2
f 38/3/2 39/3/2 43/3/2
f 39/2/2 40/2/2 43/2/2
f 41/2/2 42/2/2 43/2/2
f 40/2/2 41/2/2 43/2/2
f 33/2/2 29/2/2 44/2/2
f 43/2/2 42/2/2 44/2/2
f 42/2/2 37/2/2 44/2/2
f 37/2/2 33/2/2 44/2/2
f 38/3/2 43/3/2 45/3/2
f 43/3/2 44/3/2 45/3/2
f 45/3/2 44/3/2 46/3/2
f 49/3/3 48/3/3 47/3/3
f 50/3/3 48/3/3 49/3/3
f 53/2/3 52/2/3 51/2/3
f 54/2/3 52/2/3 53/2/3
f 57/2/3 56/2/3 55/2/3
f 58/2/3 56/2/3 57/2/3
f 61/2/3 60/2/3 59/2/3
f 62/2/3 60/2/3 61/2/3
f 65/1/3 64/1/3 63/1/3
f 66/1/3 64/1/3 65/1/3
f 67/1/4 68/1/4 71/1/4
f 68/2/4 69/2/4 72/2/4
f 71/1/4 68/1/4 72/1/4
f 69/3/4 70/3/4 73/3/4
f 72/2/4 69/2/4 73/2/4
f 73/3/4 70/3/4 74/3/4
f 77/1/5 76/1/5 75/1/5
f 78/1/5 76/1/5 77/1/5
f 81/2/5 80/2/5 79/2/5
f 82/2/5 80/2/5 81/2/5
f 83/1/5 82/1/5 81/1/5
f 84/1/5 82/1/5 83/1/5
f 87/2/5 86/2/5 85/2/5
f 88/2/5 86/2/5 87/2/5
f 91/2/5 90/2/5 89/2/5
f 92/2/5 90/2/5 91/2/5
f 95/3/5 94/3/5 93/3/5
f 96/3/5 94/3/5 95/3/5
f 97/2/5 96/2/5 95/2/5
f 98/2/5 96/2/5 97/2/5
f 99/3/6 100/3/6 101/3/6
f 101/3/6 100/3/6 102/3/6
