# MagicaVoxel @ Ephtracy

# group
g NightStand

# material
mtllib NightStand.mtl
usemtl palette

# normals
vn -1 0 0
vn 1 0 0
vn 0 0 1
vn 0 0 -1
vn 0 -1 0
vn 0 1 0

# texcoords
vt 0.759766 0.5
vt 0.876953 0.5
vt 0.892578 0.5

# verts
v -5 0 4.5
v -5 0 2.5
v -5 0 -3.5
v -5 0 -5.5
v -5 1 4.5
v -5 1 2.5
v -5 1 -3.5
v -5 1 -5.5
v -5 3 3.5
v -5 3 -4.5
v -5 4 0.5
v -5 4 -1.5
v -5 5 0.5
v -5 5 -1.5
v -5 6 3.5
v -5 6 -4.5
v -5 7 3.5
v -5 7 -4.5
v -5 8 0.5
v -5 8 -1.5
v -5 9 0.5
v -5 9 -1.5
v -5 10 3.5
v -5 10 -4.5
v -5 11 4.5
v -5 11 -5.5
v -4 3 3.5
v -4 3 -4.5
v -4 4 0.5
v -4 4 -1.5
v -4 5 0.5
v -4 5 -1.5
v -4 6 3.5
v -4 6 -4.5
v -4 7 3.5
v -4 7 -4.5
v -4 8 0.5
v -4 8 -1.5
v -4 9 0.5
v -4 9 -1.5
v -4 10 3.5
v -4 10 -4.5
v 3 0 4.5
v 3 0 2.5
v 3 0 -3.5
v 3 0 -5.5
v 3 1 4.5
v 3 1 2.5
v 3 1 -3.5
v 3 1 -5.5
v 4 2 4.5
v 4 2 3.5
v 4 2 -4.5
v 4 2 -5.5
v 4 10 4.5
v 4 10 3.5
v 4 10 -4.5
v 4 10 -5.5
v -4 2 4.5
v -4 2 3.5
v -4 2 -4.5
v -4 2 -5.5
v -4 10 4.5
v -4 10 3.5
v -4 10 -4.5
v -4 10 -5.5
v -3 0 4.5
v -3 0 2.5
v -3 0 -3.5
v -3 0 -5.5
v -3 1 4.5
v -3 1 2.5
v -3 1 -3.5
v -3 1 -5.5
v 4 2 3.5
v 4 2 -4.5
v 4 10 3.5
v 4 10 -4.5
v 5 0 4.5
v 5 0 2.5
v 5 0 -3.5
v 5 0 -5.5
v 5 1 4.5
v 5 1 2.5
v 5 1 -3.5
v 5 1 -5.5
v 5 2 3.5
v 5 2 -4.5
v 5 10 3.5
v 5 10 -4.5
v 5 11 4.5
v 5 11 -5.5
v -5 0 4.5
v -5 1 4.5
v -5 11 4.5
v -4 2 4.5
v -4 10 4.5
v -3 0 4.5
v -3 1 4.5
v 3 0 4.5
v 3 1 4.5
v 4 2 4.5
v 4 10 4.5
v 5 0 4.5
v 5 1 4.5
v 5 11 4.5
v -4 2 3.5
v -4 10 3.5
v 4 2 3.5
v 4 10 3.5
v -5 4 0.5
v -5 5 0.5
v -5 8 0.5
v -5 9 0.5
v -4 4 0.5
v -4 5 0.5
v -4 8 0.5
v -4 9 0.5
v -5 0 -3.5
v -5 1 -3.5
v -3 0 -3.5
v -3 1 -3.5
v 3 0 -3.5
v 3 1 -3.5
v 5 0 -3.5
v 5 1 -3.5
v -5 3 -4.5
v -5 6 -4.5
v -5 7 -4.5
v -5 10 -4.5
v -4 3 -4.5
v -4 6 -4.5
v -4 7 -4.5
v -4 10 -4.5
v 4 2 -4.5
v 4 10 -4.5
v 5 2 -4.5
v 5 10 -4.5
v -5 3 3.5
v -5 6 3.5
v -5 7 3.5
v -5 10 3.5
v -4 3 3.5
v -4 6 3.5
v -4 7 3.5
v -4 10 3.5
v 4 2 3.5
v 4 10 3.5
v 5 2 3.5
v 5 10 3.5
v -5 0 2.5
v -5 1 2.5
v -3 0 2.5
v -3 1 2.5
v 3 0 2.5
v 3 1 2.5
v 5 0 2.5
v 5 1 2.5
v -5 4 -1.5
v -5 5 -1.5
v -5 8 -1.5
v -5 9 -1.5
v -4 4 -1.5
v -4 5 -1.5
v -4 8 -1.5
v -4 9 -1.5
v -4 2 -4.5
v -4 10 -4.5
v 4 2 -4.5
v 4 10 -4.5
v -5 0 -5.5
v -5 1 -5.5
v -5 11 -5.5
v -4 2 -5.5
v -4 10 -5.5
v -3 0 -5.5
v -3 1 -5.5
v 3 0 -5.5
v 3 1 -5.5
v 4 2 -5.5
v 4 10 -5.5
v 5 0 -5.5
v 5 1 -5.5
v 5 11 -5.5
v -5 0 4.5
v -3 0 4.5
v 3 0 4.5
v 5 0 4.5
v -5 0 2.5
v -3 0 2.5
v 3 0 2.5
v 5 0 2.5
v -5 0 -3.5
v -3 0 -3.5
v 3 0 -3.5
v 5 0 -3.5
v -5 0 -5.5
v -3 0 -5.5
v 3 0 -5.5
v 5 0 -5.5
v -3 1 4.5
v 3 1 4.5
v -5 1 2.5
v -3 1 2.5
v 3 1 2.5
v 5 1 2.5
v -5 1 -3.5
v -3 1 -3.5
v 3 1 -3.5
v 5 1 -3.5
v -3 1 -5.5
v 3 1 -5.5
v -5 4 0.5
v -4 4 0.5
v -5 4 -1.5
v -4 4 -1.5
v -5 6 3.5
v -4 6 3.5
v -5 6 -4.5
v -4 6 -4.5
v -5 8 0.5
v -4 8 0.5
v -5 8 -1.5
v -4 8 -1.5
v -4 10 4.5
v 4 10 4.5
v -5 10 3.5
v -4 10 3.5
v 4 10 3.5
v 5 10 3.5
v -5 10 -4.5
v -4 10 -4.5
v 4 10 -4.5
v 5 10 -4.5
v -4 10 -5.5
v 4 10 -5.5
v -4 2 4.5
v 4 2 4.5
v -4 2 3.5
v 4 2 3.5
v 5 2 3.5
v -4 2 -4.5
v 4 2 -4.5
v 5 2 -4.5
v -4 2 -5.5
v 4 2 -5.5
v -5 3 3.5
v -4 3 3.5
v -5 3 -4.5
v -4 3 -4.5
v -5 5 0.5
v -4 5 0.5
v -5 5 -1.5
v -4 5 -1.5
v -5 7 3.5
v -4 7 3.5
v -5 7 -4.5
v -4 7 -4.5
v -5 9 0.5
v -4 9 0.5
v -5 9 -1.5
v -4 9 -1.5
v -5 11 4.5
v 5 11 4.5
v -5 11 -5.5
v 5 11 -5.5

# faces
f 5/1/1 2/1/1 1/1/1
f 6/1/1 2/1/1 5/1/1
f 7/1/1 4/1/1 3/1/1
f 8/1/1 4/1/1 7/1/1
f 9/3/1 6/3/1 5/3/1
f 9/3/1 7/3/1 6/3/1
f 9/3/1 8/3/1 7/3/1
f 10/3/1 8/3/1 9/3/1
f 13/3/1 12/3/1 11/3/1
f 14/3/1 12/3/1 13/3/1
f 15/3/1 9/3/1 5/3/1
f 16/3/1 8/3/1 10/3/1
f 17/3/1 15/3/1 5/3/1
f 17/3/1 16/3/1 15/3/1
f 18/3/1 8/3/1 16/3/1
f 18/3/1 16/3/1 17/3/1
f 21/3/1 20/3/1 19/3/1
f 22/3/1 20/3/1 21/3/1
f 23/3/1 17/3/1 5/3/1
f 24/3/1 8/3/1 18/3/1
f 25/3/1 23/3/1 5/3/1
f 25/3/1 24/3/1 23/3/1
f 26/3/1 8/3/1 24/3/1
f 26/3/1 24/3/1 25/3/1
f 29/2/1 28/2/1 27/2/1
f 30/2/1 28/2/1 29/2/1
f 31/2/1 29/2/1 27/2/1
f 32/2/1 28/2/1 30/2/1
f 33/2/1 31/2/1 27/2/1
f 33/2/1 32/2/1 31/2/1
f 34/2/1 28/2/1 32/2/1
f 34/2/1 32/2/1 33/2/1
f 37/2/1 36/2/1 35/2/1
f 38/2/1 36/2/1 37/2/1
f 39/2/1 37/2/1 35/2/1
f 40/2/1 36/2/1 38/2/1
f 41/2/1 39/2/1 35/2/1
f 41/2/1 40/2/1 39/2/1
f 42/2/1 36/2/1 40/2/1
f 42/2/1 40/2/1 41/2/1
f 47/1/1 44/1/1 43/1/1
f 48/1/1 44/1/1 47/1/1
f 49/1/1 46/1/1 45/1/1
f 50/1/1 46/1/1 49/1/1
f 55/3/1 52/3/1 51/3/1
f 56/3/1 52/3/1 55/3/1
f 57/3/1 54/3/1 53/3/1
f 58/3/1 54/3/1 57/3/1
f 59/3/2 60/3/2 63/3/2
f 63/3/2 60/3/2 64/3/2
f 61/3/2 62/3/2 65/3/2
f 65/3/2 62/3/2 66/3/2
f 67/1/2 68/1/2 71/1/2
f 71/1/2 68/1/2 72/1/2
f 69/1/2 70/1/2 73/1/2
f 73/1/2 70/1/2 74/1/2
f 75/2/2 76/2/2 77/2/2
f 77/2/2 76/2/2 78/2/2
f 79/1/2 80/1/2 83/1/2
f 83/1/2 80/1/2 84/1/2
f 81/1/2 82/1/2 85/1/2
f 85/1/2 82/1/2 86/1/2
f 83/3/2 84/3/2 87/3/2
f 84/3/2 85/3/2 87/3/2
f 85/3/2 86/3/2 87/3/2
f 87/3/2 86/3/2 88/3/2
f 83/3/2 87/3/2 89/3/2
f 88/3/2 86/3/2 90/3/2
f 83/3/2 89/3/2 91/3/2
f 89/3/2 90/3/2 91/3/2
f 90/3/2 86/3/2 92/3/2
f 91/3/2 90/3/2 92/3/2
f 96/3/3 95/3/3 94/3/3
f 97/3/3 95/3/3 96/3/3
f 98/1/3 94/1/3 93/1/3
f 99/3/3 96/3/3 94/3/3
f 99/1/3 94/1/3 98/1/3
f 101/3/3 96/3/3 99/3/3
f 102/3/3 96/3/3 101/3/3
f 103/3/3 95/3/3 97/3/3
f 104/1/3 101/1/3 100/1/3
f 105/3/3 102/3/3 101/3/3
f 105/1/3 101/1/3 104/1/3
f 105/3/3 103/3/3 102/3/3
f 106/3/3 95/3/3 103/3/3
f 106/3/3 103/3/3 105/3/3
f 109/2/3 108/2/3 107/2/3
f 110/2/3 108/2/3 109/2/3
f 115/3/3 112/3/3 111/3/3
f 116/3/3 112/3/3 115/3/3
f 117/3/3 114/3/3 113/3/3
f 118/3/3 114/3/3 117/3/3
f 121/1/3 120/1/3 119/1/3
f 122/1/3 120/1/3 121/1/3
f 125/1/3 124/1/3 123/1/3
f 126/1/3 124/1/3 125/1/3
f 131/3/3 128/3/3 127/3/3
f 132/3/3 128/3/3 131/3/3
f 133/3/3 130/3/3 129/3/3
f 134/3/3 130/3/3 133/3/3
f 137/3/3 136/3/3 135/3/3
f 138/3/3 136/3/3 137/3/3
f 139/3/4 140/3/4 143/3/4
f 143/3/4 140/3/4 144/3/4
f 141/3/4 142/3/4 145/3/4
f 145/3/4 142/3/4 146/3/4
f 147/3/4 148/3/4 149/3/4
f 149/3/4 148/3/4 150/3/4
f 151/1/4 152/1/4 153/1/4
f 153/1/4 152/1/4 154/1/4
f 155/1/4 156/1/4 157/1/4
f 157/1/4 156/1/4 158/1/4
f 159/3/4 160/3/4 163/3/4
f 163/3/4 160/3/4 164/3/4
f 161/3/4 162/3/4 165/3/4
f 165/3/4 162/3/4 166/3/4
f 167/2/4 168/2/4 169/2/4
f 169/2/4 168/2/4 170/2/4
f 172/3/4 173/3/4 174/3/4
f 174/3/4 173/3/4 175/3/4
f 171/1/4 172/1/4 176/1/4
f 172/3/4 174/3/4 177/3/4
f 176/1/4 172/1/4 177/1/4
f 177/3/4 174/3/4 179/3/4
f 179/3/4 174/3/4 180/3/4
f 175/3/4 173/3/4 181/3/4
f 178/1/4 179/1/4 182/1/4
f 179/3/4 180/3/4 183/3/4
f 182/1/4 179/1/4 183/1/4
f 180/3/4 181/3/4 183/3/4
f 181/3/4 173/3/4 184/3/4
f 183/3/4 181/3/4 184/3/4
f 189/1/5 186/1/5 185/1/5
f 190/1/5 186/1/5 189/1/5
f 191/1/5 188/1/5 187/1/5
f 192/1/5 188/1/5 191/1/5
f 197/1/5 194/1/5 193/1/5
f 198/1/5 194/1/5 197/1/5
f 199/1/5 196/1/5 195/1/5
f 200/1/5 196/1/5 199/1/5
f 204/3/5 202/3/5 201/3/5
f 205/3/5 202/3/5 204/3/5
f 207/3/5 204/3/5 203/3/5
f 207/3/5 206/3/5 205/3/5
f 207/3/5 205/3/5 204/3/5
f 208/3/5 206/3/5 207/3/5
f 209/3/5 206/3/5 208/3/5
f 210/3/5 206/3/5 209/3/5
f 211/3/5 209/3/5 208/3/5
f 212/3/5 209/3/5 211/3/5
f 215/3/5 214/3/5 213/3/5
f 216/3/5 214/3/5 215/3/5
f 219/3/5 218/3/5 217/3/5
f 220/3/5 218/3/5 219/3/5
f 223/3/5 222/3/5 221/3/5
f 224/3/5 222/3/5 223/3/5
f 228/3/5 226/3/5 225/3/5
f 229/3/5 226/3/5 228/3/5
f 231/3/5 228/3/5 227/3/5
f 232/3/5 228/3/5 231/3/5
f 233/3/5 230/3/5 229/3/5
f 234/3/5 230/3/5 233/3/5
f 235/3/5 233/3/5 232/3/5
f 236/3/5 233/3/5 235/3/5
f 237/3/6 238/3/6 239/3/6
f 239/3/6 238/3/6 240/3/6
f 240/3/6 241/3/6 243/3/6
f 243/3/6 241/3/6 244/3/6
f 242/3/6 243/3/6 245/3/6
f 245/3/6 243/3/6 246/3/6
f 247/3/6 248/3/6 249/3/6
f 249/3/6 248/3/6 250/3/6
f 251/3/6 252/3/6 253/3/6
f 253/3/6 252/3/6 254/3/6
f 255/3/6 256/3/6 257/3/6
f 257/3/6 256/3/6 258/3/6
f 259/3/6 260/3/6 261/3/6
f 261/3/6 260/3/6 262/3/6
f 263/3/6 264/3/6 265/3/6
f 265/3/6 264/3/6 266/3/6
