# MagicaVoxel @ Ephtracy

# group
g NightStand2

# material
mtllib NightStand2.mtl
usemtl palette

# normals
vn -1 0 0
vn 1 0 0
vn 0 0 1
vn 0 0 -1
vn 0 -1 0
vn 0 1 0

# texcoords
vt 0.759766 0.5
vt 0.876953 0.5
vt 0.892578 0.5

# verts
v -5 7 4.5
v -5 7 3.5
v -5 10 3.5
v -5 10 1.5
v -5 11 4.5
v -5 11 1.5
v -4 7 3.5
v -4 7 2.5
v -4 9 2.5
v -4 9 1.5
v -4 10 3.5
v -4 10 1.5
v -4 10 0.5
v -4 11 1.5
v -4 11 0.5
v -3 6 3.5
v -3 6 2.5
v -3 7 3.5
v -3 7 2.5
v -3 8 2.5
v -3 8 1.5
v -3 9 2.5
v -3 9 1.5
v -3 9 0.5
v -3 10 1.5
v -3 10 0.5
v -2 7 2.5
v -2 7 1.5
v -2 8 2.5
v -2 8 1.5
v -2 8 0.5
v -2 9 1.5
v -2 9 0.5
v -2 10 0.5
v -2 10 -0.5
v -2 11 0.5
v -2 11 -0.5
v -1 5 3.5
v -1 5 2.5
v -1 6 3.5
v -1 6 2.5
v -1 6 1.5
v -1 7 2.5
v -1 7 1.5
v -1 7 0.5
v -1 8 1.5
v -1 8 0.5
v -1 9 0.5
v -1 9 -0.5
v -1 10 0.5
v -1 10 -0.5
v -1 10 -1.5
v -1 11 -0.5
v -1 11 -1.5
v 0 4 3.5
v 0 4 2.5
v 0 5 3.5
v 0 5 2.5
v 0 5 1.5
v 0 6 2.5
v 0 6 1.5
v 0 8 0.5
v 0 8 -0.5
v 0 9 0.5
v 0 9 -0.5
v 0 9 -1.5
v 0 10 -0.5
v 0 10 -1.5
v 1 1 4.5
v 1 1 3.5
v 1 2 4.5
v 1 2 3.5
v 1 3 3.5
v 1 3 2.5
v 1 4 3.5
v 1 4 2.5
v 1 4 1.5
v 1 5 2.5
v 1 5 1.5
v 1 6 1.5
v 1 6 0.5
v 1 7 1.5
v 1 7 0.5
v 1 7 -0.5
v 1 8 0.5
v 1 8 -0.5
v 1 10 -1.5
v 1 10 -2.5
v 1 11 -1.5
v 1 11 -2.5
v 2 2 3.5
v 2 2 2.5
v 2 3 3.5
v 2 3 2.5
v 2 3 1.5
v 2 4 2.5
v 2 4 1.5
v 2 5 1.5
v 2 5 0.5
v 2 6 1.5
v 2 6 0.5
v 2 6 -0.5
v 2 7 0.5
v 2 7 -0.5
v 2 8 -0.5
v 2 8 -1.5
v 2 9 -0.5
v 2 9 -1.5
v 2 9 -2.5
v 2 10 -1.5
v 2 10 -2.5
v 2 10 -3.5
v 2 11 -2.5
v 2 11 -3.5
v 3 0 4.5
v 3 0 3.5
v 3 1 4.5
v 3 1 3.5
v 3 1 2.5
v 3 2 3.5
v 3 2 2.5
v 3 2 1.5
v 3 3 2.5
v 3 3 1.5
v 3 4 1.5
v 3 4 0.5
v 3 5 1.5
v 3 5 0.5
v 3 5 -0.5
v 3 6 0.5
v 3 6 -0.5
v 3 7 -0.5
v 3 7 -1.5
v 3 8 -0.5
v 3 8 -1.5
v 3 8 -2.5
v 3 9 -1.5
v 3 9 -2.5
v 4 0 3.5
v 4 0 2.5
v 4 1 3.5
v 4 1 2.5
v 4 1 1.5
v 4 2 4.5
v 4 2 3.5
v 4 2 2.5
v 4 2 1.5
v 4 10 4.5
v 4 10 3.5
v 4 10 -3.5
v 4 10 -4.5
v 4 11 -3.5
v 4 11 -4.5
v -4 7 4.5
v -4 7 3.5
v -4 10 4.5
v -4 10 3.5
v 4 2 3.5
v 4 2 1.5
v 4 4 1.5
v 4 4 0.5
v 4 5 0.5
v 4 5 -0.5
v 4 7 -0.5
v 4 7 -1.5
v 4 8 -1.5
v 4 8 -2.5
v 4 10 3.5
v 4 10 -2.5
v 5 0 4.5
v 5 0 2.5
v 5 1 4.5
v 5 1 2.5
v 5 1 1.5
v 5 2 3.5
v 5 2 1.5
v 5 10 3.5
v 5 10 -4.5
v 5 11 4.5
v 5 11 -4.5
v -5 7 4.5
v -5 11 4.5
v -4 7 4.5
v -4 10 4.5
v 1 1 4.5
v 1 2 4.5
v 3 0 4.5
v 3 1 4.5
v 4 2 4.5
v 4 10 4.5
v 5 0 4.5
v 5 1 4.5
v 5 11 4.5
v -4 7 3.5
v -4 10 3.5
v -3 6 3.5
v -3 7 3.5
v -1 5 3.5
v -1 6 3.5
v 0 4 3.5
v 0 5 3.5
v 1 3 3.5
v 1 4 3.5
v 2 2 3.5
v 2 3 3.5
v 4 2 3.5
v 4 10 3.5
v -5 7 3.5
v -5 10 3.5
v -4 7 3.5
v -4 10 3.5
v 1 1 3.5
v 1 2 3.5
v 2 2 3.5
v 3 0 3.5
v 3 1 3.5
v 3 2 3.5
v 4 0 3.5
v 4 1 3.5
v 4 2 3.5
v 4 10 3.5
v 5 2 3.5
v 5 10 3.5
v -4 7 2.5
v -4 9 2.5
v -3 6 2.5
v -3 7 2.5
v -3 8 2.5
v -3 9 2.5
v -2 7 2.5
v -2 8 2.5
v -1 5 2.5
v -1 6 2.5
v -1 7 2.5
v 0 4 2.5
v 0 5 2.5
v 0 6 2.5
v 1 3 2.5
v 1 4 2.5
v 1 5 2.5
v 2 2 2.5
v 2 3 2.5
v 2 4 2.5
v 3 1 2.5
v 3 2 2.5
v 3 3 2.5
v 4 0 2.5
v 4 1 2.5
v 4 2 2.5
v 5 0 2.5
v 5 1 2.5
v -5 10 1.5
v -5 11 1.5
v -4 9 1.5
v -4 10 1.5
v -4 11 1.5
v -3 8 1.5
v -3 9 1.5
v -3 10 1.5
v -2 7 1.5
v -2 8 1.5
v -2 9 1.5
v -1 6 1.5
v -1 7 1.5
v -1 8 1.5
v 0 5 1.5
v 0 6 1.5
v 1 4 1.5
v 1 5 1.5
v 1 6 1.5
v 1 7 1.5
v 2 3 1.5
v 2 4 1.5
v 2 5 1.5
v 2 6 1.5
v 3 2 1.5
v 3 3 1.5
v 3 4 1.5
v 3 5 1.5
v 4 1 1.5
v 4 2 1.5
v 4 4 1.5
v 5 1 1.5
v 5 2 1.5
v -4 10 0.5
v -4 11 0.5
v -3 9 0.5
v -3 10 0.5
v -2 8 0.5
v -2 9 0.5
v -2 10 0.5
v -2 11 0.5
v -1 7 0.5
v -1 8 0.5
v -1 9 0.5
v -1 10 0.5
v 0 8 0.5
v 0 9 0.5
v 1 6 0.5
v 1 7 0.5
v 1 8 0.5
v 2 5 0.5
v 2 6 0.5
v 2 7 0.5
v 3 4 0.5
v 3 5 0.5
v 3 6 0.5
v 4 4 0.5
v 4 5 0.5
v -2 10 -0.5
v -2 11 -0.5
v -1 9 -0.5
v -1 10 -0.5
v -1 11 -0.5
v 0 8 -0.5
v 0 9 -0.5
v 0 10 -0.5
v 1 7 -0.5
v 1 8 -0.5
v 2 6 -0.5
v 2 7 -0.5
v 2 8 -0.5
v 2 9 -0.5
v 3 5 -0.5
v 3 6 -0.5
v 3 7 -0.5
v 3 8 -0.5
v 4 5 -0.5
v 4 7 -0.5
v -1 10 -1.5
v -1 11 -1.5
v 0 9 -1.5
v 0 10 -1.5
v 1 10 -1.5
v 1 11 -1.5
v 2 8 -1.5
v 2 9 -1.5
v 2 10 -1.5
v 3 7 -1.5
v 3 8 -1.5
v 3 9 -1.5
v 4 7 -1.5
v 4 8 -1.5
v 1 10 -2.5
v 1 11 -2.5
v 2 9 -2.5
v 2 10 -2.5
v 2 11 -2.5
v 3 8 -2.5
v 3 9 -2.5
v 3 10 -2.5
v 4 8 -2.5
v 4 10 -2.5
v 2 10 -3.5
v 2 11 -3.5
v 4 10 -3.5
v 4 11 -3.5
v 4 10 -4.5
v 4 11 -4.5
v 5 10 -4.5
v 5 11 -4.5
v 3 0 4.5
v 5 0 4.5
v 3 0 3.5
v 4 0 3.5
v 4 0 2.5
v 5 0 2.5
v 1 1 4.5
v 3 1 4.5
v 1 1 3.5
v 3 1 3.5
v 4 1 3.5
v 3 1 2.5
v 4 1 2.5
v 5 1 2.5
v 4 1 1.5
v 5 1 1.5
v 2 2 3.5
v 3 2 3.5
v 2 2 2.5
v 3 2 2.5
v 4 2 2.5
v 3 2 1.5
v 4 2 1.5
v 1 3 3.5
v 2 3 3.5
v 1 3 2.5
v 2 3 2.5
v 3 3 2.5
v 2 3 1.5
v 3 3 1.5
v 0 4 3.5
v 1 4 3.5
v 0 4 2.5
v 1 4 2.5
v 2 4 2.5
v 1 4 1.5
v 2 4 1.5
v 3 4 1.5
v 4 4 1.5
v 3 4 0.5
v 4 4 0.5
v -1 5 3.5
v 0 5 3.5
v -1 5 2.5
v 0 5 2.5
v 1 5 2.5
v 0 5 1.5
v 1 5 1.5
v 2 5 1.5
v 3 5 1.5
v 2 5 0.5
v 3 5 0.5
v 4 5 0.5
v 3 5 -0.5
v 4 5 -0.5
v -3 6 3.5
v -1 6 3.5
v -3 6 2.5
v -1 6 2.5
v 0 6 2.5
v -1 6 1.5
v 0 6 1.5
v 1 6 1.5
v 2 6 1.5
v 1 6 0.5
v 2 6 0.5
v 3 6 0.5
v 2 6 -0.5
v 3 6 -0.5
v -5 7 4.5
v -4 7 4.5
v -5 7 3.5
v -4 7 3.5
v -3 7 3.5
v -4 7 2.5
v -3 7 2.5
v -2 7 2.5
v -1 7 2.5
v -2 7 1.5
v -1 7 1.5
v 1 7 1.5
v -1 7 0.5
v 1 7 0.5
v 2 7 0.5
v 1 7 -0.5
v 2 7 -0.5
v 3 7 -0.5
v 4 7 -0.5
v 3 7 -1.5
v 4 7 -1.5
v -3 8 2.5
v -2 8 2.5
v -3 8 1.5
v -2 8 1.5
v -1 8 1.5
v -2 8 0.5
v -1 8 0.5
v 0 8 0.5
v 1 8 0.5
v 0 8 -0.5
v 1 8 -0.5
v 2 8 -0.5
v 3 8 -0.5
v 2 8 -1.5
v 3 8 -1.5
v 4 8 -1.5
v 3 8 -2.5
v 4 8 -2.5
v -4 9 2.5
v -3 9 2.5
v -4 9 1.5
v -3 9 1.5
v -2 9 1.5
v -3 9 0.5
v -2 9 0.5
v -1 9 0.5
v 0 9 0.5
v -1 9 -0.5
v 0 9 -0.5
v 2 9 -0.5
v 0 9 -1.5
v 2 9 -1.5
v 3 9 -1.5
v 2 9 -2.5
v 3 9 -2.5
v -4 10 4.5
v 4 10 4.5
v -5 10 3.5
v -4 10 3.5
v 4 10 3.5
v 5 10 3.5
v -5 10 1.5
v -4 10 1.5
v -3 10 1.5
v -4 10 0.5
v -3 10 0.5
v -2 10 0.5
v -1 10 0.5
v -2 10 -0.5
v -1 10 -0.5
v 0 10 -0.5
v -1 10 -1.5
v 0 10 -1.5
v 1 10 -1.5
v 2 10 -1.5
v 1 10 -2.5
v 2 10 -2.5
v 3 10 -2.5
v 4 10 -2.5
v 2 10 -3.5
v 4 10 -3.5
v 4 10 -4.5
v 5 10 -4.5
v 1 2 4.5
v 4 2 4.5
v 1 2 3.5
v 2 2 3.5
v 4 2 3.5
v 5 2 3.5
v 4 2 1.5
v 5 2 1.5
v -5 11 4.5
v 5 11 4.5
v -5 11 1.5
v -4 11 1.5
v -4 11 0.5
v -2 11 0.5
v -2 11 -0.5
v -1 11 -0.5
v -1 11 -1.5
v 1 11 -1.5
v 1 11 -2.5
v 2 11 -2.5
v 2 11 -3.5
v 4 11 -3.5
v 4 11 -4.5
v 5 11 -4.5

# faces
f 3/3/1 2/3/1 1/3/1
f 5/3/1 3/3/1 1/3/1
f 5/3/1 4/3/1 3/3/1
f 6/3/1 4/3/1 5/3/1
f 9/2/1 8/2/1 7/2/1
f 11/2/1 9/2/1 7/2/1
f 11/2/1 10/2/1 9/2/1
f 12/2/1 10/2/1 11/2/1
f 14/3/1 13/3/1 12/3/1
f 15/3/1 13/3/1 14/3/1
f 18/2/1 17/2/1 16/2/1
f 19/2/1 17/2/1 18/2/1
f 22/3/1 21/3/1 20/3/1
f 23/3/1 21/3/1 22/3/1
f 25/3/1 24/3/1 23/3/1
f 26/3/1 24/3/1 25/3/1
f 29/3/1 28/3/1 27/3/1
f 30/3/1 28/3/1 29/3/1
f 32/3/1 31/3/1 30/3/1
f 33/3/1 31/3/1 32/3/1
f 36/3/1 35/3/1 34/3/1
f 37/3/1 35/3/1 36/3/1
f 40/2/1 39/2/1 38/2/1
f 41/2/1 39/2/1 40/2/1
f 43/3/1 42/3/1 41/3/1
f 44/3/1 42/3/1 43/3/1
f 46/3/1 45/3/1 44/3/1
f 47/3/1 45/3/1 46/3/1
f 50/3/1 49/3/1 48/3/1
f 51/3/1 49/3/1 50/3/1
f 53/3/1 52/3/1 51/3/1
f 54/3/1 52/3/1 53/3/1
f 57/2/1 56/2/1 55/2/1
f 58/2/1 56/2/1 57/2/1
f 60/3/1 59/3/1 58/3/1
f 61/3/1 59/3/1 60/3/1
f 64/3/1 63/3/1 62/3/1
f 65/3/1 63/3/1 64/3/1
f 67/3/1 66/3/1 65/3/1
f 68/3/1 66/3/1 67/3/1
f 71/3/1 70/3/1 69/3/1
f 72/3/1 70/3/1 71/3/1
f 75/2/1 74/2/1 73/2/1
f 76/2/1 74/2/1 75/2/1
f 78/3/1 77/3/1 76/3/1
f 79/3/1 77/3/1 78/3/1
f 82/3/1 81/3/1 80/3/1
f 83/3/1 81/3/1 82/3/1
f 85/3/1 84/3/1 83/3/1
f 86/3/1 84/3/1 85/3/1
f 89/3/1 88/3/1 87/3/1
f 90/3/1 88/3/1 89/3/1
f 93/2/1 92/2/1 91/2/1
f 94/2/1 92/2/1 93/2/1
f 96/3/1 95/3/1 94/3/1
f 97/3/1 95/3/1 96/3/1
f 100/3/1 99/3/1 98/3/1
f 101/3/1 99/3/1 100/3/1
f 103/3/1 102/3/1 101/3/1
f 104/3/1 102/3/1 103/3/1
f 107/3/1 106/3/1 105/3/1
f 108/3/1 106/3/1 107/3/1
f 110/3/1 109/3/1 108/3/1
f 111/3/1 109/3/1 110/3/1
f 113/3/1 112/3/1 111/3/1
f 114/3/1 112/3/1 113/3/1
f 117/1/1 116/1/1 115/1/1
f 118/1/1 116/1/1 117/1/1
f 120/3/1 119/3/1 118/3/1
f 121/3/1 119/3/1 120/3/1
f 123/2/1 122/2/1 121/2/1
f 124/2/1 122/2/1 123/2/1
f 127/2/1 126/2/1 125/2/1
f 128/2/1 126/2/1 127/2/1
f 130/2/1 129/2/1 128/2/1
f 131/2/1 129/2/1 130/2/1
f 134/2/1 133/2/1 132/2/1
f 135/2/1 133/2/1 134/2/1
f 137/2/1 136/2/1 135/2/1
f 138/2/1 136/2/1 137/2/1
f 141/1/1 140/1/1 139/1/1
f 142/1/1 140/1/1 141/1/1
f 146/3/1 143/3/1 142/3/1
f 147/3/1 143/3/1 146/3/1
f 148/3/1 145/3/1 144/3/1
f 149/3/1 145/3/1 148/3/1
f 152/3/1 151/3/1 150/3/1
f 153/3/1 151/3/1 152/3/1
f 154/3/2 155/3/2 156/3/2
f 156/3/2 155/3/2 157/3/2
f 158/2/2 159/2/2 160/2/2
f 160/2/2 161/2/2 162/2/2
f 162/2/2 163/2/2 164/2/2
f 164/2/2 165/2/2 166/2/2
f 158/2/2 160/2/2 168/2/2
f 166/2/2 167/2/2 168/2/2
f 164/2/2 166/2/2 168/2/2
f 162/2/2 164/2/2 168/2/2
f 160/2/2 162/2/2 168/2/2
f 168/2/2 167/2/2 169/2/2
f 170/1/2 171/1/2 172/1/2
f 172/1/2 171/1/2 173/1/2
f 172/3/2 173/3/2 175/3/2
f 173/3/2 174/3/2 175/3/2
f 175/3/2 174/3/2 176/3/2
f 172/3/2 175/3/2 177/3/2
f 172/3/2 177/3/2 179/3/2
f 177/3/2 178/3/2 179/3/2
f 179/3/2 178/3/2 180/3/2
f 183/3/3 182/3/3 181/3/3
f 184/3/3 182/3/3 183/3/3
f 188/3/3 186/3/3 185/3/3
f 189/3/3 186/3/3 188/3/3
f 190/3/3 182/3/3 184/3/3
f 191/1/3 188/1/3 187/1/3
f 192/3/3 189/3/3 188/3/3
f 192/1/3 188/1/3 191/1/3
f 192/3/3 190/3/3 189/3/3
f 193/3/3 182/3/3 190/3/3
f 193/3/3 190/3/3 192/3/3
f 197/2/3 195/2/3 194/2/3
f 199/2/3 197/2/3 196/2/3
f 201/2/3 199/2/3 198/2/3
f 203/2/3 201/2/3 200/2/3
f 205/2/3 203/2/3 202/2/3
f 206/2/3 205/2/3 204/2/3
f 207/2/3 195/2/3 197/2/3
f 207/2/3 205/2/3 206/2/3
f 207/2/3 197/2/3 199/2/3
f 207/2/3 203/2/3 205/2/3
f 207/2/3 199/2/3 201/2/3
f 207/2/3 201/2/3 203/2/3
f 208/3/4 209/3/4 210/3/4
f 210/3/4 209/3/4 211/3/4
f 212/3/4 213/3/4 214/3/4
f 212/3/4 214/3/4 216/3/4
f 216/3/4 214/3/4 217/3/4
f 215/1/4 216/1/4 218/1/4
f 218/1/4 216/1/4 219/1/4
f 220/3/4 221/3/4 222/3/4
f 222/3/4 221/3/4 223/3/4
f 224/2/4 225/2/4 227/2/4
f 227/2/4 225/2/4 228/2/4
f 228/2/4 225/2/4 229/2/4
f 226/2/4 227/2/4 230/2/4
f 227/2/4 228/2/4 230/2/4
f 230/2/4 228/2/4 231/2/4
f 226/2/4 230/2/4 233/2/4
f 233/2/4 230/2/4 234/2/4
f 232/2/4 233/2/4 236/2/4
f 236/2/4 233/2/4 237/2/4
f 235/2/4 236/2/4 239/2/4
f 239/2/4 236/2/4 240/2/4
f 238/2/4 239/2/4 242/2/4
f 242/2/4 239/2/4 243/2/4
f 241/2/4 242/2/4 245/2/4
f 245/2/4 242/2/4 246/2/4
f 244/3/4 245/3/4 248/3/4
f 248/3/4 245/3/4 249/3/4
f 247/1/4 248/1/4 250/1/4
f 250/1/4 248/1/4 251/1/4
f 252/3/4 253/3/4 255/3/4
f 255/3/4 253/3/4 256/3/4
f 254/2/4 255/2/4 258/2/4
f 258/2/4 255/2/4 259/2/4
f 257/3/4 258/3/4 261/3/4
f 261/3/4 258/3/4 262/3/4
f 260/3/4 261/3/4 264/3/4
f 264/3/4 261/3/4 265/3/4
f 263/3/4 264/3/4 267/3/4
f 266/3/4 267/3/4 269/3/4
f 267/3/4 264/3/4 270/3/4
f 269/3/4 267/3/4 270/3/4
f 270/3/4 264/3/4 271/3/4
f 268/3/4 269/3/4 273/3/4
f 269/3/4 270/3/4 273/3/4
f 273/3/4 270/3/4 274/3/4
f 274/3/4 270/3/4 275/3/4
f 272/3/4 273/3/4 277/3/4
f 273/3/4 274/3/4 277/3/4
f 277/3/4 274/3/4 278/3/4
f 278/3/4 274/3/4 279/3/4
f 276/2/4 277/2/4 281/2/4
f 277/2/4 278/2/4 281/2/4
f 281/2/4 278/2/4 282/2/4
f 280/3/4 281/3/4 283/3/4
f 283/3/4 281/3/4 284/3/4
f 285/3/4 286/3/4 288/3/4
f 287/3/4 288/3/4 290/3/4
f 288/3/4 286/3/4 291/3/4
f 290/3/4 288/3/4 291/3/4
f 291/3/4 286/3/4 292/3/4
f 289/3/4 290/3/4 294/3/4
f 290/3/4 291/3/4 294/3/4
f 294/3/4 291/3/4 295/3/4
f 295/3/4 291/3/4 296/3/4
f 293/3/4 294/3/4 297/3/4
f 294/3/4 295/3/4 297/3/4
f 297/3/4 295/3/4 298/3/4
f 293/3/4 297/3/4 300/3/4
f 300/3/4 297/3/4 301/3/4
f 299/3/4 300/3/4 303/3/4
f 303/3/4 300/3/4 304/3/4
f 302/3/4 303/3/4 306/3/4
f 306/3/4 303/3/4 307/3/4
f 305/2/4 306/2/4 308/2/4
f 308/2/4 306/2/4 309/2/4
f 310/3/4 311/3/4 313/3/4
f 313/3/4 311/3/4 314/3/4
f 312/3/4 313/3/4 316/3/4
f 316/3/4 313/3/4 317/3/4
f 315/3/4 316/3/4 319/3/4
f 318/3/4 319/3/4 321/3/4
f 319/3/4 316/3/4 322/3/4
f 321/3/4 319/3/4 322/3/4
f 322/3/4 316/3/4 323/3/4
f 320/3/4 321/3/4 325/3/4
f 321/3/4 322/3/4 325/3/4
f 325/3/4 322/3/4 326/3/4
f 326/3/4 322/3/4 327/3/4
f 324/2/4 325/2/4 328/2/4
f 325/2/4 326/2/4 328/2/4
f 328/2/4 326/2/4 329/2/4
f 330/3/4 331/3/4 333/3/4
f 333/3/4 331/3/4 334/3/4
f 332/3/4 333/3/4 334/3/4
f 334/3/4 331/3/4 335/3/4
f 332/3/4 334/3/4 337/3/4
f 337/3/4 334/3/4 338/3/4
f 336/3/4 337/3/4 340/3/4
f 340/3/4 337/3/4 341/3/4
f 339/2/4 340/2/4 342/2/4
f 342/2/4 340/2/4 343/2/4
f 344/3/4 345/3/4 347/3/4
f 347/3/4 345/3/4 348/3/4
f 346/3/4 347/3/4 350/3/4
f 350/3/4 347/3/4 351/3/4
f 349/2/4 350/2/4 352/2/4
f 350/2/4 351/2/4 352/2/4
f 352/2/4 351/2/4 353/2/4
f 354/3/4 355/3/4 356/3/4
f 356/3/4 355/3/4 357/3/4
f 358/3/4 359/3/4 360/3/4
f 360/3/4 359/3/4 361/3/4
f 364/1/5 363/1/5 362/1/5
f 365/1/5 363/1/5 364/1/5
f 366/1/5 363/1/5 365/1/5
f 367/1/5 363/1/5 366/1/5
f 370/3/5 369/3/5 368/3/5
f 371/3/5 369/3/5 370/3/5
f 373/3/5 372/3/5 371/3/5
f 374/3/5 372/3/5 373/3/5
f 376/3/5 375/3/5 374/3/5
f 377/3/5 375/3/5 376/3/5
f 380/2/5 379/2/5 378/2/5
f 381/2/5 379/2/5 380/2/5
f 383/2/5 382/2/5 381/2/5
f 384/2/5 382/2/5 383/2/5
f 387/2/5 386/2/5 385/2/5
f 388/2/5 386/2/5 387/2/5
f 390/3/5 389/3/5 388/3/5
f 391/3/5 389/3/5 390/3/5
f 394/2/5 393/2/5 392/2/5
f 395/2/5 393/2/5 394/2/5
f 397/3/5 396/3/5 395/3/5
f 398/3/5 396/3/5 397/3/5
f 401/2/5 400/2/5 399/2/5
f 402/2/5 400/2/5 401/2/5
f 405/2/5 404/2/5 403/2/5
f 406/2/5 404/2/5 405/2/5
f 408/3/5 407/3/5 406/3/5
f 409/3/5 407/3/5 408/3/5
f 412/3/5 411/3/5 410/3/5
f 413/3/5 411/3/5 412/3/5
f 415/2/5 414/2/5 413/2/5
f 416/2/5 414/2/5 415/2/5
f 419/2/5 418/2/5 417/2/5
f 420/2/5 418/2/5 419/2/5
f 422/3/5 421/3/5 420/3/5
f 423/3/5 421/3/5 422/3/5
f 426/3/5 425/3/5 424/3/5
f 427/3/5 425/3/5 426/3/5
f 429/3/5 428/3/5 427/3/5
f 430/3/5 428/3/5 429/3/5
f 433/3/5 432/3/5 431/3/5
f 434/3/5 432/3/5 433/3/5
f 436/2/5 435/2/5 434/2/5
f 437/2/5 435/2/5 436/2/5
f 440/3/5 439/3/5 438/3/5
f 441/3/5 439/3/5 440/3/5
f 443/3/5 442/3/5 441/3/5
f 444/3/5 442/3/5 443/3/5
f 446/3/5 445/3/5 444/3/5
f 447/3/5 445/3/5 446/3/5
f 450/2/5 449/2/5 448/2/5
f 451/2/5 449/2/5 450/2/5
f 454/3/5 453/3/5 452/3/5
f 455/3/5 453/3/5 454/3/5
f 457/3/5 456/3/5 455/3/5
f 458/3/5 456/3/5 457/3/5
f 461/3/5 460/3/5 459/3/5
f 462/3/5 460/3/5 461/3/5
f 465/3/5 464/3/5 463/3/5
f 466/3/5 464/3/5 465/3/5
f 468/2/5 467/2/5 466/2/5
f 469/2/5 467/2/5 468/2/5
f 472/2/5 471/2/5 470/2/5
f 473/2/5 471/2/5 472/2/5
f 475/3/5 474/3/5 473/3/5
f 476/3/5 474/3/5 475/3/5
f 479/3/5 478/3/5 477/3/5
f 480/3/5 478/3/5 479/3/5
f 482/3/5 481/3/5 480/3/5
f 483/3/5 481/3/5 482/3/5
f 485/3/5 484/3/5 483/3/5
f 486/3/5 484/3/5 485/3/5
f 490/3/5 488/3/5 487/3/5
f 491/3/5 488/3/5 490/3/5
f 493/3/5 490/3/5 489/3/5
f 494/3/5 490/3/5 493/3/5
f 496/3/5 495/3/5 494/3/5
f 497/3/5 495/3/5 496/3/5
f 500/3/5 499/3/5 498/3/5
f 501/3/5 499/3/5 500/3/5
f 503/3/5 502/3/5 501/3/5
f 504/3/5 502/3/5 503/3/5
f 507/3/5 506/3/5 505/3/5
f 508/3/5 506/3/5 507/3/5
f 510/3/5 492/3/5 491/3/5
f 511/3/5 509/3/5 508/3/5
f 511/3/5 510/3/5 509/3/5
f 512/3/5 492/3/5 510/3/5
f 512/3/5 510/3/5 511/3/5
f 513/3/5 492/3/5 512/3/5
f 514/3/5 492/3/5 513/3/5
f 515/3/6 516/3/6 517/3/6
f 517/3/6 516/3/6 518/3/6
f 518/3/6 516/3/6 519/3/6
f 519/3/6 520/3/6 521/3/6
f 521/3/6 520/3/6 522/3/6
f 523/3/6 524/3/6 525/3/6
f 525/3/6 524/3/6 526/3/6
f 526/3/6 524/3/6 527/3/6
f 527/3/6 524/3/6 528/3/6
f 528/3/6 524/3/6 529/3/6
f 529/3/6 524/3/6 530/3/6
f 530/3/6 524/3/6 531/3/6
f 531/3/6 524/3/6 532/3/6
f 532/3/6 524/3/6 533/3/6
f 533/3/6 524/3/6 534/3/6
f 534/3/6 524/3/6 535/3/6
f 535/3/6 524/3/6 536/3/6
f 536/3/6 524/3/6 537/3/6
f 537/3/6 524/3/6 538/3/6
