# MagicaVoxel @ Ephtracy

# group
g NightStand3

# material
mtllib NightStand3.mtl
usemtl palette

# normals
vn -1 0 0
vn 1 0 0
vn 0 0 1
vn 0 0 -1
vn 0 -1 0
vn 0 1 0

# texcoords
vt 0.759766 0.5
vt 0.876953 0.5
vt 0.892578 0.5

# verts
v -5 0 -3.5
v -5 0 -5.5
v -5 1 -2.5
v -5 1 -3.5
v -5 1 -5.5
v -5 3 -2.5
v -5 3 -4.5
v -5 7 -4.5
v -5 7 -5.5
v -4 3 -3.5
v -4 3 -4.5
v -4 4 -3.5
v -4 4 -4.5
v -4 2 -2.5
v -4 2 -3.5
v -4 2 -4.5
v -4 2 -5.5
v -4 3 -2.5
v -4 3 -3.5
v -4 4 -4.5
v -4 7 -4.5
v -4 7 -5.5
v -3 0 -3.5
v -3 0 -5.5
v -3 1 -2.5
v -3 1 -3.5
v -3 1 -5.5
v -3 2 -2.5
v -3 2 -3.5
v -3 3 -3.5
v -3 3 -4.5
v -3 4 -3.5
v -3 4 -4.5
v -2 2 -3.5
v -2 2 -4.5
v -2 3 -3.5
v -2 3 -4.5
v -1 1 -3.5
v -1 1 -4.5
v -1 2 -3.5
v -1 2 -4.5
v 0 1 -4.5
v 0 1 -5.5
v 0 2 -4.5
v 0 2 -5.5
v -5 1 -2.5
v -5 3 -2.5
v -4 2 -2.5
v -4 3 -2.5
v -3 1 -2.5
v -3 2 -2.5
v -5 0 -3.5
v -5 1 -3.5
v -4 2 -3.5
v -4 3 -3.5
v -4 4 -3.5
v -3 0 -3.5
v -3 1 -3.5
v -3 2 -3.5
v -3 3 -3.5
v -3 4 -3.5
v -2 2 -3.5
v -2 3 -3.5
v -1 1 -3.5
v -1 2 -3.5
v -5 3 -4.5
v -5 7 -4.5
v -4 3 -4.5
v -4 4 -4.5
v -4 7 -4.5
v -1 1 -4.5
v -1 2 -4.5
v 0 1 -4.5
v 0 2 -4.5
v -4 2 -4.5
v -4 4 -4.5
v -3 3 -4.5
v -3 4 -4.5
v -2 2 -4.5
v -2 3 -4.5
v -5 0 -5.5
v -5 1 -5.5
v -5 7 -5.5
v -4 2 -5.5
v -4 7 -5.5
v -3 0 -5.5
v -3 1 -5.5
v 0 1 -5.5
v 0 2 -5.5
v -5 0 -3.5
v -3 0 -3.5
v -5 0 -5.5
v -3 0 -5.5
v -5 1 -2.5
v -3 1 -2.5
v -5 1 -3.5
v -3 1 -3.5
v -1 1 -3.5
v -1 1 -4.5
v 0 1 -4.5
v -3 1 -5.5
v 0 1 -5.5
v -4 2 -2.5
v -3 2 -2.5
v -4 2 -3.5
v -3 2 -3.5
v -2 2 -3.5
v -1 2 -3.5
v -4 2 -4.5
v -2 2 -4.5
v -1 2 -4.5
v 0 2 -4.5
v -4 2 -5.5
v 0 2 -5.5
v -5 3 -2.5
v -4 3 -2.5
v -4 3 -3.5
v -3 3 -3.5
v -2 3 -3.5
v -5 3 -4.5
v -4 3 -4.5
v -3 3 -4.5
v -2 3 -4.5
v -4 4 -3.5
v -3 4 -3.5
v -4 4 -4.5
v -3 4 -4.5
v -5 7 -4.5
v -4 7 -4.5
v -5 7 -5.5
v -4 7 -5.5

# faces
f 4/1/1 2/1/1 1/1/1
f 5/1/1 2/1/1 4/1/1
f 6/3/1 4/3/1 3/3/1
f 6/3/1 5/3/1 4/3/1
f 7/3/1 5/3/1 6/3/1
f 8/3/1 5/3/1 7/3/1
f 9/3/1 5/3/1 8/3/1
f 12/2/1 11/2/1 10/2/1
f 13/2/1 11/2/1 12/2/1
f 14/3/2 15/3/2 18/3/2
f 18/3/2 15/3/2 19/3/2
f 16/3/2 17/3/2 20/3/2
f 20/3/2 17/3/2 21/3/2
f 21/3/2 17/3/2 22/3/2
f 23/1/2 24/1/2 26/1/2
f 26/1/2 24/1/2 27/1/2
f 25/3/2 26/3/2 28/3/2
f 28/3/2 26/3/2 29/3/2
f 30/2/2 31/2/2 32/2/2
f 32/2/2 31/2/2 33/2/2
f 34/2/2 35/2/2 36/2/2
f 36/2/2 35/2/2 37/2/2
f 38/3/2 39/3/2 40/3/2
f 40/3/2 39/3/2 41/3/2
f 42/3/2 43/3/2 44/3/2
f 44/3/2 43/3/2 45/3/2
f 48/3/3 47/3/3 46/3/3
f 49/3/3 47/3/3 48/3/3
f 50/3/3 48/3/3 46/3/3
f 51/3/3 48/3/3 50/3/3
f 57/1/3 53/1/3 52/1/3
f 58/1/3 53/1/3 57/1/3
f 59/2/3 56/2/3 55/2/3
f 59/2/3 55/2/3 54/2/3
f 60/2/3 56/2/3 59/2/3
f 61/2/3 56/2/3 60/2/3
f 62/3/3 59/3/3 58/3/3
f 62/2/3 60/2/3 59/2/3
f 63/2/3 60/2/3 62/2/3
f 64/3/3 62/3/3 58/3/3
f 65/3/3 62/3/3 64/3/3
f 68/3/3 67/3/3 66/3/3
f 69/3/3 67/3/3 68/3/3
f 70/3/3 67/3/3 69/3/3
f 73/3/3 72/3/3 71/3/3
f 74/3/3 72/3/3 73/3/3
f 75/2/4 76/2/4 77/2/4
f 77/2/4 76/2/4 78/2/4
f 75/2/4 77/2/4 79/2/4
f 79/2/4 77/2/4 80/2/4
f 82/3/4 83/3/4 84/3/4
f 84/3/4 83/3/4 85/3/4
f 81/1/4 82/1/4 86/1/4
f 82/3/4 84/3/4 87/3/4
f 86/1/4 82/1/4 87/1/4
f 87/3/4 84/3/4 88/3/4
f 88/3/4 84/3/4 89/3/4
f 92/1/5 91/1/5 90/1/5
f 93/1/5 91/1/5 92/1/5
f 96/3/5 95/3/5 94/3/5
f 97/3/5 95/3/5 96/3/5
f 99/3/5 98/3/5 97/3/5
f 101/3/5 99/3/5 97/3/5
f 101/3/5 100/3/5 99/3/5
f 102/3/5 100/3/5 101/3/5
f 103/3/6 104/3/6 105/3/6
f 105/3/6 104/3/6 106/3/6
f 107/3/6 108/3/6 110/3/6
f 110/3/6 108/3/6 111/3/6
f 109/3/6 110/3/6 113/3/6
f 111/3/6 112/3/6 113/3/6
f 110/3/6 111/3/6 113/3/6
f 113/3/6 112/3/6 114/3/6
f 115/3/6 116/3/6 117/3/6
f 115/3/6 117/3/6 120/3/6
f 120/3/6 117/3/6 121/3/6
f 118/2/6 119/2/6 122/2/6
f 122/2/6 119/2/6 123/2/6
f 124/2/6 125/2/6 126/2/6
f 126/2/6 125/2/6 127/2/6
f 128/3/6 129/3/6 130/3/6
f 130/3/6 129/3/6 131/3/6
