# MagicaVoxel @ Ephtracy

# group
g Chair1

# material
mtllib Chair1.mtl
usemtl palette

# normals
vn -1 0 0
vn 1 0 0
vn 0 0 1
vn 0 0 -1
vn 0 -1 0
vn 0 1 0

# texcoords
vt 0.576172 0.5
vt 0.826172 0.5

# verts
v 0 7 7
v 0 7 4
v 0 8 7
v 0 8 4
v 1 6 4
v 1 6 1
v 1 7 4
v 1 8 4
v 1 8 1
v 2 5 1
v 2 5 -2
v 2 6 1
v 2 8 1
v 2 8 -2
v 3 4 -2
v 3 4 -5
v 3 5 -2
v 3 7 8
v 3 7 7
v 3 8 8
v 3 8 7
v 3 8 -2
v 3 8 -5
v 4 4 -5
v 4 4 -8
v 4 6 5
v 4 6 4
v 4 7 5
v 4 7 4
v 4 8 -5
v 4 8 -7
v 4 19 -7
v 4 19 -8
v 5 4 -8
v 5 4 -10
v 5 5 2
v 5 5 1
v 5 6 2
v 5 6 1
v 5 19 -8
v 5 19 -10
v 6 2 -8
v 6 2 -10
v 6 3 -6
v 6 3 -8
v 6 4 -6
v 6 4 -10
v 6 7 9
v 6 7 8
v 6 8 9
v 6 8 8
v 7 4 -1
v 7 4 -2
v 7 5 -1
v 7 5 -2
v 7 8 10
v 7 8 9
v 7 8 -7
v 7 11 10
v 7 11 7
v 7 15 7
v 7 15 -7
v 8 6 6
v 8 6 5
v 8 7 6
v 8 7 5
v 9 2 -7
v 9 2 -8
v 9 3 -7
v 9 3 -8
v 9 5 3
v 9 5 2
v 9 6 3
v 9 6 2
v 7 15 -7
v 7 15 -10
v 7 19 -7
v 7 19 -10
v 10 2 -7
v 10 2 -10
v 10 3 -6
v 10 3 -7
v 10 4 -1
v 10 4 -6
v 10 4 -10
v 10 5 3
v 10 5 -1
v 10 6 6
v 10 6 3
v 10 7 9
v 10 7 6
v 10 8 10
v 10 8 9
v 10 11 10
v 10 11 7
v 10 15 7
v 10 15 -10
v 7 8 10
v 7 11 10
v 10 8 10
v 10 11 10
v 6 7 9
v 6 8 9
v 7 8 9
v 10 7 9
v 10 8 9
v 3 7 8
v 3 8 8
v 6 7 8
v 6 8 8
v 0 7 7
v 0 8 7
v 3 7 7
v 3 8 7
v 7 11 7
v 7 15 7
v 10 11 7
v 10 15 7
v 8 6 6
v 8 7 6
v 10 6 6
v 10 7 6
v 4 6 5
v 4 7 5
v 8 6 5
v 8 7 5
v 1 6 4
v 1 7 4
v 4 6 4
v 4 7 4
v 9 5 3
v 9 6 3
v 10 5 3
v 10 6 3
v 5 5 2
v 5 6 2
v 9 5 2
v 9 6 2
v 2 5 1
v 2 6 1
v 5 5 1
v 5 6 1
v 7 4 -1
v 7 5 -1
v 10 4 -1
v 10 5 -1
v 3 4 -2
v 3 5 -2
v 7 4 -2
v 7 5 -2
v 6 3 -6
v 6 4 -6
v 10 3 -6
v 10 4 -6
v 4 8 -7
v 4 19 -7
v 7 8 -7
v 7 15 -7
v 7 19 -7
v 9 2 -7
v 9 3 -7
v 10 2 -7
v 10 3 -7
v 6 2 -8
v 6 3 -8
v 9 2 -8
v 9 3 -8
v 0 7 4
v 0 8 4
v 1 7 4
v 1 8 4
v 1 6 1
v 1 8 1
v 2 6 1
v 2 8 1
v 2 5 -2
v 2 8 -2
v 3 5 -2
v 3 8 -2
v 3 4 -5
v 3 8 -5
v 4 4 -5
v 4 8 -5
v 4 4 -8
v 4 19 -8
v 5 4 -8
v 5 19 -8
v 5 4 -10
v 5 19 -10
v 6 2 -10
v 6 4 -10
v 7 15 -10
v 7 19 -10
v 10 2 -10
v 10 4 -10
v 10 15 -10
v 9 2 -7
v 10 2 -7
v 6 2 -8
v 9 2 -8
v 6 2 -10
v 10 2 -10
v 6 3 -6
v 10 3 -6
v 9 3 -7
v 10 3 -7
v 6 3 -8
v 9 3 -8
v 7 4 -1
v 10 4 -1
v 3 4 -2
v 7 4 -2
v 3 4 -5
v 4 4 -5
v 6 4 -6
v 10 4 -6
v 4 4 -8
v 5 4 -8
v 5 4 -10
v 6 4 -10
v 9 5 3
v 10 5 3
v 5 5 2
v 9 5 2
v 2 5 1
v 5 5 1
v 7 5 -1
v 10 5 -1
v 2 5 -2
v 3 5 -2
v 7 5 -2
v 8 6 6
v 10 6 6
v 4 6 5
v 8 6 5
v 1 6 4
v 4 6 4
v 9 6 3
v 10 6 3
v 5 6 2
v 9 6 2
v 1 6 1
v 2 6 1
v 5 6 1
v 6 7 9
v 10 7 9
v 3 7 8
v 6 7 8
v 0 7 7
v 3 7 7
v 8 7 6
v 10 7 6
v 4 7 5
v 8 7 5
v 0 7 4
v 1 7 4
v 4 7 4
v 7 8 10
v 10 8 10
v 7 8 9
v 10 8 9
v 6 8 9
v 7 8 9
v 3 8 8
v 6 8 8
v 0 8 7
v 3 8 7
v 0 8 4
v 1 8 4
v 1 8 1
v 2 8 1
v 2 8 -2
v 3 8 -2
v 3 8 -5
v 4 8 -5
v 4 8 -7
v 7 8 -7
v 7 11 10
v 10 11 10
v 7 11 7
v 10 11 7
v 7 15 7
v 10 15 7
v 7 15 -7
v 7 15 -10
v 10 15 -10
v 4 19 -7
v 7 19 -7
v 4 19 -8
v 5 19 -8
v 5 19 -10
v 7 19 -10

# faces
f 3/1/1 2/1/1 1/1/1
f 4/1/1 2/1/1 3/1/1
f 7/1/1 6/1/1 5/1/1
f 8/1/1 6/1/1 7/1/1
f 9/1/1 6/1/1 8/1/1
f 12/1/1 11/1/1 10/1/1
f 13/1/1 11/1/1 12/1/1
f 14/1/1 11/1/1 13/1/1
f 17/1/1 16/1/1 15/1/1
f 20/1/1 19/1/1 18/1/1
f 21/1/1 19/1/1 20/1/1
f 22/1/1 16/1/1 17/1/1
f 23/1/1 16/1/1 22/1/1
f 28/1/1 27/1/1 26/1/1
f 29/1/1 27/1/1 28/1/1
f 30/1/1 25/1/1 24/1/1
f 31/1/1 25/1/1 30/1/1
f 32/1/1 25/1/1 31/1/1
f 33/1/1 25/1/1 32/1/1
f 38/1/1 37/1/1 36/1/1
f 39/1/1 37/1/1 38/1/1
f 40/1/1 35/1/1 34/1/1
f 41/1/1 35/1/1 40/1/1
f 45/2/1 43/2/1 42/2/1
f 46/2/1 45/2/1 44/2/1
f 47/2/1 43/2/1 45/2/1
f 47/2/1 45/2/1 46/2/1
f 50/1/1 49/1/1 48/1/1
f 51/1/1 49/1/1 50/1/1
f 54/1/1 53/1/1 52/1/1
f 55/1/1 53/1/1 54/1/1
f 59/1/1 57/1/1 56/1/1
f 59/1/1 58/1/1 57/1/1
f 60/1/1 58/1/1 59/1/1
f 61/1/1 58/1/1 60/1/1
f 62/1/1 58/1/1 61/1/1
f 65/1/1 64/1/1 63/1/1
f 66/1/1 64/1/1 65/1/1
f 69/2/1 68/2/1 67/2/1
f 70/2/1 68/2/1 69/2/1
f 73/1/1 72/1/1 71/1/1
f 74/1/1 72/1/1 73/1/1
f 75/1/2 76/1/2 77/1/2
f 77/1/2 76/1/2 78/1/2
f 79/2/2 80/2/2 82/2/2
f 81/2/2 82/2/2 84/2/2
f 82/2/2 80/2/2 85/2/2
f 84/2/2 82/2/2 85/2/2
f 83/1/2 84/1/2 87/1/2
f 84/1/2 85/1/2 87/1/2
f 86/1/2 87/1/2 89/1/2
f 88/1/2 89/1/2 91/1/2
f 90/1/2 91/1/2 93/1/2
f 92/1/2 93/1/2 94/1/2
f 93/1/2 91/1/2 95/1/2
f 94/1/2 93/1/2 95/1/2
f 95/1/2 91/1/2 96/1/2
f 87/1/2 85/1/2 97/1/2
f 96/1/2 91/1/2 97/1/2
f 89/1/2 87/1/2 97/1/2
f 91/1/2 89/1/2 97/1/2
f 100/1/3 99/1/3 98/1/3
f 101/1/3 99/1/3 100/1/3
f 104/1/3 103/1/3 102/1/3
f 105/1/3 104/1/3 102/1/3
f 106/1/3 104/1/3 105/1/3
f 109/1/3 108/1/3 107/1/3
f 110/1/3 108/1/3 109/1/3
f 113/1/3 112/1/3 111/1/3
f 114/1/3 112/1/3 113/1/3
f 117/1/3 116/1/3 115/1/3
f 118/1/3 116/1/3 117/1/3
f 121/1/3 120/1/3 119/1/3
f 122/1/3 120/1/3 121/1/3
f 125/1/3 124/1/3 123/1/3
f 126/1/3 124/1/3 125/1/3
f 129/1/3 128/1/3 127/1/3
f 130/1/3 128/1/3 129/1/3
f 133/1/3 132/1/3 131/1/3
f 134/1/3 132/1/3 133/1/3
f 137/1/3 136/1/3 135/1/3
f 138/1/3 136/1/3 137/1/3
f 141/1/3 140/1/3 139/1/3
f 142/1/3 140/1/3 141/1/3
f 145/1/3 144/1/3 143/1/3
f 146/1/3 144/1/3 145/1/3
f 149/1/3 148/1/3 147/1/3
f 150/1/3 148/1/3 149/1/3
f 153/2/3 152/2/3 151/2/3
f 154/2/3 152/2/3 153/2/3
f 157/1/3 156/1/3 155/1/3
f 158/1/3 156/1/3 157/1/3
f 159/1/3 156/1/3 158/1/3
f 162/2/3 161/2/3 160/2/3
f 163/2/3 161/2/3 162/2/3
f 166/2/3 165/2/3 164/2/3
f 167/2/3 165/2/3 166/2/3
f 168/1/4 169/1/4 170/1/4
f 170/1/4 169/1/4 171/1/4
f 172/1/4 173/1/4 174/1/4
f 174/1/4 173/1/4 175/1/4
f 176/1/4 177/1/4 178/1/4
f 178/1/4 177/1/4 179/1/4
f 180/1/4 181/1/4 182/1/4
f 182/1/4 181/1/4 183/1/4
f 184/1/4 185/1/4 186/1/4
f 186/1/4 185/1/4 187/1/4
f 188/1/4 189/1/4 191/1/4
f 191/1/4 189/1/4 192/1/4
f 192/1/4 189/1/4 193/1/4
f 190/2/4 191/2/4 194/2/4
f 191/1/4 192/1/4 195/1/4
f 194/2/4 191/2/4 195/2/4
f 195/1/4 192/1/4 196/1/4
f 200/2/5 198/2/5 197/2/5
f 201/2/5 200/2/5 199/2/5
f 202/2/5 198/2/5 200/2/5
f 202/2/5 200/2/5 201/2/5
f 205/2/5 204/2/5 203/2/5
f 206/2/5 204/2/5 205/2/5
f 207/2/5 205/2/5 203/2/5
f 208/2/5 205/2/5 207/2/5
f 212/1/5 210/1/5 209/1/5
f 213/1/5 212/1/5 211/1/5
f 214/1/5 212/1/5 213/1/5
f 215/1/5 212/1/5 214/1/5
f 216/1/5 210/1/5 212/1/5
f 216/1/5 212/1/5 215/1/5
f 217/1/5 215/1/5 214/1/5
f 218/1/5 215/1/5 217/1/5
f 219/1/5 215/1/5 218/1/5
f 220/1/5 215/1/5 219/1/5
f 224/1/5 222/1/5 221/1/5
f 226/1/5 224/1/5 223/1/5
f 227/1/5 224/1/5 226/1/5
f 227/1/5 226/1/5 225/1/5
f 228/1/5 222/1/5 224/1/5
f 228/1/5 224/1/5 227/1/5
f 229/1/5 227/1/5 225/1/5
f 230/1/5 227/1/5 229/1/5
f 231/1/5 227/1/5 230/1/5
f 235/1/5 233/1/5 232/1/5
f 237/1/5 235/1/5 234/1/5
f 238/1/5 233/1/5 235/1/5
f 238/1/5 237/1/5 236/1/5
f 238/1/5 235/1/5 237/1/5
f 239/1/5 233/1/5 238/1/5
f 240/1/5 238/1/5 236/1/5
f 241/1/5 238/1/5 240/1/5
f 242/1/5 240/1/5 236/1/5
f 243/1/5 240/1/5 242/1/5
f 244/1/5 240/1/5 243/1/5
f 248/1/5 246/1/5 245/1/5
f 250/1/5 248/1/5 247/1/5
f 251/1/5 246/1/5 248/1/5
f 251/1/5 250/1/5 249/1/5
f 251/1/5 248/1/5 250/1/5
f 252/1/5 246/1/5 251/1/5
f 253/1/5 251/1/5 249/1/5
f 254/1/5 251/1/5 253/1/5
f 255/1/5 253/1/5 249/1/5
f 256/1/5 253/1/5 255/1/5
f 257/1/5 253/1/5 256/1/5
f 260/1/5 259/1/5 258/1/5
f 261/1/5 259/1/5 260/1/5
f 262/1/6 263/1/6 265/1/6
f 264/1/6 265/1/6 267/1/6
f 266/1/6 267/1/6 268/1/6
f 268/1/6 267/1/6 269/1/6
f 269/1/6 267/1/6 270/1/6
f 270/1/6 267/1/6 271/1/6
f 271/1/6 267/1/6 272/1/6
f 267/1/6 265/1/6 273/1/6
f 272/1/6 267/1/6 273/1/6
f 273/1/6 265/1/6 274/1/6
f 274/1/6 265/1/6 275/1/6
f 275/1/6 265/1/6 276/1/6
f 265/1/6 263/1/6 277/1/6
f 276/1/6 265/1/6 277/1/6
f 278/1/6 279/1/6 280/1/6
f 280/1/6 279/1/6 281/1/6
f 282/1/6 283/1/6 284/1/6
f 284/1/6 283/1/6 285/1/6
f 285/1/6 283/1/6 286/1/6
f 287/1/6 288/1/6 289/1/6
f 289/1/6 288/1/6 290/1/6
f 290/1/6 288/1/6 291/1/6
f 291/1/6 288/1/6 292/1/6
