# MagicaVoxel @ Ephtracy

# group
g dadbat

# material
mtllib dadbat.mtl
usemtl palette

# normals
vn -1 0 0
vn 1 0 0
vn 0 0 1
vn 0 0 -1
vn 0 -1 0
vn 0 1 0

# texcoords
vt 0.365234 0.5
vt 0.427734 0.5
vt 0.990234 0.5
vt 0.994141 0.5

# verts
v -4 19 -5
v -4 19 -18
v -4 23 -5
v -4 23 -18
v -3 18 -5
v -3 18 -18
v -3 19 1
v -3 19 -5
v -3 19 -18
v -3 19 -20
v -3 23 1
v -3 23 -5
v -3 23 -18
v -3 23 -20
v -3 24 -5
v -3 24 -18
v -2 17 -5
v -2 17 -18
v -2 18 1
v -2 18 -5
v -2 18 -18
v -2 18 -19
v -2 18 -20
v -2 19 1
v -2 19 -5
v -2 19 -18
v -2 19 -19
v -2 19 -20
v -2 20 20
v -2 20 18
v -2 20 9
v -2 20 1
v -2 22 20
v -2 22 18
v -2 22 9
v -2 22 1
v -2 23 1
v -2 23 -5
v -2 23 -18
v -2 23 -19
v -2 23 -20
v -2 24 1
v -2 24 -5
v -2 24 -18
v -2 24 -19
v -2 24 -20
v -2 25 -5
v -2 25 -18
v -1 19 20
v -1 19 18
v -1 19 9
v -1 19 1
v -1 20 20
v -1 20 18
v -1 20 17
v -1 20 16
v -1 20 15
v -1 20 14
v -1 20 13
v -1 20 12
v -1 20 11
v -1 20 10
v -1 20 9
v -1 20 1
v -1 22 20
v -1 22 18
v -1 22 17
v -1 22 16
v -1 22 15
v -1 22 14
v -1 22 13
v -1 22 12
v -1 22 11
v -1 22 10
v -1 22 9
v -1 22 1
v -1 23 20
v -1 23 18
v -1 23 9
v -1 23 1
v 1 19 20
v 1 19 18
v 1 19 9
v 1 19 1
v 1 20 20
v 1 20 18
v 1 20 17
v 1 20 16
v 1 20 15
v 1 20 14
v 1 20 13
v 1 20 12
v 1 20 11
v 1 20 10
v 1 20 9
v 1 20 1
v 1 22 20
v 1 22 18
v 1 22 17
v 1 22 16
v 1 22 15
v 1 22 14
v 1 22 13
v 1 22 12
v 1 22 11
v 1 22 10
v 1 22 9
v 1 22 1
v 1 23 20
v 1 23 18
v 1 23 9
v 1 23 1
v 2 17 -5
v 2 17 -18
v 2 18 1
v 2 18 -5
v 2 18 -18
v 2 18 -19
v 2 18 -20
v 2 19 1
v 2 19 -5
v 2 19 -18
v 2 19 -19
v 2 19 -20
v 2 20 20
v 2 20 18
v 2 20 9
v 2 20 1
v 2 22 20
v 2 22 18
v 2 22 9
v 2 22 1
v 2 23 1
v 2 23 -5
v 2 23 -18
v 2 23 -19
v 2 23 -20
v 2 24 1
v 2 24 -5
v 2 24 -18
v 2 24 -19
v 2 24 -20
v 2 25 -5
v 2 25 -18
v 3 18 -5
v 3 18 -18
v 3 19 1
v 3 19 -5
v 3 19 -6
v 3 19 -7
v 3 19 -8
v 3 19 -11
v 3 19 -12
v 3 19 -13
v 3 19 -14
v 3 19 -15
v 3 19 -16
v 3 19 -17
v 3 19 -18
v 3 19 -20
v 3 20 -18
v 3 22 -5
v 3 23 1
v 3 23 -5
v 3 23 -8
v 3 23 -15
v 3 23 -16
v 3 23 -17
v 3 23 -18
v 3 23 -20
v 3 24 -5
v 3 24 -18
v 4 19 -5
v 4 19 -6
v 4 19 -7
v 4 19 -8
v 4 19 -11
v 4 19 -12
v 4 19 -13
v 4 19 -14
v 4 19 -15
v 4 19 -16
v 4 19 -17
v 4 19 -18
v 4 20 -9
v 4 20 -10
v 4 20 -16
v 4 20 -17
v 4 20 -18
v 4 21 -9
v 4 21 -10
v 4 21 -13
v 4 21 -14
v 4 21 -16
v 4 21 -17
v 4 22 -5
v 4 22 -6
v 4 22 -7
v 4 22 -8
v 4 22 -11
v 4 22 -12
v 4 22 -15
v 4 22 -16
v 4 22 -17
v 4 23 -5
v 4 23 -8
v 4 23 -15
v 4 23 -16
v 4 23 -17
v 4 23 -18
v -2 20 20
v -2 22 20
v -1 19 20
v -1 20 20
v -1 22 20
v -1 23 20
v 1 19 20
v 1 20 20
v 1 22 20
v 1 23 20
v 2 20 20
v 2 22 20
v -2 20 9
v -2 22 9
v -1 19 9
v -1 20 9
v -1 22 9
v -1 23 9
v 1 19 9
v 1 20 9
v 1 22 9
v 1 23 9
v 2 20 9
v 2 22 9
v -3 19 1
v -3 23 1
v -2 18 1
v -2 19 1
v -2 20 1
v -2 22 1
v -2 23 1
v -2 24 1
v -1 19 1
v -1 20 1
v -1 22 1
v -1 23 1
v 1 19 1
v 1 20 1
v 1 22 1
v 1 23 1
v 2 18 1
v 2 19 1
v 2 20 1
v 2 22 1
v 2 23 1
v 2 24 1
v 3 19 1
v 3 23 1
v -4 19 -5
v -4 23 -5
v -3 18 -5
v -3 19 -5
v -3 23 -5
v -3 24 -5
v -2 17 -5
v -2 18 -5
v -2 19 -5
v -2 23 -5
v -2 24 -5
v -2 25 -5
v 2 17 -5
v 2 18 -5
v 2 19 -5
v 2 23 -5
v 2 24 -5
v 2 25 -5
v 3 18 -5
v 3 19 -5
v 3 22 -5
v 3 23 -5
v 3 24 -5
v 4 19 -5
v 4 22 -5
v 4 23 -5
v -2 20 18
v -2 22 18
v -1 19 18
v -1 20 18
v -1 22 18
v -1 23 18
v 1 19 18
v 1 20 18
v 1 22 18
v 1 23 18
v 2 20 18
v 2 22 18
v -4 19 -18
v -4 23 -18
v -3 18 -18
v -3 19 -18
v -3 23 -18
v -3 24 -18
v -2 17 -18
v -2 18 -18
v -2 19 -18
v -2 23 -18
v -2 24 -18
v -2 25 -18
v 2 17 -18
v 2 18 -18
v 2 19 -18
v 2 23 -18
v 2 24 -18
v 2 25 -18
v 3 18 -18
v 3 19 -18
v 3 20 -18
v 3 23 -18
v 3 24 -18
v 4 19 -18
v 4 20 -18
v 4 23 -18
v -3 19 -20
v -3 23 -20
v -2 18 -20
v -2 19 -20
v -2 21 -20
v -2 22 -20
v -2 23 -20
v -2 24 -20
v -1 19 -20
v -1 21 -20
v -1 22 -20
v -1 23 -20
v 1 19 -20
v 1 21 -20
v 1 22 -20
v 1 23 -20
v 2 18 -20
v 2 19 -20
v 2 23 -20
v 2 24 -20
v 3 19 -20
v 3 23 -20
v -2 17 -5
v 2 17 -5
v -2 17 -18
v 2 17 -18
v -2 18 1
v 2 18 1
v -3 18 -5
v -2 18 -5
v 2 18 -5
v 3 18 -5
v -3 18 -18
v -2 18 -18
v 2 18 -18
v 3 18 -18
v -2 18 -19
v 2 18 -19
v -2 18 -20
v 2 18 -20
v -1 19 20
v 1 19 20
v -1 19 18
v 1 19 18
v -1 19 9
v 1 19 9
v -3 19 1
v -2 19 1
v -1 19 1
v 1 19 1
v 2 19 1
v 3 19 1
v -4 19 -5
v -3 19 -5
v -2 19 -5
v 2 19 -5
v 3 19 -5
v 4 19 -5
v 3 19 -6
v 4 19 -6
v 3 19 -7
v 4 19 -7
v 3 19 -8
v 4 19 -8
v 3 19 -11
v 4 19 -11
v 3 19 -12
v 4 19 -12
v 3 19 -13
v 4 19 -13
v 3 19 -14
v 4 19 -14
v 3 19 -15
v 4 19 -15
v 3 19 -16
v 4 19 -16
v 3 19 -17
v 4 19 -17
v -4 19 -18
v -3 19 -18
v -2 19 -18
v 2 19 -18
v 3 19 -18
v 4 19 -18
v -2 19 -19
v 2 19 -19
v -3 19 -20
v -2 19 -20
v 2 19 -20
v 3 19 -20
v -2 20 20
v -1 20 20
v 1 20 20
v 2 20 20
v -2 20 18
v -1 20 18
v 1 20 18
v 2 20 18
v -1 20 17
v 1 20 17
v -1 20 16
v 1 20 16
v -1 20 15
v 1 20 15
v -1 20 14
v 1 20 14
v -1 20 13
v 1 20 13
v -1 20 12
v 1 20 12
v -1 20 11
v 1 20 11
v -1 20 10
v 1 20 10
v -2 20 9
v -1 20 9
v 1 20 9
v 2 20 9
v -2 20 1
v -1 20 1
v 1 20 1
v 2 20 1
v -2 22 20
v -1 22 20
v 1 22 20
v 2 22 20
v -2 22 18
v -1 22 18
v 1 22 18
v 2 22 18
v -1 22 17
v 1 22 17
v -1 22 16
v 1 22 16
v -1 22 15
v 1 22 15
v -1 22 14
v 1 22 14
v -1 22 13
v 1 22 13
v -1 22 12
v 1 22 12
v -1 22 11
v 1 22 11
v -1 22 10
v 1 22 10
v -2 22 9
v -1 22 9
v 1 22 9
v 2 22 9
v -2 22 1
v -1 22 1
v 1 22 1
v 2 22 1
v -1 23 20
v 1 23 20
v -1 23 18
v 1 23 18
v -1 23 9
v 1 23 9
v -3 23 1
v -2 23 1
v -1 23 1
v 1 23 1
v 2 23 1
v 3 23 1
v -4 23 -5
v -3 23 -5
v -2 23 -5
v 2 23 -5
v 3 23 -5
v 4 23 -5
v 3 23 -8
v 4 23 -8
v 3 23 -15
v 4 23 -15
v 3 23 -16
v 4 23 -16
v 3 23 -17
v 4 23 -17
v -4 23 -18
v -3 23 -18
v -2 23 -18
v 2 23 -18
v 3 23 -18
v 4 23 -18
v -2 23 -19
v 2 23 -19
v -3 23 -20
v -2 23 -20
v 2 23 -20
v 3 23 -20
v -2 24 1
v 2 24 1
v -3 24 -5
v -2 24 -5
v 2 24 -5
v 3 24 -5
v -3 24 -18
v -2 24 -18
v 2 24 -18
v 3 24 -18
v -2 24 -19
v 2 24 -19
v -2 24 -20
v 2 24 -20
v -2 25 -5
v 2 25 -5
v -2 25 -18
v 2 25 -18

# faces
f 3/1/1 2/1/1 1/1/1
f 4/1/1 2/1/1 3/1/1
f 8/1/1 6/1/1 5/1/1
f 9/1/1 6/1/1 8/1/1
f 11/1/1 8/1/1 7/1/1
f 12/1/1 8/1/1 11/1/1
f 13/1/1 10/1/1 9/1/1
f 14/1/1 10/1/1 13/1/1
f 15/1/1 13/1/1 12/1/1
f 16/1/1 13/1/1 15/1/1
f 20/1/1 18/1/1 17/1/1
f 21/1/1 18/1/1 20/1/1
f 24/1/1 20/1/1 19/1/1
f 25/1/1 20/1/1 24/1/1
f 26/1/1 22/1/1 21/1/1
f 27/2/1 23/2/1 22/2/1
f 27/1/1 22/1/1 26/1/1
f 28/2/1 23/2/1 27/2/1
f 33/1/1 30/1/1 29/1/1
f 34/1/1 30/1/1 33/1/1
f 35/1/1 32/1/1 31/1/1
f 36/1/1 32/1/1 35/1/1
f 42/1/1 38/1/1 37/1/1
f 43/1/1 38/1/1 42/1/1
f 44/1/1 40/1/1 39/1/1
f 45/2/1 41/2/1 40/2/1
f 45/1/1 40/1/1 44/1/1
f 46/2/1 41/2/1 45/2/1
f 47/1/1 44/1/1 43/1/1
f 48/1/1 44/1/1 47/1/1
f 53/1/1 50/1/1 49/1/1
f 54/1/1 50/1/1 53/1/1
f 63/1/1 52/1/1 51/1/1
f 64/1/1 52/1/1 63/1/1
f 66/4/1 55/4/1 54/4/1
f 67/3/1 56/3/1 55/3/1
f 67/4/1 55/4/1 66/4/1
f 68/4/1 57/4/1 56/4/1
f 68/3/1 56/3/1 67/3/1
f 69/3/1 58/3/1 57/3/1
f 69/4/1 57/4/1 68/4/1
f 70/4/1 59/4/1 58/4/1
f 70/3/1 58/3/1 69/3/1
f 71/3/1 60/3/1 59/3/1
f 71/4/1 59/4/1 70/4/1
f 72/4/1 61/4/1 60/4/1
f 72/3/1 60/3/1 71/3/1
f 73/3/1 62/3/1 61/3/1
f 73/4/1 61/4/1 72/4/1
f 74/4/1 63/4/1 62/4/1
f 74/3/1 62/3/1 73/3/1
f 75/4/1 63/4/1 74/4/1
f 77/1/1 66/1/1 65/1/1
f 78/1/1 66/1/1 77/1/1
f 79/1/1 76/1/1 75/1/1
f 80/1/1 76/1/1 79/1/1
f 81/1/2 82/1/2 85/1/2
f 85/1/2 82/1/2 86/1/2
f 83/1/2 84/1/2 95/1/2
f 95/1/2 84/1/2 96/1/2
f 86/4/2 87/4/2 98/4/2
f 87/3/2 88/3/2 99/3/2
f 98/4/2 87/4/2 99/4/2
f 88/4/2 89/4/2 100/4/2
f 99/3/2 88/3/2 100/3/2
f 89/3/2 90/3/2 101/3/2
f 100/4/2 89/4/2 101/4/2
f 90/4/2 91/4/2 102/4/2
f 101/3/2 90/3/2 102/3/2
f 91/3/2 92/3/2 103/3/2
f 102/4/2 91/4/2 103/4/2
f 92/4/2 93/4/2 104/4/2
f 103/3/2 92/3/2 104/3/2
f 93/3/2 94/3/2 105/3/2
f 104/4/2 93/4/2 105/4/2
f 94/4/2 95/4/2 106/4/2
f 105/3/2 94/3/2 106/3/2
f 106/4/2 95/4/2 107/4/2
f 97/1/2 98/1/2 109/1/2
f 109/1/2 98/1/2 110/1/2
f 107/1/2 108/1/2 111/1/2
f 111/1/2 108/1/2 112/1/2
f 113/1/2 114/1/2 116/1/2
f 116/1/2 114/1/2 117/1/2
f 115/1/2 116/1/2 120/1/2
f 120/1/2 116/1/2 121/1/2
f 117/1/2 118/1/2 122/1/2
f 118/2/2 119/2/2 123/2/2
f 122/1/2 118/1/2 123/1/2
f 123/2/2 119/2/2 124/2/2
f 125/1/2 126/1/2 129/1/2
f 129/1/2 126/1/2 130/1/2
f 127/1/2 128/1/2 131/1/2
f 131/1/2 128/1/2 132/1/2
f 133/1/2 134/1/2 138/1/2
f 138/1/2 134/1/2 139/1/2
f 135/1/2 136/1/2 140/1/2
f 136/2/2 137/2/2 141/2/2
f 140/1/2 136/1/2 141/1/2
f 141/2/2 137/2/2 142/2/2
f 139/1/2 140/1/2 143/1/2
f 143/1/2 140/1/2 144/1/2
f 145/1/2 146/1/2 148/1/2
f 148/1/2 146/1/2 149/1/2
f 149/1/2 146/1/2 150/1/2
f 150/1/2 146/1/2 151/1/2
f 151/1/2 146/1/2 152/1/2
f 152/1/2 146/1/2 153/1/2
f 153/1/2 146/1/2 154/1/2
f 154/1/2 146/1/2 155/1/2
f 155/1/2 146/1/2 156/1/2
f 156/1/2 146/1/2 157/1/2
f 157/1/2 146/1/2 158/1/2
f 158/1/2 146/1/2 159/1/2
f 159/1/2 160/1/2 161/1/2
f 147/1/2 148/1/2 162/1/2
f 147/1/2 162/1/2 163/1/2
f 163/1/2 162/1/2 164/1/2
f 161/1/2 160/1/2 169/1/2
f 169/1/2 160/1/2 170/1/2
f 167/1/2 168/1/2 171/1/2
f 168/1/2 169/1/2 171/1/2
f 164/1/2 165/1/2 171/1/2
f 166/1/2 167/1/2 171/1/2
f 165/1/2 166/1/2 171/1/2
f 171/1/2 169/1/2 172/1/2
f 176/2/2 177/2/2 185/2/2
f 185/2/2 177/2/2 186/2/2
f 181/1/2 182/1/2 187/1/2
f 182/2/2 183/2/2 187/2/2
f 183/1/2 184/1/2 188/1/2
f 187/2/2 183/2/2 188/2/2
f 188/1/2 184/1/2 189/1/2
f 185/1/2 186/1/2 190/1/2
f 176/2/2 185/2/2 190/2/2
f 186/2/2 177/2/2 191/2/2
f 190/1/2 186/1/2 191/1/2
f 178/2/2 179/2/2 192/2/2
f 179/1/2 180/1/2 192/1/2
f 180/2/2 181/2/2 193/2/2
f 192/1/2 180/1/2 193/1/2
f 181/1/2 187/1/2 194/1/2
f 187/1/2 188/1/2 194/1/2
f 188/2/2 189/2/2 195/2/2
f 194/1/2 188/1/2 195/1/2
f 173/1/2 174/1/2 196/1/2
f 174/2/2 175/2/2 197/2/2
f 196/1/2 174/1/2 197/1/2
f 175/1/2 176/1/2 198/1/2
f 197/2/2 175/2/2 198/2/2
f 190/2/2 191/2/2 199/2/2
f 198/1/2 176/1/2 199/1/2
f 176/2/2 190/2/2 199/2/2
f 177/1/2 178/1/2 200/1/2
f 199/2/2 191/2/2 200/2/2
f 191/2/2 177/2/2 200/2/2
f 192/2/2 193/2/2 201/2/2
f 200/1/2 178/1/2 201/1/2
f 178/2/2 192/2/2 201/2/2
f 193/2/2 181/2/2 202/2/2
f 201/2/2 193/2/2 202/2/2
f 181/1/2 194/1/2 202/1/2
f 194/2/2 195/2/2 203/2/2
f 202/1/2 194/1/2 203/1/2
f 195/2/2 189/2/2 204/2/2
f 203/2/2 195/2/2 204/2/2
f 196/2/2 197/2/2 205/2/2
f 198/2/2 199/2/2 205/2/2
f 197/2/2 198/2/2 205/2/2
f 200/1/2 201/1/2 206/1/2
f 205/2/2 199/2/2 206/2/2
f 199/1/2 200/1/2 206/1/2
f 201/1/2 202/1/2 206/1/2
f 202/2/2 203/2/2 207/2/2
f 206/1/2 202/1/2 207/1/2
f 203/1/2 204/1/2 208/1/2
f 207/2/2 203/2/2 208/2/2
f 204/2/2 189/2/2 209/2/2
f 208/1/2 204/1/2 209/1/2
f 209/2/2 189/2/2 210/2/2
f 214/1/3 212/1/3 211/1/3
f 215/1/3 212/1/3 214/1/3
f 217/1/3 214/1/3 213/1/3
f 217/1/3 216/1/3 215/1/3
f 217/1/3 215/1/3 214/1/3
f 218/1/3 216/1/3 217/1/3
f 219/1/3 216/1/3 218/1/3
f 220/1/3 216/1/3 219/1/3
f 221/1/3 219/1/3 218/1/3
f 222/1/3 219/1/3 221/1/3
f 226/1/3 224/1/3 223/1/3
f 227/1/3 224/1/3 226/1/3
f 229/1/3 226/1/3 225/1/3
f 230/1/3 226/1/3 229/1/3
f 231/1/3 228/1/3 227/1/3
f 232/1/3 228/1/3 231/1/3
f 233/1/3 231/1/3 230/1/3
f 234/1/3 231/1/3 233/1/3
f 238/1/3 236/1/3 235/1/3
f 239/1/3 236/1/3 238/1/3
f 240/1/3 236/1/3 239/1/3
f 241/1/3 236/1/3 240/1/3
f 243/1/3 238/1/3 237/1/3
f 243/1/3 239/1/3 238/1/3
f 244/1/3 239/1/3 243/1/3
f 245/1/3 242/1/3 241/1/3
f 245/1/3 241/1/3 240/1/3
f 246/1/3 242/1/3 245/1/3
f 247/1/3 243/1/3 237/1/3
f 250/1/3 242/1/3 246/1/3
f 251/1/3 248/1/3 247/1/3
f 251/1/3 247/1/3 237/1/3
f 252/1/3 248/1/3 251/1/3
f 253/1/3 248/1/3 252/1/3
f 254/1/3 250/1/3 249/1/3
f 255/1/3 242/1/3 250/1/3
f 255/1/3 250/1/3 254/1/3
f 256/1/3 242/1/3 255/1/3
f 257/1/3 253/1/3 252/1/3
f 257/1/3 254/1/3 253/1/3
f 257/1/3 255/1/3 254/1/3
f 258/1/3 255/1/3 257/1/3
f 262/1/3 260/1/3 259/1/3
f 263/1/3 260/1/3 262/1/3
f 266/1/3 262/1/3 261/1/3
f 267/1/3 262/1/3 266/1/3
f 268/1/3 264/1/3 263/1/3
f 269/1/3 264/1/3 268/1/3
f 271/1/3 266/1/3 265/1/3
f 272/1/3 266/1/3 271/1/3
f 275/1/3 270/1/3 269/1/3
f 276/1/3 270/1/3 275/1/3
f 277/1/3 273/1/3 272/1/3
f 278/1/3 273/1/3 277/1/3
f 280/1/3 275/1/3 274/1/3
f 281/1/3 275/1/3 280/1/3
f 282/1/3 279/1/3 278/1/3
f 283/2/3 280/2/3 279/2/3
f 283/1/3 279/1/3 282/1/3
f 284/2/3 280/2/3 283/2/3
f 285/1/4 286/1/4 288/1/4
f 288/1/4 286/1/4 289/1/4
f 287/1/4 288/1/4 291/1/4
f 291/1/4 288/1/4 292/1/4
f 289/1/4 290/1/4 293/1/4
f 293/1/4 290/1/4 294/1/4
f 292/1/4 293/1/4 295/1/4
f 295/1/4 293/1/4 296/1/4
f 297/1/4 298/1/4 300/1/4
f 300/1/4 298/1/4 301/1/4
f 299/1/4 300/1/4 304/1/4
f 304/1/4 300/1/4 305/1/4
f 301/1/4 302/1/4 306/1/4
f 306/1/4 302/1/4 307/1/4
f 303/1/4 304/1/4 309/1/4
f 309/1/4 304/1/4 310/1/4
f 307/1/4 308/1/4 313/1/4
f 313/1/4 308/1/4 314/1/4
f 310/1/4 311/1/4 315/1/4
f 315/1/4 311/1/4 316/1/4
f 312/1/4 313/1/4 318/1/4
f 318/1/4 313/1/4 319/1/4
f 316/1/4 317/1/4 320/1/4
f 317/2/4 318/2/4 321/2/4
f 320/1/4 317/1/4 321/1/4
f 321/2/4 318/2/4 322/2/4
f 323/1/4 324/1/4 326/1/4
f 326/1/4 324/1/4 327/1/4
f 327/1/4 324/1/4 328/1/4
f 328/1/4 324/1/4 329/1/4
f 325/2/4 326/2/4 331/2/4
f 326/2/4 327/2/4 331/2/4
f 327/1/4 328/1/4 332/1/4
f 331/2/4 327/2/4 332/2/4
f 329/2/4 330/2/4 333/2/4
f 332/1/4 328/1/4 333/1/4
f 328/2/4 329/2/4 333/2/4
f 333/2/4 330/2/4 334/2/4
f 331/1/4 332/1/4 335/1/4
f 325/2/4 331/2/4 335/2/4
f 332/2/4 333/2/4 336/2/4
f 335/1/4 332/1/4 336/1/4
f 333/1/4 334/1/4 337/1/4
f 336/2/4 333/2/4 337/2/4
f 334/2/4 330/2/4 338/2/4
f 337/1/4 334/1/4 338/1/4
f 336/2/4 337/2/4 339/2/4
f 335/2/4 336/2/4 339/2/4
f 337/2/4 338/2/4 339/2/4
f 325/2/4 335/2/4 339/2/4
f 339/2/4 338/2/4 340/2/4
f 338/2/4 330/2/4 341/2/4
f 340/2/4 338/2/4 341/2/4
f 341/2/4 330/2/4 342/2/4
f 340/1/4 341/1/4 343/1/4
f 343/1/4 341/1/4 344/1/4
f 347/1/5 346/1/5 345/1/5
f 348/1/5 346/1/5 347/1/5
f 352/1/5 350/1/5 349/1/5
f 353/1/5 350/1/5 352/1/5
f 355/1/5 352/1/5 351/1/5
f 356/1/5 352/1/5 355/1/5
f 357/1/5 354/1/5 353/1/5
f 358/1/5 354/1/5 357/1/5
f 359/1/5 357/1/5 356/1/5
f 360/1/5 357/1/5 359/1/5
f 361/2/5 360/2/5 359/2/5
f 362/2/5 360/2/5 361/2/5
f 365/1/5 364/1/5 363/1/5
f 366/1/5 364/1/5 365/1/5
f 371/1/5 368/1/5 367/1/5
f 372/1/5 368/1/5 371/1/5
f 376/1/5 370/1/5 369/1/5
f 377/1/5 370/1/5 376/1/5
f 378/1/5 374/1/5 373/1/5
f 379/1/5 374/1/5 378/1/5
f 381/1/5 380/1/5 379/1/5
f 382/1/5 380/1/5 381/1/5
f 383/2/5 382/2/5 381/2/5
f 384/2/5 382/2/5 383/2/5
f 385/1/5 384/1/5 383/1/5
f 386/1/5 384/1/5 385/1/5
f 387/2/5 386/2/5 385/2/5
f 388/2/5 386/2/5 387/2/5
f 389/1/5 388/1/5 387/1/5
f 390/1/5 388/1/5 389/1/5
f 391/2/5 390/2/5 389/2/5
f 392/2/5 390/2/5 391/2/5
f 393/1/5 392/1/5 391/1/5
f 394/1/5 392/1/5 393/1/5
f 395/2/5 394/2/5 393/2/5
f 396/2/5 394/2/5 395/2/5
f 397/1/5 396/1/5 395/1/5
f 398/1/5 396/1/5 397/1/5
f 399/2/5 398/2/5 397/2/5
f 400/2/5 398/2/5 399/2/5
f 401/1/5 376/1/5 375/1/5
f 402/1/5 376/1/5 401/1/5
f 405/1/5 400/1/5 399/1/5
f 406/1/5 400/1/5 405/1/5
f 407/1/5 403/1/5 402/1/5
f 408/1/5 405/1/5 404/1/5
f 409/1/5 407/1/5 402/1/5
f 410/1/5 407/1/5 409/1/5
f 411/1/5 405/1/5 408/1/5
f 412/1/5 405/1/5 411/1/5
f 417/1/5 414/1/5 413/1/5
f 418/1/5 414/1/5 417/1/5
f 419/1/5 416/1/5 415/1/5
f 420/1/5 416/1/5 419/1/5
f 421/4/5 419/4/5 418/4/5
f 422/4/5 419/4/5 421/4/5
f 423/3/5 422/3/5 421/3/5
f 424/3/5 422/3/5 423/3/5
f 425/4/5 424/4/5 423/4/5
f 426/4/5 424/4/5 425/4/5
f 427/3/5 426/3/5 425/3/5
f 428/3/5 426/3/5 427/3/5
f 429/4/5 428/4/5 427/4/5
f 430/4/5 428/4/5 429/4/5
f 431/3/5 430/3/5 429/3/5
f 432/3/5 430/3/5 431/3/5
f 433/4/5 432/4/5 431/4/5
f 434/4/5 432/4/5 433/4/5
f 435/3/5 434/3/5 433/3/5
f 436/3/5 434/3/5 435/3/5
f 438/4/5 436/4/5 435/4/5
f 439/4/5 436/4/5 438/4/5
f 441/1/5 438/1/5 437/1/5
f 442/1/5 438/1/5 441/1/5
f 443/1/5 440/1/5 439/1/5
f 444/1/5 440/1/5 443/1/5
f 445/1/6 446/1/6 449/1/6
f 449/1/6 446/1/6 450/1/6
f 447/1/6 448/1/6 451/1/6
f 451/1/6 448/1/6 452/1/6
f 450/4/6 451/4/6 453/4/6
f 453/4/6 451/4/6 454/4/6
f 453/3/6 454/3/6 455/3/6
f 455/3/6 454/3/6 456/3/6
f 455/4/6 456/4/6 457/4/6
f 457/4/6 456/4/6 458/4/6
f 457/3/6 458/3/6 459/3/6
f 459/3/6 458/3/6 460/3/6
f 459/4/6 460/4/6 461/4/6
f 461/4/6 460/4/6 462/4/6
f 461/3/6 462/3/6 463/3/6
f 463/3/6 462/3/6 464/3/6
f 463/4/6 464/4/6 465/4/6
f 465/4/6 464/4/6 466/4/6
f 465/3/6 466/3/6 467/3/6
f 467/3/6 466/3/6 468/3/6
f 467/4/6 468/4/6 470/4/6
f 470/4/6 468/4/6 471/4/6
f 469/1/6 470/1/6 473/1/6
f 473/1/6 470/1/6 474/1/6
f 471/1/6 472/1/6 475/1/6
f 475/1/6 472/1/6 476/1/6
f 477/1/6 478/1/6 479/1/6
f 479/1/6 478/1/6 480/1/6
f 481/1/6 482/1/6 485/1/6
f 485/1/6 482/1/6 486/1/6
f 483/1/6 484/1/6 490/1/6
f 490/1/6 484/1/6 491/1/6
f 487/1/6 488/1/6 492/1/6
f 492/1/6 488/1/6 493/1/6
f 493/2/6 494/2/6 495/2/6
f 495/2/6 494/2/6 496/2/6
f 495/1/6 496/1/6 497/1/6
f 497/1/6 496/1/6 498/1/6
f 497/2/6 498/2/6 499/2/6
f 499/2/6 498/2/6 500/2/6
f 499/1/6 500/1/6 501/1/6
f 501/1/6 500/1/6 502/1/6
f 489/1/6 490/1/6 503/1/6
f 503/1/6 490/1/6 504/1/6
f 501/2/6 502/2/6 507/2/6
f 507/2/6 502/2/6 508/2/6
f 504/1/6 505/1/6 509/1/6
f 506/1/6 507/1/6 510/1/6
f 504/1/6 509/1/6 511/1/6
f 511/1/6 509/1/6 512/1/6
f 510/1/6 507/1/6 513/1/6
f 513/1/6 507/1/6 514/1/6
f 515/1/6 516/1/6 518/1/6
f 518/1/6 516/1/6 519/1/6
f 517/1/6 518/1/6 521/1/6
f 521/1/6 518/1/6 522/1/6
f 519/1/6 520/1/6 523/1/6
f 523/1/6 520/1/6 524/1/6
f 522/1/6 523/1/6 525/1/6
f 525/1/6 523/1/6 526/1/6
f 525/2/6 526/2/6 527/2/6
f 527/2/6 526/2/6 528/2/6
f 529/1/6 530/1/6 531/1/6
f 531/1/6 530/1/6 532/1/6
