# MagicaVoxel @ Ephtracy

# group
g Dresser

# material
mtllib Dresser.mtl
usemtl palette

# normals
vn -1 0 0
vn 1 0 0
vn 0 0 1
vn 0 0 -1
vn 0 -1 0
vn 0 1 0

# texcoords
vt 0.654297 0.5
vt 0.759766 0.5
vt 0.763672 0.5

# verts
v -5 0 14
v -5 0 12
v -5 0 1
v -5 0 -1
v -5 0 -12
v -5 0 -14
v -5 1 14
v -5 1 12
v -5 1 1
v -5 1 -1
v -5 1 -12
v -5 1 -14
v -5 3 13
v -5 3 5
v -5 3 4
v -5 3 -4
v -5 3 -5
v -5 3 -13
v -5 4 10
v -5 4 8
v -5 4 1
v -5 4 -1
v -5 4 -8
v -5 4 -10
v -5 5 10
v -5 5 8
v -5 5 1
v -5 5 -1
v -5 5 -8
v -5 5 -10
v -5 6 13
v -5 6 5
v -5 6 4
v -5 6 -4
v -5 6 -5
v -5 6 -13
v -5 7 13
v -5 7 5
v -5 7 4
v -5 7 -4
v -5 7 -5
v -5 7 -13
v -5 8 10
v -5 8 8
v -5 8 1
v -5 8 -1
v -5 8 -8
v -5 8 -10
v -5 9 10
v -5 9 8
v -5 9 1
v -5 9 -1
v -5 9 -8
v -5 9 -10
v -5 10 13
v -5 10 5
v -5 10 4
v -5 10 -4
v -5 10 -5
v -5 10 -13
v -5 11 14
v -5 11 -14
v -4 3 13
v -4 3 5
v -4 3 4
v -4 3 -4
v -4 3 -5
v -4 3 -13
v -4 4 10
v -4 4 8
v -4 4 1
v -4 4 -1
v -4 4 -8
v -4 4 -10
v -4 5 10
v -4 5 8
v -4 5 1
v -4 5 -1
v -4 5 -8
v -4 5 -10
v -4 6 13
v -4 6 5
v -4 6 4
v -4 6 -4
v -4 6 -5
v -4 6 -13
v -4 7 13
v -4 7 5
v -4 7 4
v -4 7 -4
v -4 7 -5
v -4 7 -13
v -4 8 10
v -4 8 8
v -4 8 1
v -4 8 -1
v -4 8 -8
v -4 8 -10
v -4 9 10
v -4 9 8
v -4 9 1
v -4 9 -1
v -4 9 -8
v -4 9 -10
v -4 10 13
v -4 10 5
v -4 10 4
v -4 10 -4
v -4 10 -5
v -4 10 -13
v 3 0 14
v 3 0 12
v 3 0 1
v 3 0 -1
v 3 0 -12
v 3 0 -14
v 3 1 14
v 3 1 12
v 3 1 1
v 3 1 -1
v 3 1 -12
v 3 1 -14
v -3 0 14
v -3 0 12
v -3 0 1
v -3 0 -1
v -3 0 -12
v -3 0 -14
v -3 1 14
v -3 1 12
v -3 1 1
v -3 1 -1
v -3 1 -12
v -3 1 -14
v 5 0 14
v 5 0 12
v 5 0 1
v 5 0 -1
v 5 0 -12
v 5 0 -14
v 5 1 14
v 5 1 12
v 5 1 1
v 5 1 -1
v 5 1 -12
v 5 1 -14
v 5 11 14
v 5 11 -14
v -5 0 14
v -5 1 14
v -5 11 14
v -3 0 14
v -3 1 14
v 3 0 14
v 3 1 14
v 5 0 14
v 5 1 14
v 5 11 14
v -5 4 10
v -5 5 10
v -5 8 10
v -5 9 10
v -4 4 10
v -4 5 10
v -4 8 10
v -4 9 10
v -5 3 5
v -5 6 5
v -5 7 5
v -5 10 5
v -4 3 5
v -4 6 5
v -4 7 5
v -4 10 5
v -5 0 1
v -5 1 1
v -5 4 1
v -5 5 1
v -5 8 1
v -5 9 1
v -4 4 1
v -4 5 1
v -4 8 1
v -4 9 1
v -3 0 1
v -3 1 1
v 3 0 1
v 3 1 1
v 5 0 1
v 5 1 1
v -5 3 -4
v -5 6 -4
v -5 7 -4
v -5 10 -4
v -4 3 -4
v -4 6 -4
v -4 7 -4
v -4 10 -4
v -5 4 -8
v -5 5 -8
v -5 8 -8
v -5 9 -8
v -4 4 -8
v -4 5 -8
v -4 8 -8
v -4 9 -8
v -5 0 -12
v -5 1 -12
v -3 0 -12
v -3 1 -12
v 3 0 -12
v 3 1 -12
v 5 0 -12
v 5 1 -12
v -5 3 -13
v -5 6 -13
v -5 7 -13
v -5 10 -13
v -4 3 -13
v -4 6 -13
v -4 7 -13
v -4 10 -13
v -5 3 13
v -5 6 13
v -5 7 13
v -5 10 13
v -4 3 13
v -4 6 13
v -4 7 13
v -4 10 13
v -5 0 12
v -5 1 12
v -3 0 12
v -3 1 12
v 3 0 12
v 3 1 12
v 5 0 12
v 5 1 12
v -5 4 8
v -5 5 8
v -5 8 8
v -5 9 8
v -4 4 8
v -4 5 8
v -4 8 8
v -4 9 8
v -5 3 4
v -5 6 4
v -5 7 4
v -5 10 4
v -4 3 4
v -4 6 4
v -4 7 4
v -4 10 4
v -5 0 -1
v -5 1 -1
v -5 4 -1
v -5 5 -1
v -5 8 -1
v -5 9 -1
v -4 4 -1
v -4 5 -1
v -4 8 -1
v -4 9 -1
v -3 0 -1
v -3 1 -1
v 3 0 -1
v 3 1 -1
v 5 0 -1
v 5 1 -1
v -5 3 -5
v -5 6 -5
v -5 7 -5
v -5 10 -5
v -4 3 -5
v -4 6 -5
v -4 7 -5
v -4 10 -5
v -5 4 -10
v -5 5 -10
v -5 8 -10
v -5 9 -10
v -4 4 -10
v -4 5 -10
v -4 8 -10
v -4 9 -10
v -5 0 -14
v -5 1 -14
v -5 11 -14
v -3 0 -14
v -3 1 -14
v 3 0 -14
v 3 1 -14
v 5 0 -14
v 5 1 -14
v 5 11 -14
v -5 0 14
v -3 0 14
v 3 0 14
v 5 0 14
v -5 0 12
v -3 0 12
v 3 0 12
v 5 0 12
v -5 0 1
v -3 0 1
v 3 0 1
v 5 0 1
v -5 0 -1
v -3 0 -1
v 3 0 -1
v 5 0 -1
v -5 0 -12
v -3 0 -12
v 3 0 -12
v 5 0 -12
v -5 0 -14
v -3 0 -14
v 3 0 -14
v 5 0 -14
v -3 1 14
v 3 1 14
v -5 1 12
v -3 1 12
v 3 1 12
v 5 1 12
v -5 1 1
v -3 1 1
v 3 1 1
v 5 1 1
v -5 1 -1
v -3 1 -1
v 3 1 -1
v 5 1 -1
v -5 1 -12
v -3 1 -12
v 3 1 -12
v 5 1 -12
v -3 1 -14
v 3 1 -14
v -5 4 10
v -4 4 10
v -5 4 8
v -4 4 8
v -5 4 1
v -4 4 1
v -5 4 -1
v -4 4 -1
v -5 4 -8
v -4 4 -8
v -5 4 -10
v -4 4 -10
v -5 6 13
v -4 6 13
v -5 6 5
v -4 6 5
v -5 6 4
v -4 6 4
v -5 6 -4
v -4 6 -4
v -5 6 -5
v -4 6 -5
v -5 6 -13
v -4 6 -13
v -5 8 10
v -4 8 10
v -5 8 8
v -4 8 8
v -5 8 1
v -4 8 1
v -5 8 -1
v -4 8 -1
v -5 8 -8
v -4 8 -8
v -5 8 -10
v -4 8 -10
v -5 10 13
v -4 10 13
v -5 10 5
v -4 10 5
v -5 10 4
v -4 10 4
v -5 10 -4
v -4 10 -4
v -5 10 -5
v -4 10 -5
v -5 10 -13
v -4 10 -13
v -5 3 13
v -4 3 13
v -5 3 5
v -4 3 5
v -5 3 4
v -4 3 4
v -5 3 -4
v -4 3 -4
v -5 3 -5
v -4 3 -5
v -5 3 -13
v -4 3 -13
v -5 5 10
v -4 5 10
v -5 5 8
v -4 5 8
v -5 5 1
v -4 5 1
v -5 5 -1
v -4 5 -1
v -5 5 -8
v -4 5 -8
v -5 5 -10
v -4 5 -10
v -5 7 13
v -4 7 13
v -5 7 5
v -4 7 5
v -5 7 4
v -4 7 4
v -5 7 -4
v -4 7 -4
v -5 7 -5
v -4 7 -5
v -5 7 -13
v -4 7 -13
v -5 9 10
v -4 9 10
v -5 9 8
v -4 9 8
v -5 9 1
v -4 9 1
v -5 9 -1
v -4 9 -1
v -5 9 -8
v -4 9 -8
v -5 9 -10
v -4 9 -10
v -5 11 14
v 5 11 14
v -5 11 -14
v 5 11 -14

# faces
f 7/2/1 2/2/1 1/2/1
f 8/2/1 2/2/1 7/2/1
f 9/2/1 4/2/1 3/2/1
f 10/2/1 4/2/1 9/2/1
f 11/2/1 6/2/1 5/2/1
f 12/2/1 6/2/1 11/2/1
f 13/3/1 10/3/1 9/3/1
f 13/3/1 8/3/1 7/3/1
f 13/3/1 12/3/1 11/3/1
f 13/3/1 11/3/1 10/3/1
f 13/3/1 9/3/1 8/3/1
f 14/3/1 12/3/1 13/3/1
f 15/3/1 12/3/1 14/3/1
f 16/3/1 12/3/1 15/3/1
f 17/3/1 12/3/1 16/3/1
f 18/3/1 12/3/1 17/3/1
f 25/1/1 20/1/1 19/1/1
f 26/1/1 20/1/1 25/1/1
f 27/1/1 22/1/1 21/1/1
f 28/1/1 22/1/1 27/1/1
f 29/1/1 24/1/1 23/1/1
f 30/1/1 24/1/1 29/1/1
f 31/3/1 13/3/1 7/3/1
f 32/3/1 15/3/1 14/3/1
f 33/3/1 15/3/1 32/3/1
f 34/3/1 17/3/1 16/3/1
f 35/3/1 17/3/1 34/3/1
f 36/3/1 12/3/1 18/3/1
f 37/3/1 35/3/1 34/3/1
f 37/3/1 36/3/1 35/3/1
f 37/3/1 34/3/1 33/3/1
f 37/3/1 31/3/1 7/3/1
f 37/3/1 33/3/1 32/3/1
f 37/3/1 32/3/1 31/3/1
f 38/3/1 36/3/1 37/3/1
f 39/3/1 36/3/1 38/3/1
f 40/3/1 36/3/1 39/3/1
f 41/3/1 36/3/1 40/3/1
f 42/3/1 12/3/1 36/3/1
f 42/3/1 36/3/1 41/3/1
f 49/1/1 44/1/1 43/1/1
f 50/1/1 44/1/1 49/1/1
f 51/1/1 46/1/1 45/1/1
f 52/1/1 46/1/1 51/1/1
f 53/1/1 48/1/1 47/1/1
f 54/1/1 48/1/1 53/1/1
f 55/3/1 37/3/1 7/3/1
f 56/3/1 39/3/1 38/3/1
f 57/3/1 39/3/1 56/3/1
f 58/3/1 41/3/1 40/3/1
f 59/3/1 41/3/1 58/3/1
f 60/3/1 12/3/1 42/3/1
f 61/3/1 57/3/1 56/3/1
f 61/3/1 60/3/1 59/3/1
f 61/3/1 59/3/1 58/3/1
f 61/3/1 58/3/1 57/3/1
f 61/3/1 55/3/1 7/3/1
f 61/3/1 56/3/1 55/3/1
f 62/3/1 12/3/1 60/3/1
f 62/3/1 60/3/1 61/3/1
f 69/3/1 64/3/1 63/3/1
f 70/3/1 64/3/1 69/3/1
f 71/3/1 66/3/1 65/3/1
f 72/3/1 66/3/1 71/3/1
f 73/3/1 68/3/1 67/3/1
f 74/3/1 68/3/1 73/3/1
f 75/3/1 69/3/1 63/3/1
f 76/3/1 64/3/1 70/3/1
f 77/3/1 71/3/1 65/3/1
f 78/3/1 66/3/1 72/3/1
f 79/3/1 73/3/1 67/3/1
f 80/3/1 68/3/1 74/3/1
f 81/3/1 75/3/1 63/3/1
f 81/3/1 76/3/1 75/3/1
f 82/3/1 64/3/1 76/3/1
f 82/3/1 76/3/1 81/3/1
f 83/3/1 77/3/1 65/3/1
f 83/3/1 78/3/1 77/3/1
f 84/3/1 66/3/1 78/3/1
f 84/3/1 78/3/1 83/3/1
f 85/3/1 80/3/1 79/3/1
f 85/3/1 79/3/1 67/3/1
f 86/3/1 68/3/1 80/3/1
f 86/3/1 80/3/1 85/3/1
f 93/3/1 88/3/1 87/3/1
f 94/3/1 88/3/1 93/3/1
f 95/3/1 90/3/1 89/3/1
f 96/3/1 90/3/1 95/3/1
f 97/3/1 92/3/1 91/3/1
f 98/3/1 92/3/1 97/3/1
f 99/3/1 93/3/1 87/3/1
f 100/3/1 88/3/1 94/3/1
f 101/3/1 95/3/1 89/3/1
f 102/3/1 90/3/1 96/3/1
f 103/3/1 97/3/1 91/3/1
f 104/3/1 92/3/1 98/3/1
f 105/3/1 99/3/1 87/3/1
f 105/3/1 100/3/1 99/3/1
f 106/3/1 88/3/1 100/3/1
f 106/3/1 100/3/1 105/3/1
f 107/3/1 101/3/1 89/3/1
f 107/3/1 102/3/1 101/3/1
f 108/3/1 90/3/1 102/3/1
f 108/3/1 102/3/1 107/3/1
f 109/3/1 104/3/1 103/3/1
f 109/3/1 103/3/1 91/3/1
f 110/3/1 92/3/1 104/3/1
f 110/3/1 104/3/1 109/3/1
f 117/2/1 112/2/1 111/2/1
f 118/2/1 112/2/1 117/2/1
f 119/2/1 114/2/1 113/2/1
f 120/2/1 114/2/1 119/2/1
f 121/2/1 116/2/1 115/2/1
f 122/2/1 116/2/1 121/2/1
f 123/2/2 124/2/2 129/2/2
f 129/2/2 124/2/2 130/2/2
f 125/2/2 126/2/2 131/2/2
f 131/2/2 126/2/2 132/2/2
f 127/2/2 128/2/2 133/2/2
f 133/2/2 128/2/2 134/2/2
f 135/2/2 136/2/2 141/2/2
f 141/2/2 136/2/2 142/2/2
f 137/2/2 138/2/2 143/2/2
f 143/2/2 138/2/2 144/2/2
f 139/2/2 140/2/2 145/2/2
f 145/2/2 140/2/2 146/2/2
f 143/3/2 144/3/2 147/3/2
f 141/3/2 142/3/2 147/3/2
f 145/3/2 146/3/2 147/3/2
f 144/3/2 145/3/2 147/3/2
f 142/3/2 143/3/2 147/3/2
f 147/3/2 146/3/2 148/3/2
f 152/2/3 150/2/3 149/2/3
f 153/3/3 151/3/3 150/3/3
f 153/2/3 150/2/3 152/2/3
f 155/3/3 151/3/3 153/3/3
f 156/2/3 155/2/3 154/2/3
f 157/3/3 151/3/3 155/3/3
f 157/2/3 155/2/3 156/2/3
f 158/3/3 151/3/3 157/3/3
f 163/1/3 160/1/3 159/1/3
f 164/1/3 160/1/3 163/1/3
f 165/1/3 162/1/3 161/1/3
f 166/1/3 162/1/3 165/1/3
f 171/3/3 168/3/3 167/3/3
f 172/3/3 168/3/3 171/3/3
f 173/3/3 170/3/3 169/3/3
f 174/3/3 170/3/3 173/3/3
f 181/1/3 178/1/3 177/1/3
f 182/1/3 178/1/3 181/1/3
f 183/1/3 180/1/3 179/1/3
f 184/1/3 180/1/3 183/1/3
f 185/2/3 176/2/3 175/2/3
f 186/2/3 176/2/3 185/2/3
f 189/2/3 188/2/3 187/2/3
f 190/2/3 188/2/3 189/2/3
f 195/3/3 192/3/3 191/3/3
f 196/3/3 192/3/3 195/3/3
f 197/3/3 194/3/3 193/3/3
f 198/3/3 194/3/3 197/3/3
f 203/1/3 200/1/3 199/1/3
f 204/1/3 200/1/3 203/1/3
f 205/1/3 202/1/3 201/1/3
f 206/1/3 202/1/3 205/1/3
f 209/2/3 208/2/3 207/2/3
f 210/2/3 208/2/3 209/2/3
f 213/2/3 212/2/3 211/2/3
f 214/2/3 212/2/3 213/2/3
f 219/3/3 216/3/3 215/3/3
f 220/3/3 216/3/3 219/3/3
f 221/3/3 218/3/3 217/3/3
f 222/3/3 218/3/3 221/3/3
f 223/3/4 224/3/4 227/3/4
f 227/3/4 224/3/4 228/3/4
f 225/3/4 226/3/4 229/3/4
f 229/3/4 226/3/4 230/3/4
f 231/2/4 232/2/4 233/2/4
f 233/2/4 232/2/4 234/2/4
f 235/2/4 236/2/4 237/2/4
f 237/2/4 236/2/4 238/2/4
f 239/1/4 240/1/4 243/1/4
f 243/1/4 240/1/4 244/1/4
f 241/1/4 242/1/4 245/1/4
f 245/1/4 242/1/4 246/1/4
f 247/3/4 248/3/4 251/3/4
f 251/3/4 248/3/4 252/3/4
f 249/3/4 250/3/4 253/3/4
f 253/3/4 250/3/4 254/3/4
f 257/1/4 258/1/4 261/1/4
f 261/1/4 258/1/4 262/1/4
f 259/1/4 260/1/4 263/1/4
f 263/1/4 260/1/4 264/1/4
f 255/2/4 256/2/4 265/2/4
f 265/2/4 256/2/4 266/2/4
f 267/2/4 268/2/4 269/2/4
f 269/2/4 268/2/4 270/2/4
f 271/3/4 272/3/4 275/3/4
f 275/3/4 272/3/4 276/3/4
f 273/3/4 274/3/4 277/3/4
f 277/3/4 274/3/4 278/3/4
f 279/1/4 280/1/4 283/1/4
f 283/1/4 280/1/4 284/1/4
f 281/1/4 282/1/4 285/1/4
f 285/1/4 282/1/4 286/1/4
f 287/2/4 288/2/4 290/2/4
f 288/3/4 289/3/4 291/3/4
f 290/2/4 288/2/4 291/2/4
f 291/3/4 289/3/4 293/3/4
f 292/2/4 293/2/4 294/2/4
f 293/3/4 289/3/4 295/3/4
f 294/2/4 293/2/4 295/2/4
f 295/3/4 289/3/4 296/3/4
f 301/2/5 298/2/5 297/2/5
f 302/2/5 298/2/5 301/2/5
f 303/2/5 300/2/5 299/2/5
f 304/2/5 300/2/5 303/2/5
f 309/2/5 306/2/5 305/2/5
f 310/2/5 306/2/5 309/2/5
f 311/2/5 308/2/5 307/2/5
f 312/2/5 308/2/5 311/2/5
f 317/2/5 314/2/5 313/2/5
f 318/2/5 314/2/5 317/2/5
f 319/2/5 316/2/5 315/2/5
f 320/2/5 316/2/5 319/2/5
f 324/3/5 322/3/5 321/3/5
f 325/3/5 322/3/5 324/3/5
f 327/3/5 324/3/5 323/3/5
f 327/3/5 326/3/5 325/3/5
f 327/3/5 325/3/5 324/3/5
f 328/3/5 326/3/5 327/3/5
f 329/3/5 326/3/5 328/3/5
f 330/3/5 326/3/5 329/3/5
f 332/3/5 329/3/5 328/3/5
f 333/3/5 329/3/5 332/3/5
f 335/3/5 332/3/5 331/3/5
f 335/3/5 334/3/5 333/3/5
f 335/3/5 333/3/5 332/3/5
f 336/3/5 334/3/5 335/3/5
f 337/3/5 334/3/5 336/3/5
f 338/3/5 334/3/5 337/3/5
f 339/3/5 337/3/5 336/3/5
f 340/3/5 337/3/5 339/3/5
f 343/1/5 342/1/5 341/1/5
f 344/1/5 342/1/5 343/1/5
f 347/1/5 346/1/5 345/1/5
f 348/1/5 346/1/5 347/1/5
f 351/1/5 350/1/5 349/1/5
f 352/1/5 350/1/5 351/1/5
f 355/3/5 354/3/5 353/3/5
f 356/3/5 354/3/5 355/3/5
f 359/3/5 358/3/5 357/3/5
f 360/3/5 358/3/5 359/3/5
f 363/3/5 362/3/5 361/3/5
f 364/3/5 362/3/5 363/3/5
f 367/1/5 366/1/5 365/1/5
f 368/1/5 366/1/5 367/1/5
f 371/1/5 370/1/5 369/1/5
f 372/1/5 370/1/5 371/1/5
f 375/1/5 374/1/5 373/1/5
f 376/1/5 374/1/5 375/1/5
f 379/3/5 378/3/5 377/3/5
f 380/3/5 378/3/5 379/3/5
f 383/3/5 382/3/5 381/3/5
f 384/3/5 382/3/5 383/3/5
f 387/3/5 386/3/5 385/3/5
f 388/3/5 386/3/5 387/3/5
f 389/3/6 390/3/6 391/3/6
f 391/3/6 390/3/6 392/3/6
f 393/3/6 394/3/6 395/3/6
f 395/3/6 394/3/6 396/3/6
f 397/3/6 398/3/6 399/3/6
f 399/3/6 398/3/6 400/3/6
f 401/1/6 402/1/6 403/1/6
f 403/1/6 402/1/6 404/1/6
f 405/1/6 406/1/6 407/1/6
f 407/1/6 406/1/6 408/1/6
f 409/1/6 410/1/6 411/1/6
f 411/1/6 410/1/6 412/1/6
f 413/3/6 414/3/6 415/3/6
f 415/3/6 414/3/6 416/3/6
f 417/3/6 418/3/6 419/3/6
f 419/3/6 418/3/6 420/3/6
f 421/3/6 422/3/6 423/3/6
f 423/3/6 422/3/6 424/3/6
f 425/1/6 426/1/6 427/1/6
f 427/1/6 426/1/6 428/1/6
f 429/1/6 430/1/6 431/1/6
f 431/1/6 430/1/6 432/1/6
f 433/1/6 434/1/6 435/1/6
f 435/1/6 434/1/6 436/1/6
f 437/3/6 438/3/6 439/3/6
f 439/3/6 438/3/6 440/3/6
