# MagicaVoxel @ Ephtracy

# group
g Dresser1

# material
mtllib Dresser1.mtl
usemtl palette

# normals
vn -1 0 0
vn 1 0 0
vn 0 0 1
vn 0 0 -1
vn 0 -1 0
vn 0 1 0

# texcoords
vt 0.654297 0.5
vt 0.759766 0.5
vt 0.763672 0.5

# verts
v -5 0 -12
v -5 0 -14
v -5 1 -4
v -5 1 -12
v -5 1 -14
v -5 3 -5
v -5 3 -13
v -5 4 -8
v -5 4 -10
v -5 5 -8
v -5 5 -10
v -5 6 -3
v -5 6 -4
v -5 6 -5
v -5 6 -13
v -5 7 -3
v -5 7 -4
v -5 7 -5
v -5 7 -13
v -5 8 -8
v -5 8 -10
v -5 9 -8
v -5 9 -10
v -5 10 -3
v -5 10 -4
v -5 10 -5
v -5 10 -13
v -5 11 -3
v -5 11 -14
v -4 3 -5
v -4 3 -13
v -4 4 -8
v -4 4 -10
v -4 5 -8
v -4 5 -10
v -4 6 -5
v -4 6 -13
v -4 7 -5
v -4 7 -13
v -4 8 -8
v -4 8 -10
v -4 9 -8
v -4 9 -10
v -4 10 -5
v -4 10 -13
v 3 0 -12
v 3 0 -14
v 3 1 -12
v 3 1 -14
v -4 1 -4
v -4 1 -5
v -4 3 -4
v -4 3 -5
v -4 6 -3
v -4 6 -4
v -4 7 -3
v -4 7 -4
v -3 0 -12
v -3 0 -14
v -3 1 -12
v -3 1 -14
v -3 3 -4
v -3 3 -5
v -3 8 -4
v -3 8 -5
v -3 10 -3
v -3 10 -4
v -3 11 -3
v -3 11 -4
v -2 1 -5
v -2 1 -6
v -2 6 -5
v -2 6 -6
v -2 8 -4
v -2 8 -5
v -2 11 -4
v -2 11 -5
v -1 1 -6
v -1 1 -7
v -1 4 -6
v -1 4 -7
v -1 6 -5
v -1 6 -6
v -1 11 -5
v -1 11 -6
v 0 1 -7
v 0 1 -8
v 0 2 -7
v 0 2 -8
v 0 4 -6
v 0 4 -7
v 0 10 -6
v 0 10 -7
v 1 2 -7
v 1 2 -8
v 1 8 -7
v 1 8 -8
v 1 10 -6
v 1 10 -7
v 1 11 -6
v 1 11 -7
v 2 1 -8
v 2 1 -9
v 2 6 -8
v 2 6 -9
v 2 8 -7
v 2 8 -8
v 2 11 -7
v 2 11 -8
v 3 1 -9
v 3 1 -10
v 3 4 -9
v 3 4 -10
v 3 6 -8
v 3 6 -9
v 3 11 -8
v 3 11 -9
v 4 1 -10
v 4 1 -11
v 4 2 -10
v 4 2 -11
v 4 4 -9
v 4 4 -10
v 4 9 -9
v 4 9 -10
v 5 0 -12
v 5 0 -14
v 5 1 -11
v 5 1 -12
v 5 1 -14
v 5 2 -10
v 5 2 -11
v 5 9 -9
v 5 9 -10
v 5 11 -9
v 5 11 -14
v -5 6 -3
v -5 7 -3
v -5 10 -3
v -5 11 -3
v -4 6 -3
v -4 7 -3
v -3 10 -3
v -3 11 -3
v -5 1 -4
v -5 6 -4
v -5 7 -4
v -5 10 -4
v -4 1 -4
v -4 3 -4
v -4 6 -4
v -4 7 -4
v -3 3 -4
v -3 8 -4
v -3 10 -4
v -3 11 -4
v -2 8 -4
v -2 11 -4
v -4 1 -5
v -4 3 -5
v -3 3 -5
v -3 8 -5
v -2 1 -5
v -2 6 -5
v -2 8 -5
v -2 11 -5
v -1 6 -5
v -1 11 -5
v -2 1 -6
v -2 6 -6
v -1 1 -6
v -1 4 -6
v -1 6 -6
v -1 11 -6
v 0 4 -6
v 0 10 -6
v 1 10 -6
v 1 11 -6
v -1 1 -7
v -1 4 -7
v 0 1 -7
v 0 2 -7
v 0 4 -7
v 0 10 -7
v 1 2 -7
v 1 8 -7
v 1 10 -7
v 1 11 -7
v 2 8 -7
v 2 11 -7
v -5 4 -8
v -5 5 -8
v -5 8 -8
v -5 9 -8
v -4 4 -8
v -4 5 -8
v -4 8 -8
v -4 9 -8
v 0 1 -8
v 0 2 -8
v 1 2 -8
v 1 8 -8
v 2 1 -8
v 2 6 -8
v 2 8 -8
v 2 11 -8
v 3 6 -8
v 3 11 -8
v 2 1 -9
v 2 6 -9
v 3 1 -9
v 3 4 -9
v 3 6 -9
v 3 11 -9
v 4 4 -9
v 4 9 -9
v 5 9 -9
v 5 11 -9
v 3 1 -10
v 3 4 -10
v 4 1 -10
v 4 2 -10
v 4 4 -10
v 4 9 -10
v 5 2 -10
v 5 9 -10
v 4 1 -11
v 4 2 -11
v 5 1 -11
v 5 2 -11
v -5 0 -12
v -5 1 -12
v -3 0 -12
v -3 1 -12
v 3 0 -12
v 3 1 -12
v 5 0 -12
v 5 1 -12
v -5 3 -13
v -5 6 -13
v -5 7 -13
v -5 10 -13
v -4 3 -13
v -4 6 -13
v -4 7 -13
v -4 10 -13
v -5 3 -5
v -5 6 -5
v -5 7 -5
v -5 10 -5
v -4 3 -5
v -4 6 -5
v -4 7 -5
v -4 10 -5
v -5 4 -10
v -5 5 -10
v -5 8 -10
v -5 9 -10
v -4 4 -10
v -4 5 -10
v -4 8 -10
v -4 9 -10
v -5 0 -14
v -5 1 -14
v -5 11 -14
v -3 0 -14
v -3 1 -14
v 3 0 -14
v 3 1 -14
v 5 0 -14
v 5 1 -14
v 5 11 -14
v -5 0 -12
v -3 0 -12
v 3 0 -12
v 5 0 -12
v -5 0 -14
v -3 0 -14
v 3 0 -14
v 5 0 -14
v -5 1 -4
v -4 1 -4
v -4 1 -5
v -2 1 -5
v -2 1 -6
v -1 1 -6
v -1 1 -7
v 0 1 -7
v 0 1 -8
v 2 1 -8
v 2 1 -9
v 3 1 -9
v 3 1 -10
v 4 1 -10
v 4 1 -11
v 5 1 -11
v -5 1 -12
v -3 1 -12
v 3 1 -12
v 5 1 -12
v -3 1 -14
v 3 1 -14
v 0 2 -7
v 1 2 -7
v 0 2 -8
v 1 2 -8
v 4 2 -10
v 5 2 -10
v 4 2 -11
v 5 2 -11
v -4 3 -4
v -3 3 -4
v -4 3 -5
v -3 3 -5
v -1 4 -6
v 0 4 -6
v -1 4 -7
v 0 4 -7
v -5 4 -8
v -4 4 -8
v 3 4 -9
v 4 4 -9
v -5 4 -10
v -4 4 -10
v 3 4 -10
v 4 4 -10
v -5 6 -3
v -4 6 -3
v -5 6 -4
v -4 6 -4
v -5 6 -5
v -4 6 -5
v -2 6 -5
v -1 6 -5
v -2 6 -6
v -1 6 -6
v 2 6 -8
v 3 6 -8
v 2 6 -9
v 3 6 -9
v -5 6 -13
v -4 6 -13
v -3 8 -4
v -2 8 -4
v -3 8 -5
v -2 8 -5
v 1 8 -7
v 2 8 -7
v -5 8 -8
v -4 8 -8
v 1 8 -8
v 2 8 -8
v -5 8 -10
v -4 8 -10
v 4 9 -9
v 5 9 -9
v 4 9 -10
v 5 9 -10
v -5 10 -3
v -3 10 -3
v -5 10 -4
v -3 10 -4
v -5 10 -5
v -4 10 -5
v 0 10 -6
v 1 10 -6
v 0 10 -7
v 1 10 -7
v -5 10 -13
v -4 10 -13
v -5 3 -5
v -4 3 -5
v -5 3 -13
v -4 3 -13
v -5 5 -8
v -4 5 -8
v -5 5 -10
v -4 5 -10
v -5 7 -3
v -4 7 -3
v -5 7 -4
v -4 7 -4
v -5 7 -5
v -4 7 -5
v -5 7 -13
v -4 7 -13
v -5 9 -8
v -4 9 -8
v -5 9 -10
v -4 9 -10
v -5 11 -3
v -3 11 -3
v -3 11 -4
v -2 11 -4
v -2 11 -5
v -1 11 -5
v -1 11 -6
v 1 11 -6
v 1 11 -7
v 2 11 -7
v 2 11 -8
v 3 11 -8
v 3 11 -9
v 5 11 -9
v -5 11 -14
v 5 11 -14

# faces
f 4/2/1 2/2/1 1/2/1
f 5/2/1 2/2/1 4/2/1
f 6/3/1 4/3/1 3/3/1
f 6/3/1 5/3/1 4/3/1
f 7/3/1 5/3/1 6/3/1
f 10/1/1 9/1/1 8/1/1
f 11/1/1 9/1/1 10/1/1
f 13/3/1 6/3/1 3/3/1
f 14/3/1 6/3/1 13/3/1
f 15/3/1 5/3/1 7/3/1
f 16/3/1 14/3/1 13/3/1
f 16/3/1 15/3/1 14/3/1
f 16/3/1 13/3/1 12/3/1
f 17/3/1 15/3/1 16/3/1
f 18/3/1 15/3/1 17/3/1
f 19/3/1 5/3/1 15/3/1
f 19/3/1 15/3/1 18/3/1
f 22/1/1 21/1/1 20/1/1
f 23/1/1 21/1/1 22/1/1
f 25/3/1 18/3/1 17/3/1
f 26/3/1 18/3/1 25/3/1
f 27/3/1 5/3/1 19/3/1
f 28/3/1 26/3/1 25/3/1
f 28/3/1 27/3/1 26/3/1
f 28/3/1 25/3/1 24/3/1
f 29/3/1 5/3/1 27/3/1
f 29/3/1 27/3/1 28/3/1
f 32/3/1 31/3/1 30/3/1
f 33/3/1 31/3/1 32/3/1
f 34/3/1 32/3/1 30/3/1
f 35/3/1 31/3/1 33/3/1
f 36/3/1 34/3/1 30/3/1
f 36/3/1 35/3/1 34/3/1
f 37/3/1 31/3/1 35/3/1
f 37/3/1 35/3/1 36/3/1
f 40/3/1 39/3/1 38/3/1
f 41/3/1 39/3/1 40/3/1
f 42/3/1 40/3/1 38/3/1
f 43/3/1 39/3/1 41/3/1
f 44/3/1 42/3/1 38/3/1
f 44/3/1 43/3/1 42/3/1
f 45/3/1 39/3/1 43/3/1
f 45/3/1 43/3/1 44/3/1
f 48/2/1 47/2/1 46/2/1
f 49/2/1 47/2/1 48/2/1
f 50/3/2 51/3/2 52/3/2
f 52/3/2 51/3/2 53/3/2
f 54/3/2 55/3/2 56/3/2
f 56/3/2 55/3/2 57/3/2
f 58/2/2 59/2/2 60/2/2
f 60/2/2 59/2/2 61/2/2
f 62/3/2 63/3/2 64/3/2
f 64/3/2 63/3/2 65/3/2
f 66/3/2 67/3/2 68/3/2
f 68/3/2 67/3/2 69/3/2
f 70/3/2 71/3/2 72/3/2
f 72/3/2 71/3/2 73/3/2
f 74/3/2 75/3/2 76/3/2
f 76/3/2 75/3/2 77/3/2
f 78/3/2 79/3/2 80/3/2
f 80/3/2 79/3/2 81/3/2
f 82/3/2 83/3/2 84/3/2
f 84/3/2 83/3/2 85/3/2
f 86/3/2 87/3/2 88/3/2
f 88/3/2 87/3/2 89/3/2
f 90/3/2 91/3/2 92/3/2
f 92/3/2 91/3/2 93/3/2
f 94/3/2 95/3/2 96/3/2
f 96/3/2 95/3/2 97/3/2
f 98/3/2 99/3/2 100/3/2
f 100/3/2 99/3/2 101/3/2
f 102/3/2 103/3/2 104/3/2
f 104/3/2 103/3/2 105/3/2
f 106/3/2 107/3/2 108/3/2
f 108/3/2 107/3/2 109/3/2
f 110/3/2 111/3/2 112/3/2
f 112/3/2 111/3/2 113/3/2
f 114/3/2 115/3/2 116/3/2
f 116/3/2 115/3/2 117/3/2
f 118/3/2 119/3/2 120/3/2
f 120/3/2 119/3/2 121/3/2
f 122/3/2 123/3/2 124/3/2
f 124/3/2 123/3/2 125/3/2
f 126/2/2 127/2/2 129/2/2
f 129/2/2 127/2/2 130/2/2
f 128/3/2 129/3/2 132/3/2
f 129/3/2 130/3/2 132/3/2
f 131/3/2 132/3/2 134/3/2
f 133/3/2 134/3/2 135/3/2
f 132/3/2 130/3/2 136/3/2
f 135/3/2 134/3/2 136/3/2
f 134/3/2 132/3/2 136/3/2
f 141/3/3 138/3/3 137/3/3
f 142/3/3 138/3/3 141/3/3
f 143/3/3 140/3/3 139/3/3
f 144/3/3 140/3/3 143/3/3
f 149/3/3 146/3/3 145/3/3
f 150/3/3 146/3/3 149/3/3
f 151/3/3 146/3/3 150/3/3
f 152/3/3 148/3/3 147/3/3
f 153/3/3 151/3/3 150/3/3
f 153/3/3 152/3/3 151/3/3
f 154/3/3 148/3/3 152/3/3
f 154/3/3 152/3/3 153/3/3
f 155/3/3 148/3/3 154/3/3
f 157/3/3 156/3/3 155/3/3
f 157/3/3 155/3/3 154/3/3
f 158/3/3 156/3/3 157/3/3
f 161/3/3 160/3/3 159/3/3
f 163/3/3 161/3/3 159/3/3
f 163/3/3 162/3/3 161/3/3
f 164/3/3 162/3/3 163/3/3
f 165/3/3 162/3/3 164/3/3
f 167/3/3 166/3/3 165/3/3
f 167/3/3 165/3/3 164/3/3
f 168/3/3 166/3/3 167/3/3
f 171/3/3 170/3/3 169/3/3
f 172/3/3 170/3/3 171/3/3
f 173/3/3 170/3/3 172/3/3
f 175/3/3 174/3/3 173/3/3
f 175/3/3 173/3/3 172/3/3
f 176/3/3 174/3/3 175/3/3
f 177/3/3 174/3/3 176/3/3
f 178/3/3 174/3/3 177/3/3
f 181/3/3 180/3/3 179/3/3
f 182/3/3 180/3/3 181/3/3
f 183/3/3 180/3/3 182/3/3
f 185/3/3 184/3/3 183/3/3
f 185/3/3 183/3/3 182/3/3
f 186/3/3 184/3/3 185/3/3
f 187/3/3 184/3/3 186/3/3
f 189/3/3 188/3/3 187/3/3
f 189/3/3 187/3/3 186/3/3
f 190/3/3 188/3/3 189/3/3
f 195/1/3 192/1/3 191/1/3
f 196/1/3 192/1/3 195/1/3
f 197/1/3 194/1/3 193/1/3
f 198/1/3 194/1/3 197/1/3
f 201/3/3 200/3/3 199/3/3
f 203/3/3 201/3/3 199/3/3
f 203/3/3 202/3/3 201/3/3
f 204/3/3 202/3/3 203/3/3
f 205/3/3 202/3/3 204/3/3
f 207/3/3 205/3/3 204/3/3
f 207/3/3 206/3/3 205/3/3
f 208/3/3 206/3/3 207/3/3
f 211/3/3 210/3/3 209/3/3
f 212/3/3 210/3/3 211/3/3
f 213/3/3 210/3/3 212/3/3
f 215/3/3 214/3/3 213/3/3
f 215/3/3 213/3/3 212/3/3
f 216/3/3 214/3/3 215/3/3
f 217/3/3 214/3/3 216/3/3
f 218/3/3 214/3/3 217/3/3
f 221/3/3 220/3/3 219/3/3
f 222/3/3 220/3/3 221/3/3
f 223/3/3 220/3/3 222/3/3
f 225/3/3 224/3/3 223/3/3
f 225/3/3 223/3/3 222/3/3
f 226/3/3 224/3/3 225/3/3
f 229/3/3 228/3/3 227/3/3
f 230/3/3 228/3/3 229/3/3
f 233/2/3 232/2/3 231/2/3
f 234/2/3 232/2/3 233/2/3
f 237/2/3 236/2/3 235/2/3
f 238/2/3 236/2/3 237/2/3
f 243/3/3 240/3/3 239/3/3
f 244/3/3 240/3/3 243/3/3
f 245/3/3 242/3/3 241/3/3
f 246/3/3 242/3/3 245/3/3
f 247/3/4 248/3/4 251/3/4
f 251/3/4 248/3/4 252/3/4
f 249/3/4 250/3/4 253/3/4
f 253/3/4 250/3/4 254/3/4
f 255/1/4 256/1/4 259/1/4
f 259/1/4 256/1/4 260/1/4
f 257/1/4 258/1/4 261/1/4
f 261/1/4 258/1/4 262/1/4
f 263/2/4 264/2/4 266/2/4
f 264/3/4 265/3/4 267/3/4
f 266/2/4 264/2/4 267/2/4
f 267/3/4 265/3/4 269/3/4
f 268/2/4 269/2/4 270/2/4
f 269/3/4 265/3/4 271/3/4
f 270/2/4 269/2/4 271/2/4
f 271/3/4 265/3/4 272/3/4
f 277/2/5 274/2/5 273/2/5
f 278/2/5 274/2/5 277/2/5
f 279/2/5 276/2/5 275/2/5
f 280/2/5 276/2/5 279/2/5
f 283/3/5 282/3/5 281/3/5
f 285/3/5 284/3/5 283/3/5
f 287/3/5 286/3/5 285/3/5
f 289/3/5 288/3/5 287/3/5
f 291/3/5 290/3/5 289/3/5
f 293/3/5 292/3/5 291/3/5
f 295/3/5 294/3/5 293/3/5
f 297/3/5 283/3/5 281/3/5
f 297/3/5 296/3/5 295/3/5
f 297/3/5 295/3/5 293/3/5
f 297/3/5 293/3/5 291/3/5
f 297/3/5 291/3/5 289/3/5
f 297/3/5 289/3/5 287/3/5
f 297/3/5 287/3/5 285/3/5
f 297/3/5 285/3/5 283/3/5
f 298/3/5 296/3/5 297/3/5
f 299/3/5 296/3/5 298/3/5
f 300/3/5 296/3/5 299/3/5
f 301/3/5 299/3/5 298/3/5
f 302/3/5 299/3/5 301/3/5
f 305/3/5 304/3/5 303/3/5
f 306/3/5 304/3/5 305/3/5
f 309/3/5 308/3/5 307/3/5
f 310/3/5 308/3/5 309/3/5
f 313/3/5 312/3/5 311/3/5
f 314/3/5 312/3/5 313/3/5
f 317/3/5 316/3/5 315/3/5
f 318/3/5 316/3/5 317/3/5
f 323/1/5 320/1/5 319/1/5
f 324/1/5 320/1/5 323/1/5
f 325/3/5 322/3/5 321/3/5
f 326/3/5 322/3/5 325/3/5
f 329/3/5 328/3/5 327/3/5
f 330/3/5 328/3/5 329/3/5
f 335/3/5 334/3/5 333/3/5
f 336/3/5 334/3/5 335/3/5
f 339/3/5 338/3/5 337/3/5
f 340/3/5 338/3/5 339/3/5
f 341/3/5 332/3/5 331/3/5
f 342/3/5 332/3/5 341/3/5
f 345/3/5 344/3/5 343/3/5
f 346/3/5 344/3/5 345/3/5
f 351/3/5 348/3/5 347/3/5
f 352/3/5 348/3/5 351/3/5
f 353/1/5 350/1/5 349/1/5
f 354/1/5 350/1/5 353/1/5
f 357/3/5 356/3/5 355/3/5
f 358/3/5 356/3/5 357/3/5
f 361/3/5 360/3/5 359/3/5
f 362/3/5 360/3/5 361/3/5
f 367/3/5 366/3/5 365/3/5
f 368/3/5 366/3/5 367/3/5
f 369/3/5 364/3/5 363/3/5
f 370/3/5 364/3/5 369/3/5
f 371/3/6 372/3/6 373/3/6
f 373/3/6 372/3/6 374/3/6
f 375/1/6 376/1/6 377/1/6
f 377/1/6 376/1/6 378/1/6
f 379/3/6 380/3/6 381/3/6
f 381/3/6 380/3/6 382/3/6
f 383/3/6 384/3/6 385/3/6
f 385/3/6 384/3/6 386/3/6
f 387/1/6 388/1/6 389/1/6
f 389/1/6 388/1/6 390/1/6
f 391/3/6 392/3/6 393/3/6
f 393/3/6 394/3/6 395/3/6
f 395/3/6 396/3/6 397/3/6
f 397/3/6 398/3/6 399/3/6
f 399/3/6 400/3/6 401/3/6
f 401/3/6 402/3/6 403/3/6
f 391/3/6 393/3/6 405/3/6
f 403/3/6 404/3/6 405/3/6
f 401/3/6 403/3/6 405/3/6
f 399/3/6 401/3/6 405/3/6
f 397/3/6 399/3/6 405/3/6
f 395/3/6 397/3/6 405/3/6
f 393/3/6 395/3/6 405/3/6
f 405/3/6 404/3/6 406/3/6
