# MagicaVoxel @ Ephtracy

# group
g RubixCube2

# material
mtllib RubixCube2.mtl
usemtl palette

# normals
vn -1 0 0
vn 1 0 0
vn 0 0 1
vn 0 0 -1
vn 0 -1 0
vn 0 1 0

# texcoords
vt 0.654297 0.5
vt 0.701172 0.5
vt 0.708984 0.5
vt 0.716797 0.5
vt 0.814453 0.5
vt 0.845703 0.5
vt 0.935547 0.5

# verts
v -1.5 0 -0.5
v -1.5 0 -1.5
v -1.5 1 -0.5
v -1.5 1 -1.5
v -1.5 2 -0.5
v -1.5 2 -1.5
v -1.5 3 -0.5
v -1.5 3 -1.5
v -0.5 0 1.5
v -0.5 0 0.5
v -0.5 0 -0.5
v -0.5 1 1.5
v -0.5 1 0.5
v -0.5 1 -0.5
v -0.5 2 1.5
v -0.5 2 0.5
v -0.5 2 -0.5
v -0.5 3 1.5
v -0.5 3 0.5
v -0.5 3 -0.5
v 1.5 0 1.5
v 1.5 0 0.5
v 1.5 0 -0.5
v 1.5 0 -1.5
v 1.5 1 1.5
v 1.5 1 0.5
v 1.5 1 -0.5
v 1.5 1 -1.5
v 1.5 2 1.5
v 1.5 2 0.5
v 1.5 2 -0.5
v 1.5 2 -1.5
v 1.5 3 1.5
v 1.5 3 0.5
v 1.5 3 -0.5
v 1.5 3 -1.5
v -0.5 0 1.5
v -0.5 1 1.5
v -0.5 2 1.5
v -0.5 3 1.5
v 0.5 0 1.5
v 0.5 1 1.5
v 0.5 2 1.5
v 0.5 3 1.5
v 1.5 0 1.5
v 1.5 1 1.5
v 1.5 2 1.5
v 1.5 3 1.5
v -1.5 0 -0.5
v -1.5 1 -0.5
v -1.5 2 -0.5
v -1.5 3 -0.5
v -0.5 0 -0.5
v -0.5 1 -0.5
v -0.5 2 -0.5
v -0.5 3 -0.5
v -1.5 0 -1.5
v -1.5 1 -1.5
v -1.5 2 -1.5
v -1.5 3 -1.5
v -0.5 0 -1.5
v -0.5 1 -1.5
v -0.5 2 -1.5
v -0.5 3 -1.5
v 0.5 0 -1.5
v 0.5 1 -1.5
v 0.5 2 -1.5
v 0.5 3 -1.5
v 1.5 0 -1.5
v 1.5 1 -1.5
v 1.5 2 -1.5
v 1.5 3 -1.5
v -0.5 0 1.5
v 0.5 0 1.5
v 1.5 0 1.5
v -0.5 0 0.5
v 0.5 0 0.5
v 1.5 0 0.5
v -1.5 0 -0.5
v -0.5 0 -0.5
v 0.5 0 -0.5
v 1.5 0 -0.5
v -1.5 0 -1.5
v -0.5 0 -1.5
v 0.5 0 -1.5
v 1.5 0 -1.5
v -0.5 3 1.5
v 0.5 3 1.5
v 1.5 3 1.5
v -0.5 3 0.5
v 0.5 3 0.5
v 1.5 3 0.5
v -1.5 3 -0.5
v -0.5 3 -0.5
v 0.5 3 -0.5
v 1.5 3 -0.5
v -1.5 3 -1.5
v -0.5 3 -1.5
v 0.5 3 -1.5
v 1.5 3 -1.5

# faces
f 3/2/1 2/2/1 1/2/1
f 4/2/1 2/2/1 3/2/1
f 5/4/1 4/4/1 3/4/1
f 6/4/1 4/4/1 5/4/1
f 7/1/1 6/1/1 5/1/1
f 8/1/1 6/1/1 7/1/1
f 12/5/1 10/5/1 9/5/1
f 13/3/1 11/3/1 10/3/1
f 13/5/1 10/5/1 12/5/1
f 14/3/1 11/3/1 13/3/1
f 15/2/1 13/2/1 12/2/1
f 16/3/1 14/3/1 13/3/1
f 16/2/1 13/2/1 15/2/1
f 17/3/1 14/3/1 16/3/1
f 18/5/1 16/5/1 15/5/1
f 19/7/1 17/7/1 16/7/1
f 19/5/1 16/5/1 18/5/1
f 20/7/1 17/7/1 19/7/1
f 21/4/2 22/4/2 25/4/2
f 22/6/2 23/6/2 26/6/2
f 25/4/2 22/4/2 26/4/2
f 23/7/2 24/7/2 27/7/2
f 26/6/2 23/6/2 27/6/2
f 27/7/2 24/7/2 28/7/2
f 25/1/2 26/1/2 29/1/2
f 26/5/2 27/5/2 30/5/2
f 29/1/2 26/1/2 30/1/2
f 27/2/2 28/2/2 31/2/2
f 30/5/2 27/5/2 31/5/2
f 31/2/2 28/2/2 32/2/2
f 29/7/2 30/7/2 33/7/2
f 30/2/2 31/2/2 34/2/2
f 33/7/2 30/7/2 34/7/2
f 31/5/2 32/5/2 35/5/2
f 34/2/2 31/2/2 35/2/2
f 35/5/2 32/5/2 36/5/2
f 41/5/3 38/5/3 37/5/3
f 42/2/3 39/2/3 38/2/3
f 42/5/3 38/5/3 41/5/3
f 43/5/3 40/5/3 39/5/3
f 43/2/3 39/2/3 42/2/3
f 44/5/3 40/5/3 43/5/3
f 45/4/3 42/4/3 41/4/3
f 46/1/3 43/1/3 42/1/3
f 46/4/3 42/4/3 45/4/3
f 47/7/3 44/7/3 43/7/3
f 47/1/3 43/1/3 46/1/3
f 48/7/3 44/7/3 47/7/3
f 53/2/3 50/2/3 49/2/3
f 54/4/3 51/4/3 50/4/3
f 54/2/3 50/2/3 53/2/3
f 55/1/3 52/1/3 51/1/3
f 55/4/3 51/4/3 54/4/3
f 56/1/3 52/1/3 55/1/3
f 57/2/4 58/2/4 61/2/4
f 58/4/4 59/4/4 62/4/4
f 61/2/4 58/2/4 62/2/4
f 59/1/4 60/1/4 63/1/4
f 62/4/4 59/4/4 63/4/4
f 63/1/4 60/1/4 64/1/4
f 61/5/4 62/5/4 65/5/4
f 62/6/4 63/6/4 66/6/4
f 65/5/4 62/5/4 66/5/4
f 63/4/4 64/4/4 67/4/4
f 66/6/4 63/6/4 67/6/4
f 67/4/4 64/4/4 68/4/4
f 65/7/4 66/7/4 69/7/4
f 66/2/4 67/2/4 70/2/4
f 69/7/4 66/7/4 70/7/4
f 67/5/4 68/5/4 71/5/4
f 70/2/4 67/2/4 71/2/4
f 71/5/4 68/5/4 72/5/4
f 76/5/5 74/5/5 73/5/5
f 77/4/5 75/4/5 74/4/5
f 77/5/5 74/5/5 76/5/5
f 78/4/5 75/4/5 77/4/5
f 80/3/5 77/3/5 76/3/5
f 81/6/5 78/6/5 77/6/5
f 81/3/5 77/3/5 80/3/5
f 82/6/5 78/6/5 81/6/5
f 83/2/5 80/2/5 79/2/5
f 84/5/5 81/5/5 80/5/5
f 84/2/5 80/2/5 83/2/5
f 85/7/5 82/7/5 81/7/5
f 85/5/5 81/5/5 84/5/5
f 86/7/5 82/7/5 85/7/5
f 87/5/6 88/5/6 90/5/6
f 88/7/6 89/7/6 91/7/6
f 90/5/6 88/5/6 91/5/6
f 91/7/6 89/7/6 92/7/6
f 90/7/6 91/7/6 94/7/6
f 91/2/6 92/2/6 95/2/6
f 94/7/6 91/7/6 95/7/6
f 95/2/6 92/2/6 96/2/6
f 93/1/6 94/1/6 97/1/6
f 94/4/6 95/4/6 98/4/6
f 97/1/6 94/1/6 98/1/6
f 95/5/6 96/5/6 99/5/6
f 98/4/6 95/4/6 99/4/6
f 99/5/6 96/5/6 100/5/6
