# MagicaVoxel @ Ephtracy

# group
g RubixCube1

# material
mtllib RubixCube1.mtl
usemtl palette

# normals
vn -1 0 0
vn 1 0 0
vn 0 0 1
vn 0 0 -1
vn 0 -1 0
vn 0 1 0

# texcoords
vt 0.654297 0.5
vt 0.708984 0.5
vt 0.716797 0.5
vt 0.845703 0.5
vt 0.935547 0.5

# verts
v -1.5 0 1.5
v -1.5 0 0.5
v -1.5 0 -0.5
v -1.5 1 1.5
v -1.5 1 0.5
v -1.5 1 -0.5
v -1.5 2 1.5
v -1.5 2 0.5
v -1.5 2 -0.5
v -1.5 3 1.5
v -1.5 3 0.5
v -1.5 3 -0.5
v -0.5 0 1.5
v -0.5 0 0.5
v -0.5 0 -0.5
v -0.5 1 1.5
v -0.5 1 0.5
v -0.5 1 -0.5
v -0.5 2 1.5
v -0.5 2 0.5
v -0.5 2 -0.5
v -0.5 3 1.5
v -0.5 3 0.5
v -0.5 3 -0.5
v -1.5 0 1.5
v -1.5 1 1.5
v -1.5 2 1.5
v -1.5 3 1.5
v -0.5 0 1.5
v -0.5 1 1.5
v -0.5 2 1.5
v -0.5 3 1.5
v -1.5 0 -0.5
v -1.5 1 -0.5
v -1.5 2 -0.5
v -1.5 3 -0.5
v -0.5 0 -0.5
v -0.5 1 -0.5
v -0.5 2 -0.5
v -0.5 3 -0.5
v -1.5 0 1.5
v -0.5 0 1.5
v -1.5 0 0.5
v -0.5 0 0.5
v -1.5 0 -0.5
v -0.5 0 -0.5
v -1.5 3 1.5
v -0.5 3 1.5
v -1.5 3 0.5
v -0.5 3 0.5
v -1.5 3 -0.5
v -0.5 3 -0.5

# faces
f 4/1/1 2/1/1 1/1/1
f 5/4/1 3/4/1 2/4/1
f 5/1/1 2/1/1 4/1/1
f 6/4/1 3/4/1 5/4/1
f 7/2/1 5/2/1 4/2/1
f 8/5/1 6/5/1 5/5/1
f 8/2/1 5/2/1 7/2/1
f 9/5/1 6/5/1 8/5/1
f 10/3/1 8/3/1 7/3/1
f 11/4/1 9/4/1 8/4/1
f 11/3/1 8/3/1 10/3/1
f 12/4/1 9/4/1 11/4/1
f 13/1/2 14/1/2 16/1/2
f 14/4/2 15/4/2 17/4/2
f 16/1/2 14/1/2 17/1/2
f 17/4/2 15/4/2 18/4/2
f 16/2/2 17/2/2 19/2/2
f 17/5/2 18/5/2 20/5/2
f 19/2/2 17/2/2 20/2/2
f 20/5/2 18/5/2 21/5/2
f 19/3/2 20/3/2 22/3/2
f 20/4/2 21/4/2 23/4/2
f 22/3/2 20/3/2 23/3/2
f 23/4/2 21/4/2 24/4/2
f 29/1/3 26/1/3 25/1/3
f 30/2/3 27/2/3 26/2/3
f 30/1/3 26/1/3 29/1/3
f 31/3/3 28/3/3 27/3/3
f 31/2/3 27/2/3 30/2/3
f 32/3/3 28/3/3 31/3/3
f 33/4/4 34/4/4 37/4/4
f 34/5/4 35/5/4 38/5/4
f 37/4/4 34/4/4 38/4/4
f 35/4/4 36/4/4 39/4/4
f 38/5/4 35/5/4 39/5/4
f 39/4/4 36/4/4 40/4/4
f 43/1/5 42/1/5 41/1/5
f 44/1/5 42/1/5 43/1/5
f 45/4/5 44/4/5 43/4/5
f 46/4/5 44/4/5 45/4/5
f 47/3/6 48/3/6 49/3/6
f 49/3/6 48/3/6 50/3/6
f 49/4/6 50/4/6 51/4/6
f 51/4/6 50/4/6 52/4/6
