# MagicaVoxel @ Ephtracy

# group
g Computer2

# material
mtllib Computer2.mtl
usemtl palette

# normals
vn -1 0 0
vn 1 0 0
vn 0 0 1
vn 0 0 -1
vn 0 -1 0
vn 0 1 0

# texcoords
vt 0.912109 0.5
vt 0.958984 0.5
vt 0.966797 0.5

# verts
v -0.5 9 -2
v -0.5 9 -7
v -0.5 9 -8
v -0.5 10 4
v -0.5 10 -2
v -0.5 11 8
v -0.5 11 7
v -0.5 11 4
v -0.5 14 7
v -0.5 14 1
v -0.5 14 -1
v -0.5 14 -7
v -0.5 15 8
v -0.5 15 1
v -0.5 15 -1
v -0.5 15 -8
v 0.5 9 -2
v 0.5 9 -7
v 0.5 9 -8
v 0.5 10 4
v 0.5 10 -2
v 0.5 11 8
v 0.5 11 7
v 0.5 11 4
v 0.5 14 7
v 0.5 14 1
v 0.5 14 -1
v 0.5 14 -7
v 0.5 15 8
v 0.5 15 1
v 0.5 15 -1
v 0.5 15 -8
v -0.5 11 8
v -0.5 15 8
v 0.5 11 8
v 0.5 15 8
v -0.5 10 4
v -0.5 11 4
v 0.5 10 4
v 0.5 11 4
v -0.5 9 -2
v -0.5 10 -2
v 0.5 9 -2
v 0.5 10 -2
v -0.5 9 -8
v -0.5 15 -8
v 0.5 9 -8
v 0.5 15 -8
v -0.5 9 -2
v 0.5 9 -2
v -0.5 9 -7
v 0.5 9 -7
v -0.5 9 -8
v 0.5 9 -8
v -0.5 10 4
v 0.5 10 4
v -0.5 10 -2
v 0.5 10 -2
v -0.5 11 8
v 0.5 11 8
v -0.5 11 7
v 0.5 11 7
v -0.5 11 4
v 0.5 11 4
v -0.5 15 8
v 0.5 15 8
v -0.5 15 1
v 0.5 15 1
v -0.5 15 -1
v 0.5 15 -1
v -0.5 15 -8
v 0.5 15 -8

# faces
f 5/2/1 2/2/1 1/2/1
f 8/2/1 5/2/1 4/2/1
f 9/3/1 7/3/1 6/3/1
f 9/2/1 8/2/1 7/2/1
f 10/2/1 5/2/1 8/2/1
f 10/2/1 8/2/1 9/2/1
f 11/2/1 5/2/1 10/2/1
f 12/3/1 3/3/1 2/3/1
f 12/2/1 5/2/1 11/2/1
f 12/2/1 2/2/1 5/2/1
f 13/3/1 10/3/1 9/3/1
f 13/3/1 9/3/1 6/3/1
f 14/1/1 11/1/1 10/1/1
f 14/3/1 10/3/1 13/3/1
f 15/3/1 12/3/1 11/3/1
f 15/1/1 11/1/1 14/1/1
f 16/3/1 3/3/1 12/3/1
f 16/3/1 12/3/1 15/3/1
f 17/2/2 18/2/2 21/2/2
f 20/2/2 21/2/2 24/2/2
f 22/3/2 23/3/2 25/3/2
f 23/2/2 24/2/2 25/2/2
f 24/2/2 21/2/2 26/2/2
f 25/2/2 24/2/2 26/2/2
f 26/2/2 21/2/2 27/2/2
f 18/3/2 19/3/2 28/3/2
f 27/2/2 21/2/2 28/2/2
f 21/2/2 18/2/2 28/2/2
f 25/3/2 26/3/2 29/3/2
f 22/3/2 25/3/2 29/3/2
f 26/1/2 27/1/2 30/1/2
f 29/3/2 26/3/2 30/3/2
f 27/3/2 28/3/2 31/3/2
f 30/1/2 27/1/2 31/1/2
f 28/3/2 19/3/2 32/3/2
f 31/3/2 28/3/2 32/3/2
f 35/3/3 34/3/3 33/3/3
f 36/3/3 34/3/3 35/3/3
f 39/2/3 38/2/3 37/2/3
f 40/2/3 38/2/3 39/2/3
f 43/2/3 42/2/3 41/2/3
f 44/2/3 42/2/3 43/2/3
f 45/3/4 46/3/4 47/3/4
f 47/3/4 46/3/4 48/3/4
f 51/2/5 50/2/5 49/2/5
f 52/2/5 50/2/5 51/2/5
f 53/3/5 52/3/5 51/3/5
f 54/3/5 52/3/5 53/3/5
f 57/2/5 56/2/5 55/2/5
f 58/2/5 56/2/5 57/2/5
f 61/3/5 60/3/5 59/3/5
f 62/3/5 60/3/5 61/3/5
f 63/2/5 62/2/5 61/2/5
f 64/2/5 62/2/5 63/2/5
f 65/3/6 66/3/6 67/3/6
f 67/3/6 66/3/6 68/3/6
f 67/1/6 68/1/6 69/1/6
f 69/1/6 68/1/6 70/1/6
f 69/3/6 70/3/6 71/3/6
f 71/3/6 70/3/6 72/3/6
