# MagicaVoxel @ Ephtracy

# group
g Computer1

# material
mtllib Computer1.mtl
usemtl palette

# normals
vn -1 0 0
vn 1 0 0
vn 0 0 1
vn 0 0 -1
vn 0 -1 0
vn 0 1 0

# texcoords
vt 0.912109 0.5
vt 0.958984 0.5
vt 0.966797 0.5

# verts
v -0.5 2 3
v -0.5 2 -3
v -0.5 3 3
v -0.5 3 1
v -0.5 3 -1
v -0.5 3 -3
v -0.5 5 8
v -0.5 5 1
v -0.5 5 -1
v -0.5 5 -4
v -0.5 5 -6
v -0.5 5 -8
v -0.5 6 7
v -0.5 6 -4
v -0.5 6 -6
v -0.5 6 -7
v -0.5 9 -2
v -0.5 9 -7
v -0.5 9 -8
v -0.5 10 4
v -0.5 10 -2
v -0.5 11 8
v -0.5 11 7
v -0.5 11 4
v 0.5 2 3
v 0.5 2 -3
v 0.5 3 3
v 0.5 3 1
v 0.5 3 -1
v 0.5 3 -3
v 0.5 5 8
v 0.5 5 1
v 0.5 5 -1
v 0.5 5 -4
v 0.5 5 -6
v 0.5 5 -8
v 0.5 6 7
v 0.5 6 -4
v 0.5 6 -6
v 0.5 6 -7
v 0.5 9 -2
v 0.5 9 -7
v 0.5 9 -8
v 0.5 10 4
v 0.5 10 -2
v 0.5 11 8
v 0.5 11 7
v 0.5 11 4
v -0.5 5 8
v -0.5 11 8
v 0.5 5 8
v 0.5 11 8
v -0.5 2 3
v -0.5 3 3
v 0.5 2 3
v 0.5 3 3
v -0.5 3 1
v -0.5 5 1
v 0.5 3 1
v 0.5 5 1
v -0.5 10 4
v -0.5 11 4
v 0.5 10 4
v 0.5 11 4
v -0.5 3 -1
v -0.5 5 -1
v 0.5 3 -1
v 0.5 5 -1
v -0.5 9 -2
v -0.5 10 -2
v 0.5 9 -2
v 0.5 10 -2
v -0.5 2 -3
v -0.5 3 -3
v 0.5 2 -3
v 0.5 3 -3
v -0.5 5 -8
v -0.5 9 -8
v 0.5 5 -8
v 0.5 9 -8
v -0.5 2 3
v 0.5 2 3
v -0.5 2 -3
v 0.5 2 -3
v -0.5 5 8
v 0.5 5 8
v -0.5 5 1
v 0.5 5 1
v -0.5 5 -1
v 0.5 5 -1
v -0.5 5 -4
v 0.5 5 -4
v -0.5 5 -6
v 0.5 5 -6
v -0.5 5 -8
v 0.5 5 -8
v -0.5 3 3
v 0.5 3 3
v -0.5 3 1
v 0.5 3 1
v -0.5 3 -1
v 0.5 3 -1
v -0.5 3 -3
v 0.5 3 -3
v -0.5 9 -2
v 0.5 9 -2
v -0.5 9 -7
v 0.5 9 -7
v -0.5 9 -8
v 0.5 9 -8
v -0.5 10 4
v 0.5 10 4
v -0.5 10 -2
v 0.5 10 -2
v -0.5 11 8
v 0.5 11 8
v -0.5 11 7
v 0.5 11 7
v -0.5 11 4
v 0.5 11 4

# faces
f 3/2/1 2/2/1 1/2/1
f 4/2/1 2/2/1 3/2/1
f 5/2/1 2/2/1 4/2/1
f 6/2/1 2/2/1 5/2/1
f 8/2/1 5/2/1 4/2/1
f 9/2/1 5/2/1 8/2/1
f 13/3/1 9/3/1 8/3/1
f 13/3/1 8/3/1 7/3/1
f 13/3/1 10/3/1 9/3/1
f 14/1/1 11/1/1 10/1/1
f 14/3/1 10/3/1 13/3/1
f 15/3/1 12/3/1 11/3/1
f 15/1/1 11/1/1 14/1/1
f 16/3/1 12/3/1 15/3/1
f 17/2/1 14/2/1 13/2/1
f 17/2/1 15/2/1 14/2/1
f 17/2/1 16/2/1 15/2/1
f 18/3/1 12/3/1 16/3/1
f 18/2/1 16/2/1 17/2/1
f 19/3/1 12/3/1 18/3/1
f 20/2/1 17/2/1 13/2/1
f 21/2/1 17/2/1 20/2/1
f 22/3/1 13/3/1 7/3/1
f 23/2/1 20/2/1 13/2/1
f 23/3/1 13/3/1 22/3/1
f 24/2/1 20/2/1 23/2/1
f 25/2/2 26/2/2 27/2/2
f 27/2/2 26/2/2 28/2/2
f 28/2/2 26/2/2 29/2/2
f 29/2/2 26/2/2 30/2/2
f 28/2/2 29/2/2 32/2/2
f 32/2/2 29/2/2 33/2/2
f 32/3/2 33/3/2 37/3/2
f 31/3/2 32/3/2 37/3/2
f 33/3/2 34/3/2 37/3/2
f 34/1/2 35/1/2 38/1/2
f 37/3/2 34/3/2 38/3/2
f 35/3/2 36/3/2 39/3/2
f 38/1/2 35/1/2 39/1/2
f 39/3/2 36/3/2 40/3/2
f 37/2/2 38/2/2 41/2/2
f 38/2/2 39/2/2 41/2/2
f 39/2/2 40/2/2 41/2/2
f 40/3/2 36/3/2 42/3/2
f 41/2/2 40/2/2 42/2/2
f 42/3/2 36/3/2 43/3/2
f 37/2/2 41/2/2 44/2/2
f 44/2/2 41/2/2 45/2/2
f 31/3/2 37/3/2 46/3/2
f 37/2/2 44/2/2 47/2/2
f 46/3/2 37/3/2 47/3/2
f 47/2/2 44/2/2 48/2/2
f 51/3/3 50/3/3 49/3/3
f 52/3/3 50/3/3 51/3/3
f 55/2/3 54/2/3 53/2/3
f 56/2/3 54/2/3 55/2/3
f 59/2/3 58/2/3 57/2/3
f 60/2/3 58/2/3 59/2/3
f 61/2/4 62/2/4 63/2/4
f 63/2/4 62/2/4 64/2/4
f 65/2/4 66/2/4 67/2/4
f 67/2/4 66/2/4 68/2/4
f 69/2/4 70/2/4 71/2/4
f 71/2/4 70/2/4 72/2/4
f 73/2/4 74/2/4 75/2/4
f 75/2/4 74/2/4 76/2/4
f 77/3/4 78/3/4 79/3/4
f 79/3/4 78/3/4 80/3/4
f 83/2/5 82/2/5 81/2/5
f 84/2/5 82/2/5 83/2/5
f 87/3/5 86/3/5 85/3/5
f 88/3/5 86/3/5 87/3/5
f 91/3/5 90/3/5 89/3/5
f 92/3/5 90/3/5 91/3/5
f 93/1/5 92/1/5 91/1/5
f 94/1/5 92/1/5 93/1/5
f 95/3/5 94/3/5 93/3/5
f 96/3/5 94/3/5 95/3/5
f 97/2/6 98/2/6 99/2/6
f 99/2/6 98/2/6 100/2/6
f 101/2/6 102/2/6 103/2/6
f 103/2/6 102/2/6 104/2/6
f 105/2/6 106/2/6 107/2/6
f 107/2/6 106/2/6 108/2/6
f 107/3/6 108/3/6 109/3/6
f 109/3/6 108/3/6 110/3/6
f 111/2/6 112/2/6 113/2/6
f 113/2/6 112/2/6 114/2/6
f 115/3/6 116/3/6 117/3/6
f 117/3/6 116/3/6 118/3/6
f 117/2/6 118/2/6 119/2/6
f 119/2/6 118/2/6 120/2/6
