# MagicaVoxel @ Ephtracy

# group
g door

# material
mtllib door.mtl
usemtl palette

# normals
vn -1 0 0
vn 1 0 0
vn 0 0 1
vn 0 0 -1
vn 0 -1 0
vn 0 1 0

# texcoords
vt 0.728516 0.5
vt 0.763672 0.5

# verts
v -21 0 2
v -21 0 -2
v -21 84 2
v -21 84 -2
v -19 41 5
v -19 41 3
v -19 41 -3
v -19 41 -5
v -19 43 5
v -19 43 3
v -19 43 -3
v -19 43 -5
v -18 40 5
v -18 40 3
v -18 40 -3
v -18 40 -5
v -18 41 5
v -18 41 3
v -18 41 2
v -18 41 -2
v -18 41 -3
v -18 41 -5
v -18 43 5
v -18 43 3
v -18 43 2
v -18 43 -2
v -18 43 -3
v -18 43 -5
v -18 44 5
v -18 44 3
v -18 44 -3
v -18 44 -5
v -3 6 2
v -3 6 1
v -3 6 -1
v -3 6 -2
v -3 38 2
v -3 38 1
v -3 38 -1
v -3 38 -2
v -3 46 2
v -3 46 1
v -3 46 -1
v -3 46 -2
v -3 78 2
v -3 78 1
v -3 78 -1
v -3 78 -2
v 15 6 2
v 15 6 1
v 15 6 -1
v 15 6 -2
v 15 38 2
v 15 38 1
v 15 38 -1
v 15 38 -2
v 15 46 2
v 15 46 1
v 15 46 -1
v 15 46 -2
v 15 78 2
v 15 78 1
v 15 78 -1
v 15 78 -2
v -16 40 5
v -16 40 3
v -16 40 -3
v -16 40 -5
v -16 41 5
v -16 41 3
v -16 41 2
v -16 41 -2
v -16 41 -3
v -16 41 -5
v -16 43 5
v -16 43 3
v -16 43 2
v -16 43 -2
v -16 43 -3
v -16 43 -5
v -16 44 5
v -16 44 3
v -16 44 -3
v -16 44 -5
v -15 6 2
v -15 6 1
v -15 6 -1
v -15 6 -2
v -15 38 2
v -15 38 1
v -15 38 -1
v -15 38 -2
v -15 41 5
v -15 41 3
v -15 41 -3
v -15 41 -5
v -15 43 5
v -15 43 3
v -15 43 -3
v -15 43 -5
v -15 46 2
v -15 46 1
v -15 46 -1
v -15 46 -2
v -15 78 2
v -15 78 1
v -15 78 -1
v -15 78 -2
v 3 6 2
v 3 6 1
v 3 6 -1
v 3 6 -2
v 3 38 2
v 3 38 1
v 3 38 -1
v 3 38 -2
v 3 46 2
v 3 46 1
v 3 46 -1
v 3 46 -2
v 3 78 2
v 3 78 1
v 3 78 -1
v 3 78 -2
v 21 0 2
v 21 0 -2
v 21 84 2
v 21 84 -2
v -19 41 5
v -19 43 5
v -18 40 5
v -18 41 5
v -18 43 5
v -18 44 5
v -16 40 5
v -16 41 5
v -16 43 5
v -16 44 5
v -15 41 5
v -15 43 5
v -21 0 2
v -21 84 2
v -18 41 2
v -18 43 2
v -16 41 2
v -16 43 2
v -15 6 2
v -15 38 2
v -15 46 2
v -15 78 2
v -3 6 2
v -3 38 2
v -3 46 2
v -3 78 2
v 3 6 2
v 3 38 2
v 3 46 2
v 3 78 2
v 15 6 2
v 15 38 2
v 15 46 2
v 15 78 2
v 21 0 2
v 21 84 2
v -15 6 1
v -15 38 1
v -15 46 1
v -15 78 1
v -3 6 1
v -3 38 1
v -3 46 1
v -3 78 1
v 3 6 1
v 3 38 1
v 3 46 1
v 3 78 1
v 15 6 1
v 15 38 1
v 15 46 1
v 15 78 1
v -19 41 -3
v -19 43 -3
v -18 40 -3
v -18 41 -3
v -18 43 -3
v -18 44 -3
v -16 40 -3
v -16 41 -3
v -16 43 -3
v -16 44 -3
v -15 41 -3
v -15 43 -3
v -19 41 3
v -19 43 3
v -18 40 3
v -18 41 3
v -18 43 3
v -18 44 3
v -16 40 3
v -16 41 3
v -16 43 3
v -16 44 3
v -15 41 3
v -15 43 3
v -15 6 -1
v -15 38 -1
v -15 46 -1
v -15 78 -1
v -3 6 -1
v -3 38 -1
v -3 46 -1
v -3 78 -1
v 3 6 -1
v 3 38 -1
v 3 46 -1
v 3 78 -1
v 15 6 -1
v 15 38 -1
v 15 46 -1
v 15 78 -1
v -21 0 -2
v -21 84 -2
v -18 41 -2
v -18 43 -2
v -16 41 -2
v -16 43 -2
v -15 6 -2
v -15 38 -2
v -15 46 -2
v -15 78 -2
v -3 6 -2
v -3 38 -2
v -3 46 -2
v -3 78 -2
v 3 6 -2
v 3 38 -2
v 3 46 -2
v 3 78 -2
v 15 6 -2
v 15 38 -2
v 15 46 -2
v 15 78 -2
v 21 0 -2
v 21 84 -2
v -19 41 -5
v -19 43 -5
v -18 40 -5
v -18 41 -5
v -18 43 -5
v -18 44 -5
v -16 40 -5
v -16 41 -5
v -16 43 -5
v -16 44 -5
v -15 41 -5
v -15 43 -5
v -21 0 2
v 21 0 2
v -21 0 -2
v 21 0 -2
v -15 38 2
v -3 38 2
v 3 38 2
v 15 38 2
v -15 38 1
v -3 38 1
v 3 38 1
v 15 38 1
v -15 38 -1
v -3 38 -1
v 3 38 -1
v 15 38 -1
v -15 38 -2
v -3 38 -2
v 3 38 -2
v 15 38 -2
v -18 40 5
v -16 40 5
v -18 40 3
v -16 40 3
v -18 40 -3
v -16 40 -3
v -18 40 -5
v -16 40 -5
v -19 41 5
v -18 41 5
v -16 41 5
v -15 41 5
v -19 41 3
v -18 41 3
v -16 41 3
v -15 41 3
v -18 41 2
v -16 41 2
v -18 41 -2
v -16 41 -2
v -19 41 -3
v -18 41 -3
v -16 41 -3
v -15 41 -3
v -19 41 -5
v -18 41 -5
v -16 41 -5
v -15 41 -5
v -15 78 2
v -3 78 2
v 3 78 2
v 15 78 2
v -15 78 1
v -3 78 1
v 3 78 1
v 15 78 1
v -15 78 -1
v -3 78 -1
v 3 78 -1
v 15 78 -1
v -15 78 -2
v -3 78 -2
v 3 78 -2
v 15 78 -2
v -15 6 2
v -3 6 2
v 3 6 2
v 15 6 2
v -15 6 1
v -3 6 1
v 3 6 1
v 15 6 1
v -15 6 -1
v -3 6 -1
v 3 6 -1
v 15 6 -1
v -15 6 -2
v -3 6 -2
v 3 6 -2
v 15 6 -2
v -19 43 5
v -18 43 5
v -16 43 5
v -15 43 5
v -19 43 3
v -18 43 3
v -16 43 3
v -15 43 3
v -18 43 2
v -16 43 2
v -18 43 -2
v -16 43 -2
v -19 43 -3
v -18 43 -3
v -16 43 -3
v -15 43 -3
v -19 43 -5
v -18 43 -5
v -16 43 -5
v -15 43 -5
v -18 44 5
v -16 44 5
v -18 44 3
v -16 44 3
v -18 44 -3
v -16 44 -3
v -18 44 -5
v -16 44 -5
v -15 46 2
v -3 46 2
v 3 46 2
v 15 46 2
v -15 46 1
v -3 46 1
v 3 46 1
v 15 46 1
v -15 46 -1
v -3 46 -1
v 3 46 -1
v 15 46 -1
v -15 46 -2
v -3 46 -2
v 3 46 -2
v 15 46 -2
v -21 84 2
v 21 84 2
v -21 84 -2
v 21 84 -2

# faces
f 3/2/1 2/2/1 1/2/1
f 4/2/1 2/2/1 3/2/1
f 9/1/1 6/1/1 5/1/1
f 10/1/1 6/1/1 9/1/1
f 11/1/1 8/1/1 7/1/1
f 12/1/1 8/1/1 11/1/1
f 17/1/1 14/1/1 13/1/1
f 18/1/1 14/1/1 17/1/1
f 21/1/1 16/1/1 15/1/1
f 22/1/1 16/1/1 21/1/1
f 24/1/1 19/1/1 18/1/1
f 25/1/1 19/1/1 24/1/1
f 26/1/1 21/1/1 20/1/1
f 27/1/1 21/1/1 26/1/1
f 29/1/1 24/1/1 23/1/1
f 30/1/1 24/1/1 29/1/1
f 31/1/1 28/1/1 27/1/1
f 32/1/1 28/1/1 31/1/1
f 37/2/1 34/2/1 33/2/1
f 38/2/1 34/2/1 37/2/1
f 39/2/1 36/2/1 35/2/1
f 40/2/1 36/2/1 39/2/1
f 45/2/1 42/2/1 41/2/1
f 46/2/1 42/2/1 45/2/1
f 47/2/1 44/2/1 43/2/1
f 48/2/1 44/2/1 47/2/1
f 53/2/1 50/2/1 49/2/1
f 54/2/1 50/2/1 53/2/1
f 55/2/1 52/2/1 51/2/1
f 56/2/1 52/2/1 55/2/1
f 61/2/1 58/2/1 57/2/1
f 62/2/1 58/2/1 61/2/1
f 63/2/1 60/2/1 59/2/1
f 64/2/1 60/2/1 63/2/1
f 65/1/2 66/1/2 69/1/2
f 69/1/2 66/1/2 70/1/2
f 67/1/2 68/1/2 73/1/2
f 73/1/2 68/1/2 74/1/2
f 70/1/2 71/1/2 76/1/2
f 76/1/2 71/1/2 77/1/2
f 72/1/2 73/1/2 78/1/2
f 78/1/2 73/1/2 79/1/2
f 75/1/2 76/1/2 81/1/2
f 81/1/2 76/1/2 82/1/2
f 79/1/2 80/1/2 83/1/2
f 83/1/2 80/1/2 84/1/2
f 85/2/2 86/2/2 89/2/2
f 89/2/2 86/2/2 90/2/2
f 87/2/2 88/2/2 91/2/2
f 91/2/2 88/2/2 92/2/2
f 93/1/2 94/1/2 97/1/2
f 97/1/2 94/1/2 98/1/2
f 95/1/2 96/1/2 99/1/2
f 99/1/2 96/1/2 100/1/2
f 101/2/2 102/2/2 105/2/2
f 105/2/2 102/2/2 106/2/2
f 103/2/2 104/2/2 107/2/2
f 107/2/2 104/2/2 108/2/2
f 109/2/2 110/2/2 113/2/2
f 113/2/2 110/2/2 114/2/2
f 111/2/2 112/2/2 115/2/2
f 115/2/2 112/2/2 116/2/2
f 117/2/2 118/2/2 121/2/2
f 121/2/2 118/2/2 122/2/2
f 119/2/2 120/2/2 123/2/2
f 123/2/2 120/2/2 124/2/2
f 125/2/2 126/2/2 127/2/2
f 127/2/2 126/2/2 128/2/2
f 132/1/3 130/1/3 129/1/3
f 133/1/3 130/1/3 132/1/3
f 135/1/3 132/1/3 131/1/3
f 135/1/3 134/1/3 133/1/3
f 135/1/3 133/1/3 132/1/3
f 136/1/3 134/1/3 135/1/3
f 137/1/3 134/1/3 136/1/3
f 138/1/3 134/1/3 137/1/3
f 139/1/3 137/1/3 136/1/3
f 140/1/3 137/1/3 139/1/3
f 143/2/3 142/2/3 141/2/3
f 144/2/3 142/2/3 143/2/3
f 145/2/3 143/2/3 141/2/3
f 146/2/3 142/2/3 144/2/3
f 147/2/3 145/2/3 141/2/3
f 147/2/3 146/2/3 145/2/3
f 148/2/3 146/2/3 147/2/3
f 149/2/3 142/2/3 146/2/3
f 149/2/3 146/2/3 148/2/3
f 150/2/3 142/2/3 149/2/3
f 151/2/3 147/2/3 141/2/3
f 152/2/3 149/2/3 148/2/3
f 153/2/3 149/2/3 152/2/3
f 154/2/3 142/2/3 150/2/3
f 155/2/3 153/2/3 152/2/3
f 155/2/3 154/2/3 153/2/3
f 155/2/3 151/2/3 141/2/3
f 155/2/3 152/2/3 151/2/3
f 156/2/3 154/2/3 155/2/3
f 157/2/3 154/2/3 156/2/3
f 158/2/3 142/2/3 154/2/3
f 158/2/3 154/2/3 157/2/3
f 159/2/3 155/2/3 141/2/3
f 160/2/3 157/2/3 156/2/3
f 161/2/3 157/2/3 160/2/3
f 162/2/3 142/2/3 158/2/3
f 163/2/3 159/2/3 141/2/3
f 163/2/3 162/2/3 161/2/3
f 163/2/3 161/2/3 160/2/3
f 163/2/3 160/2/3 159/2/3
f 164/2/3 142/2/3 162/2/3
f 164/2/3 162/2/3 163/2/3
f 169/2/3 166/2/3 165/2/3
f 170/2/3 166/2/3 169/2/3
f 171/2/3 168/2/3 167/2/3
f 172/2/3 168/2/3 171/2/3
f 177/2/3 174/2/3 173/2/3
f 178/2/3 174/2/3 177/2/3
f 179/2/3 176/2/3 175/2/3
f 180/2/3 176/2/3 179/2/3
f 184/1/3 182/1/3 181/1/3
f 185/1/3 182/1/3 184/1/3
f 187/1/3 184/1/3 183/1/3
f 188/1/3 184/1/3 187/1/3
f 189/1/3 186/1/3 185/1/3
f 190/1/3 186/1/3 189/1/3
f 191/1/3 189/1/3 188/1/3
f 192/1/3 189/1/3 191/1/3
f 193/1/4 194/1/4 196/1/4
f 196/1/4 194/1/4 197/1/4
f 195/1/4 196/1/4 199/1/4
f 199/1/4 196/1/4 200/1/4
f 197/1/4 198/1/4 201/1/4
f 201/1/4 198/1/4 202/1/4
f 200/1/4 201/1/4 203/1/4
f 203/1/4 201/1/4 204/1/4
f 205/2/4 206/2/4 209/2/4
f 209/2/4 206/2/4 210/2/4
f 207/2/4 208/2/4 211/2/4
f 211/2/4 208/2/4 212/2/4
f 213/2/4 214/2/4 217/2/4
f 217/2/4 214/2/4 218/2/4
f 215/2/4 216/2/4 219/2/4
f 219/2/4 216/2/4 220/2/4
f 221/2/4 222/2/4 223/2/4
f 223/2/4 222/2/4 224/2/4
f 221/2/4 223/2/4 225/2/4
f 224/2/4 222/2/4 226/2/4
f 221/2/4 225/2/4 227/2/4
f 225/2/4 226/2/4 227/2/4
f 227/2/4 226/2/4 228/2/4
f 226/2/4 222/2/4 229/2/4
f 228/2/4 226/2/4 229/2/4
f 229/2/4 222/2/4 230/2/4
f 221/2/4 227/2/4 231/2/4
f 228/2/4 229/2/4 232/2/4
f 232/2/4 229/2/4 233/2/4
f 230/2/4 222/2/4 234/2/4
f 232/2/4 233/2/4 235/2/4
f 233/2/4 234/2/4 235/2/4
f 221/2/4 231/2/4 235/2/4
f 231/2/4 232/2/4 235/2/4
f 235/2/4 234/2/4 236/2/4
f 236/2/4 234/2/4 237/2/4
f 234/2/4 222/2/4 238/2/4
f 237/2/4 234/2/4 238/2/4
f 221/2/4 235/2/4 239/2/4
f 236/2/4 237/2/4 240/2/4
f 240/2/4 237/2/4 241/2/4
f 238/2/4 222/2/4 242/2/4
f 221/2/4 239/2/4 243/2/4
f 241/2/4 242/2/4 243/2/4
f 240/2/4 241/2/4 243/2/4
f 239/2/4 240/2/4 243/2/4
f 242/2/4 222/2/4 244/2/4
f 243/2/4 242/2/4 244/2/4
f 245/1/4 246/1/4 248/1/4
f 248/1/4 246/1/4 249/1/4
f 247/1/4 248/1/4 251/1/4
f 249/1/4 250/1/4 251/1/4
f 248/1/4 249/1/4 251/1/4
f 251/1/4 250/1/4 252/1/4
f 252/1/4 250/1/4 253/1/4
f 253/1/4 250/1/4 254/1/4
f 252/1/4 253/1/4 255/1/4
f 255/1/4 253/1/4 256/1/4
f 259/2/5 258/2/5 257/2/5
f 260/2/5 258/2/5 259/2/5
f 265/2/5 262/2/5 261/2/5
f 266/2/5 262/2/5 265/2/5
f 267/2/5 264/2/5 263/2/5
f 268/2/5 264/2/5 267/2/5
f 273/2/5 270/2/5 269/2/5
f 274/2/5 270/2/5 273/2/5
f 275/2/5 272/2/5 271/2/5
f 276/2/5 272/2/5 275/2/5
f 279/1/5 278/1/5 277/1/5
f 280/1/5 278/1/5 279/1/5
f 283/1/5 282/1/5 281/1/5
f 284/1/5 282/1/5 283/1/5
f 289/1/5 286/1/5 285/1/5
f 290/1/5 286/1/5 289/1/5
f 291/1/5 288/1/5 287/1/5
f 292/1/5 288/1/5 291/1/5
f 293/1/5 291/1/5 290/1/5
f 294/1/5 291/1/5 293/1/5
f 298/1/5 296/1/5 295/1/5
f 299/1/5 296/1/5 298/1/5
f 301/1/5 298/1/5 297/1/5
f 302/1/5 298/1/5 301/1/5
f 303/1/5 300/1/5 299/1/5
f 304/1/5 300/1/5 303/1/5
f 309/2/5 306/2/5 305/2/5
f 310/2/5 306/2/5 309/2/5
f 311/2/5 308/2/5 307/2/5
f 312/2/5 308/2/5 311/2/5
f 317/2/5 314/2/5 313/2/5
f 318/2/5 314/2/5 317/2/5
f 319/2/5 316/2/5 315/2/5
f 320/2/5 316/2/5 319/2/5
f 321/2/6 322/2/6 325/2/6
f 325/2/6 322/2/6 326/2/6
f 323/2/6 324/2/6 327/2/6
f 327/2/6 324/2/6 328/2/6
f 329/2/6 330/2/6 333/2/6
f 333/2/6 330/2/6 334/2/6
f 331/2/6 332/2/6 335/2/6
f 335/2/6 332/2/6 336/2/6
f 337/1/6 338/1/6 341/1/6
f 341/1/6 338/1/6 342/1/6
f 339/1/6 340/1/6 343/1/6
f 343/1/6 340/1/6 344/1/6
f 342/1/6 343/1/6 345/1/6
f 345/1/6 343/1/6 346/1/6
f 347/1/6 348/1/6 350/1/6
f 350/1/6 348/1/6 351/1/6
f 349/1/6 350/1/6 353/1/6
f 353/1/6 350/1/6 354/1/6
f 351/1/6 352/1/6 355/1/6
f 355/1/6 352/1/6 356/1/6
f 357/1/6 358/1/6 359/1/6
f 359/1/6 358/1/6 360/1/6
f 361/1/6 362/1/6 363/1/6
f 363/1/6 362/1/6 364/1/6
f 365/2/6 366/2/6 369/2/6
f 369/2/6 366/2/6 370/2/6
f 367/2/6 368/2/6 371/2/6
f 371/2/6 368/2/6 372/2/6
f 373/2/6 374/2/6 377/2/6
f 377/2/6 374/2/6 378/2/6
f 375/2/6 376/2/6 379/2/6
f 379/2/6 376/2/6 380/2/6
f 381/2/6 382/2/6 383/2/6
f 383/2/6 382/2/6 384/2/6
