# MagicaVoxel @ Ephtracy

# group
g Book1

# material
mtllib Book1.mtl
usemtl palette

# normals
vn -1 0 0
vn 1 0 0
vn 0 0 1
vn 0 0 -1
vn 0 -1 0
vn 0 1 0

# texcoords
vt 0.744141 0.5
vt 0.884766 0.5
vt 0.888672 0.5

# verts
v -6 0 4
v -6 0 -3
v -6 1 4
v -6 1 -3
v -6 1 -4
v -6 2 4
v -6 2 -3
v -6 2 -4
v 6 0 4
v 6 0 -3
v 6 1 4
v 6 1 -3
v 6 1 -4
v 6 2 4
v 6 2 -3
v 6 2 -4
v -6 0 4
v -6 1 4
v -6 2 4
v 6 0 4
v 6 1 4
v 6 2 4
v -6 0 -3
v -6 1 -3
v 6 0 -3
v 6 1 -3
v -6 1 -4
v -6 2 -4
v 6 1 -4
v 6 2 -4
v -6 0 4
v 6 0 4
v -6 0 -3
v 6 0 -3
v -6 1 -3
v 6 1 -3
v -6 1 -4
v 6 1 -4
v -6 2 4
v 6 2 4
v -6 2 -3
v 6 2 -3
v -6 2 -4
v 6 2 -4

# faces
f 3/3/1 2/3/1 1/3/1
f 4/3/1 2/3/1 3/3/1
f 6/1/1 4/1/1 3/1/1
f 7/2/1 5/2/1 4/2/1
f 7/1/1 4/1/1 6/1/1
f 8/2/1 5/2/1 7/2/1
f 9/3/2 10/3/2 11/3/2
f 11/3/2 10/3/2 12/3/2
f 11/1/2 12/1/2 14/1/2
f 12/2/2 13/2/2 15/2/2
f 14/1/2 12/1/2 15/1/2
f 15/2/2 13/2/2 16/2/2
f 20/3/3 18/3/3 17/3/3
f 21/1/3 19/1/3 18/1/3
f 21/3/3 18/3/3 20/3/3
f 22/1/3 19/1/3 21/1/3
f 23/3/4 24/3/4 25/3/4
f 25/3/4 24/3/4 26/3/4
f 27/2/4 28/2/4 29/2/4
f 29/2/4 28/2/4 30/2/4
f 33/3/5 32/3/5 31/3/5
f 34/3/5 32/3/5 33/3/5
f 37/2/5 36/2/5 35/2/5
f 38/2/5 36/2/5 37/2/5
f 39/1/6 40/1/6 41/1/6
f 41/1/6 40/1/6 42/1/6
f 41/2/6 42/2/6 43/2/6
f 43/2/6 42/2/6 44/2/6
