# MagicaVoxel @ Ephtracy

# group
g BookBlue2

# material
mtllib BookBlue2.mtl
usemtl palette

# normals
vn -1 0 0
vn 1 0 0
vn 0 0 1
vn 0 0 -1
vn 0 -1 0
vn 0 1 0

# texcoords
vt 0.306641 0.5
vt 0.591797 0.5
vt 0.638672 0.5
vt 0.744141 0.5
vt 0.810547 0.5
vt 0.966797 0.5

# verts
v -6 2 4
v -6 2 -3
v -6 3 4
v -6 3 -3
v -4 1 4
v -4 1 3
v -4 2 4
v -4 2 3
v -3 1 3
v -3 1 -3
v -3 1 -4
v -3 2 3
v -3 2 -3
v -3 2 -4
v 6 1 4
v 6 1 -3
v 6 1 -4
v 6 2 4
v 6 2 -3
v 6 2 -4
v 6 3 4
v 6 3 -3
v -6 2 4
v -6 3 4
v -4 1 4
v -4 2 4
v -2 2 4
v -2 3 4
v -1 2 4
v -1 3 4
v 6 1 4
v 6 2 4
v 6 3 4
v -4 1 3
v -4 2 3
v -3 1 3
v -3 2 3
v -6 2 -3
v -6 3 -3
v -3 2 -3
v -2 2 -3
v -2 3 -3
v -1 2 -3
v -1 3 -3
v 6 2 -3
v 6 3 -3
v -3 1 -4
v -3 2 -4
v 6 1 -4
v 6 2 -4
v -4 1 4
v 6 1 4
v -4 1 3
v -3 1 3
v 5 1 3
v -3 1 -3
v 5 1 -3
v 6 1 -3
v -3 1 -4
v 6 1 -4
v -6 2 4
v -4 2 4
v -5 2 3
v -4 2 3
v -3 2 3
v -5 2 2
v -4 2 2
v -5 2 1
v -4 2 1
v -5 2 -0
v -4 2 -0
v -5 2 -1
v -4 2 -1
v -5 2 -2
v -4 2 -2
v -6 2 -3
v -3 2 -3
v -3 2 -3
v -2 2 -3
v -1 2 -3
v 6 2 -3
v -3 2 -4
v 6 2 -4
v -6 3 4
v -2 3 4
v -1 3 4
v 6 3 4
v -5 3 3
v -4 3 3
v -2 3 3
v -1 3 3
v 0 3 3
v 2 3 3
v 3 3 3
v -5 3 2
v -4 3 2
v -2 3 2
v -1 3 2
v 0 3 2
v 2 3 2
v 3 3 2
v 4 3 2
v -5 3 1
v -4 3 1
v -2 3 1
v -1 3 1
v 2 3 1
v 3 3 1
v -5 3 -0
v -4 3 -0
v -2 3 -0
v -1 3 -0
v 2 3 -0
v 3 3 -0
v -5 3 -1
v -4 3 -1
v -2 3 -1
v -1 3 -1
v 0 3 -1
v 2 3 -1
v 3 3 -1
v 4 3 -1
v -5 3 -2
v -4 3 -2
v -2 3 -2
v -1 3 -2
v 0 3 -2
v 2 3 -2
v 3 3 -2
v -6 3 -3
v -2 3 -3
v -1 3 -3
v 6 3 -3

# faces
f 3/3/1 2/3/1 1/3/1
f 4/3/1 2/3/1 3/3/1
f 7/4/1 6/4/1 5/4/1
f 8/4/1 6/4/1 7/4/1
f 12/1/1 10/1/1 9/1/1
f 13/3/1 11/3/1 10/3/1
f 13/1/1 10/1/1 12/1/1
f 14/3/1 11/3/1 13/3/1
f 15/4/2 16/4/2 18/4/2
f 16/3/2 17/3/2 19/3/2
f 18/4/2 16/4/2 19/4/2
f 19/3/2 17/3/2 20/3/2
f 18/3/2 19/3/2 21/3/2
f 21/3/2 19/3/2 22/3/2
f 26/3/3 24/3/3 23/3/3
f 27/3/3 24/3/3 26/3/3
f 27/4/3 26/4/3 25/4/3
f 28/3/3 24/3/3 27/3/3
f 29/4/3 27/4/3 25/4/3
f 29/2/3 28/2/3 27/2/3
f 30/2/3 28/2/3 29/2/3
f 31/4/3 29/4/3 25/4/3
f 32/3/3 30/3/3 29/3/3
f 32/4/3 29/4/3 31/4/3
f 33/3/3 30/3/3 32/3/3
f 34/4/4 35/4/4 36/4/4
f 36/4/4 35/4/4 37/4/4
f 38/3/4 39/3/4 40/3/4
f 40/3/4 39/3/4 41/3/4
f 41/3/4 39/3/4 42/3/4
f 41/2/4 42/2/4 43/2/4
f 43/2/4 42/2/4 44/2/4
f 43/3/4 44/3/4 45/3/4
f 45/3/4 44/3/4 46/3/4
f 47/3/4 48/3/4 49/3/4
f 49/3/4 48/3/4 50/3/4
f 53/4/5 52/4/5 51/4/5
f 54/4/5 52/4/5 53/4/5
f 55/4/5 52/4/5 54/4/5
f 56/1/5 55/1/5 54/1/5
f 57/4/5 52/4/5 55/4/5
f 57/1/5 55/1/5 56/1/5
f 58/4/5 52/4/5 57/4/5
f 59/3/5 57/3/5 56/3/5
f 59/3/5 58/3/5 57/3/5
f 60/3/5 58/3/5 59/3/5
f 63/3/5 62/3/5 61/3/5
f 64/3/5 62/3/5 63/3/5
f 66/3/5 63/3/5 61/3/5
f 66/5/5 64/5/5 63/5/5
f 67/3/5 65/3/5 64/3/5
f 67/5/5 64/5/5 66/5/5
f 68/3/5 66/3/5 61/3/5
f 68/3/5 67/3/5 66/3/5
f 69/3/5 65/3/5 67/3/5
f 69/3/5 67/3/5 68/3/5
f 70/3/5 68/3/5 61/3/5
f 70/5/5 69/5/5 68/5/5
f 71/3/5 65/3/5 69/3/5
f 71/5/5 69/5/5 70/5/5
f 72/3/5 70/3/5 61/3/5
f 72/3/5 71/3/5 70/3/5
f 73/3/5 65/3/5 71/3/5
f 73/3/5 71/3/5 72/3/5
f 74/3/5 72/3/5 61/3/5
f 74/5/5 73/5/5 72/5/5
f 75/3/5 65/3/5 73/3/5
f 75/5/5 73/5/5 74/5/5
f 76/3/5 74/3/5 61/3/5
f 76/3/5 75/3/5 74/3/5
f 77/3/5 65/3/5 75/3/5
f 77/3/5 75/3/5 76/3/5
f 78/3/6 79/3/6 82/3/6
f 80/3/6 81/3/6 82/3/6
f 79/3/6 80/3/6 82/3/6
f 82/3/6 81/3/6 83/3/6
f 84/3/6 85/3/6 88/3/6
f 88/3/6 85/3/6 89/3/6
f 85/2/6 86/2/6 90/2/6
f 89/3/6 85/3/6 90/3/6
f 86/3/6 87/3/6 91/3/6
f 90/2/6 86/2/6 91/2/6
f 91/3/6 87/3/6 92/3/6
f 92/3/6 87/3/6 93/3/6
f 93/3/6 87/3/6 94/3/6
f 88/5/6 89/5/6 95/5/6
f 84/3/6 88/3/6 95/3/6
f 89/3/6 90/3/6 96/3/6
f 95/5/6 89/5/6 96/5/6
f 90/3/6 91/3/6 96/3/6
f 96/3/6 91/3/6 97/3/6
f 91/2/6 92/2/6 98/2/6
f 97/3/6 91/3/6 98/3/6
f 92/3/6 93/3/6 99/3/6
f 98/2/6 92/2/6 99/2/6
f 93/2/6 94/2/6 100/2/6
f 99/3/6 93/3/6 100/3/6
f 94/3/6 87/3/6 101/3/6
f 100/2/6 94/2/6 101/2/6
f 101/3/6 87/3/6 102/3/6
f 84/3/6 95/3/6 103/3/6
f 96/3/6 97/3/6 103/3/6
f 95/3/6 96/3/6 103/3/6
f 103/3/6 97/3/6 104/3/6
f 97/2/6 98/2/6 105/2/6
f 104/3/6 97/3/6 105/3/6
f 98/3/6 99/3/6 106/3/6
f 105/2/6 98/2/6 106/2/6
f 99/2/6 100/2/6 107/2/6
f 100/6/6 101/6/6 107/6/6
f 101/2/6 102/2/6 108/2/6
f 107/6/6 101/6/6 108/6/6
f 103/5/6 104/5/6 109/5/6
f 84/3/6 103/3/6 109/3/6
f 104/3/6 105/3/6 110/3/6
f 109/5/6 104/5/6 110/5/6
f 105/3/6 106/3/6 110/3/6
f 110/3/6 106/3/6 111/3/6
f 106/3/6 99/3/6 112/3/6
f 111/3/6 106/3/6 112/3/6
f 99/2/6 107/2/6 113/2/6
f 107/2/6 108/2/6 113/2/6
f 108/2/6 102/2/6 114/2/6
f 113/2/6 108/2/6 114/2/6
f 110/3/6 111/3/6 115/3/6
f 84/3/6 109/3/6 115/3/6
f 109/3/6 110/3/6 115/3/6
f 115/3/6 111/3/6 116/3/6
f 111/2/6 112/2/6 117/2/6
f 116/3/6 111/3/6 117/3/6
f 112/3/6 99/3/6 118/3/6
f 117/2/6 112/2/6 118/2/6
f 99/2/6 113/2/6 119/2/6
f 118/3/6 99/3/6 119/3/6
f 113/6/6 114/6/6 120/6/6
f 119/2/6 113/2/6 120/2/6
f 114/2/6 102/2/6 121/2/6
f 120/6/6 114/6/6 121/6/6
f 102/3/6 87/3/6 122/3/6
f 121/2/6 102/2/6 122/2/6
f 115/5/6 116/5/6 123/5/6
f 84/3/6 115/3/6 123/3/6
f 117/3/6 118/3/6 124/3/6
f 123/5/6 116/5/6 124/5/6
f 116/3/6 117/3/6 124/3/6
f 124/3/6 118/3/6 125/3/6
f 118/2/6 119/2/6 126/2/6
f 125/3/6 118/3/6 126/3/6
f 119/3/6 120/3/6 127/3/6
f 126/2/6 119/2/6 127/2/6
f 120/2/6 121/2/6 128/2/6
f 127/3/6 120/3/6 128/3/6
f 121/3/6 122/3/6 129/3/6
f 128/2/6 121/2/6 129/2/6
f 124/3/6 125/3/6 130/3/6
f 84/3/6 123/3/6 130/3/6
f 123/3/6 124/3/6 130/3/6
f 125/2/6 126/2/6 131/2/6
f 130/3/6 125/3/6 131/3/6
f 126/3/6 127/3/6 132/3/6
f 131/2/6 126/2/6 132/2/6
f 128/3/6 129/3/6 132/3/6
f 127/3/6 128/3/6 132/3/6
f 129/3/6 122/3/6 133/3/6
f 132/3/6 129/3/6 133/3/6
f 122/3/6 87/3/6 133/3/6
